<?xml version="1.0" encoding="UTF-8" standalone="no"?>
<!-- Generator: Adobe Illustrator 27.4.1, SVG Export Plug-In . SVG Version: 6.00 Build 0)  -->

<svg
   version="1.1"
   id="Calque_1"
   x="0px"
   y="0px"
   viewBox="0 0 1200 4200.0001"
   xml:space="preserve"
   sodipodi:docname="growth_rings.svg"
   width="1200"
   height="4200"
   inkscape:version="1.1 (c68e22c387, 2021-05-23)"
   xmlns:inkscape="http://www.inkscape.org/namespaces/inkscape"
   xmlns:sodipodi="http://sodipodi.sourceforge.net/DTD/sodipodi-0.dtd"
   xmlns="http://www.w3.org/2000/svg"
   xmlns:svg="http://www.w3.org/2000/svg"><defs
   id="defs9" /><sodipodi:namedview
   id="namedview7"
   pagecolor="#505050"
   bordercolor="#eeeeee"
   borderopacity="1"
   inkscape:pageshadow="0"
   inkscape:pageopacity="0"
   inkscape:pagecheckerboard="0"
   showgrid="false"
   width="4200px"
   inkscape:zoom="0.12557512"
   inkscape:cx="2130.199"
   inkscape:cy="2050.5654"
   inkscape:window-width="1920"
   inkscape:window-height="1009"
   inkscape:window-x="1912"
   inkscape:window-y="-8"
   inkscape:window-maximized="1"
   inkscape:current-layer="Calque_1" />
<g
   id="g4"
   transform="matrix(1.204859,0,0,1.204859,-2862.3278,-427.7743)"
   style="fill:#dee7da;fill-opacity:1;stroke-width:0.829972">
	<path
   d="m 1723.3,4537.1 c -8.4,-110.4 -1.4,-230.5 21.4,-367 20.6,-123.8 52.2,-249.9 80.1,-361.2 l 229,-914.1 c 35.4,-141.3 63.9,-288.9 -8.5,-403.7 -24.5,-38.8 -59.3,-70.6 -93.1,-101.4 -30,-27.4 -61,-55.7 -85.2,-89.2 -35.6,-49.2 -57.1,-108.7 -65.7,-181.8 -7.6,-64.9 -4.7,-134.8 -1.8,-202.3 3.4,-80.4 7,-163.6 -6.9,-241 -12,-66.7 -37.7,-131.2 -62.5,-193.6 -6.9,-17.4 -14.1,-35.4 -20.9,-53.2 -64.6,-170 -108.5,-362.6 -134.4,-588.7 -23.5,-205.3 -30,-419 -35.7,-607.5 l 10,-0.3 c 5.7,188.3 12.2,401.8 35.7,606.7 25.8,225.3 69.5,417 133.8,586.3 6.7,17.7 13.9,35.7 20.8,53.1 25,62.8 50.8,127.8 63,195.5 14.1,78.5 10.5,162.3 7.1,243.2 -2.9,67.2 -5.8,136.6 1.7,200.7 8.5,72.4 28.8,128.6 63.8,177.1 23.6,32.6 54.2,60.6 83.9,87.7 34.2,31.2 69.6,63.5 94.8,103.5 34.2,54.2 49.3,119.7 46.1,200.1 -2.9,72.8 -20.3,147.2 -36.3,211.3 l -229,914.1 c -27.8,111.1 -59.4,237 -79.9,360.4 -22.6,135.8 -29.6,255.1 -21.3,364.6 z m 2066,-46.9 -8.9,-4.6 c 34.2,-65.8 24.9,-139.5 15.2,-217.5 -7.7,-61.5 -15.7,-125.1 -0.5,-184.8 22.7,-89.4 92,-154.5 159,-217.4 26.7,-25 54.2,-50.9 78.4,-78 43,-48.1 67.2,-93.2 74,-138 10.8,-71.3 -22.5,-142.6 -56.5,-202.8 -16.3,-28.9 -34,-58.2 -51.1,-86.5 -70,-116.1 -142.4,-236.2 -149.6,-371.7 -4.9,-92.1 20.7,-181.4 45.6,-267.7 L 4017.7,2294 c 30.8,-107.1 62.6,-217.9 68,-331.2 6.5,-135.6 -25.4,-271.3 -56.3,-402.6 -5.9,-25.2 -12.1,-51.3 -17.8,-76.9 -48.2,-214.7 -77.5,-435.6 -87.1,-656.6 -9.7,-221 0.3,-443.6 29.6,-661.7 l 9.9,1.3 c -29.2,217.5 -39.1,439.5 -29.5,659.9 9.6,220.4 38.9,440.7 86.9,654.8 5.7,25.6 11.9,51.6 17.8,76.8 31,131.9 63.1,268.3 56.5,405.3 -5.4,114.4 -37.4,225.7 -68.4,333.4 l -122.8,427.2 c -24.6,85.5 -50,174 -45.2,264.4 7.1,133.1 78.8,252 148.2,367.1 17.1,28.4 34.8,57.8 51.2,86.8 34.9,61.7 69,134.9 57.7,209.2 -7.1,46.8 -32.1,93.6 -76.4,143.2 -24.4,27.3 -52.2,53.4 -79,78.6 -33.1,31.1 -67.4,63.3 -95.3,97.9 -31.1,38.5 -51,76 -60.8,114.7 -14.7,57.9 -6.8,120.5 0.8,181.1 9.3,76.2 19.2,154.9 -16.4,223.5 z m -767.1,-3.6 c -1.5,-5.6 -3.1,-11.3 -4.7,-17 -20.4,-74.1 -41.5,-150.7 -15.8,-225.1 4.6,-13.3 9.3,-26.4 14,-39.1 24.2,-66.7 47,-129.6 43,-205.1 -3,-56.1 -19.9,-111.3 -36.2,-164.6 -9.7,-31.7 -19.8,-64.4 -26.9,-97.3 -24.9,-114.6 -22,-240.3 8.5,-373.7 26.7,-116.5 74.7,-237 138.9,-348.4 14.1,-24.4 28.6,-49.2 42.6,-73.1 47.8,-81.4 97.2,-165.5 137,-251.8 44.6,-96.6 72.3,-185.8 84.5,-272.7 8.8,-62.1 9.7,-125.9 9.9,-191.2 0.6,-178.9 1.3,-401.5 -31,-609.2 -35.7,-230 -106.9,-412.9 -217.7,-559 -26.2,-34.5 -55.7,-68 -84.3,-100.4 -64.9,-73.5 -131.9,-149.5 -164.5,-243.3 -27.7,-79.8 -28.1,-164.8 -28.5,-247.1 -0.5,-107.6 -1,-215.3 -1.6,-322.9 l 10,-0.1 c 0.5,107.7 1,215.4 1.6,323 0.4,81.4 0.8,165.6 27.9,243.8 31.9,91.9 98.3,167.1 162.5,239.9 28.7,32.5 58.3,66.1 84.7,100.9 111.8,147.5 183.6,331.8 219.6,563.5 32.4,208.4 31.7,431.5 31.1,610.8 -0.2,65.7 -1.1,129.8 -10,192.5 -12.4,87.9 -40.3,178 -85.4,275.5 -40.1,86.8 -89.6,171.1 -137.5,252.7 -14,23.9 -28.6,48.6 -42.6,73 -63.7,110.6 -111.3,230.1 -137.8,345.7 -30.2,131.9 -33.1,256.2 -8.5,369.4 7,32.5 17,65 26.7,96.5 16.5,53.9 33.6,109.6 36.6,167 4.1,77.5 -19.1,141.4 -43.6,209 -4.6,12.7 -9.3,25.8 -13.9,39 -24.7,71.4 -4,146.5 16,219.1 1.6,5.7 3.1,11.3 4.7,17 z m 602.6,-11.6 c -21.2,-18.9 -37.2,-42.4 -47.5,-70 -9.5,-25.4 -13.9,-53.8 -13.3,-84.3 1.2,-56.8 20.6,-118.1 53.1,-168.2 37.2,-57.1 86.9,-105.2 135,-151.8 33.5,-32.4 68.2,-65.9 98.2,-102.2 44.4,-53.6 77.3,-114.3 95.1,-175.7 9.5,-32.8 14.5,-65.3 15,-96.8 0.5,-33.4 -4.3,-65.7 -14.1,-96.1 -14.5,-44.9 -40.2,-86 -65,-125.8 -19.9,-31.8 -40.5,-64.8 -55.5,-99.9 -23,-53.6 -35.3,-115 -39.8,-199.2 -11.7,-217.3 31.8,-434.7 73.8,-645 28.1,-140.5 57.1,-285.7 69.5,-430 15.6,-181 5.7,-363.1 -29.3,-541.3 -14.6,-74.2 -33.9,-148.9 -52.6,-221.2 -30.7,-118.9 -62.5,-241.9 -74.3,-366.3 -10.7,-113.2 -6,-236.6 14.6,-377.3 18.6,-127.5 48.5,-257.7 74.8,-372.5 l 9.7,2.2 c -26.3,114.7 -56.1,244.6 -74.7,371.7 -20.5,139.9 -25.2,262.5 -14.5,374.9 11.7,123.6 43.4,246.2 74,364.7 18.7,72.4 38,147.2 52.7,221.8 35.3,179.1 45.2,362.2 29.5,544.1 -12.5,144.8 -41.6,290.3 -69.7,431.1 -21,105 -42.7,213.5 -57.2,320.5 -16.3,119.8 -21.6,225.1 -16.4,322 4.5,82.9 16.5,143.3 39,195.7 14.8,34.4 35.1,67 54.8,98.5 25.2,40.3 51.2,81.9 66.1,128 10.1,31.4 15,64.8 14.5,99.3 -0.4,32.4 -5.6,65.8 -15.4,99.5 -18.2,62.7 -51.7,124.7 -97,179.3 -30.4,36.7 -65.3,70.4 -99,103 -47.7,46.1 -97,93.8 -133.6,150 -31.6,48.6 -50.4,108 -51.5,163 -0.9,42.8 8.3,103.1 57.4,146.7 z m -1629.3,-0.5 -9.9,-1.7 c 15.9,-94 8.8,-191.4 1.9,-285.5 -4.4,-60 -8.9,-122.1 -7.6,-183.1 2.8,-126.2 31.1,-251.7 58.4,-373 4.6,-20.5 9.4,-41.6 13.9,-62.4 40.1,-183.2 71.4,-371.3 101.6,-553.1 l 0.9,-5.5 c 29.1,-175.2 59.3,-356.5 -4.4,-527.9 -22.1,-59.5 -58.6,-113.5 -93.9,-165.7 -32.3,-47.9 -65.8,-97.3 -88.5,-151.4 -52.6,-125.1 -45.2,-264.2 -38,-398.8 2.9,-53.7 5.8,-109.2 4.9,-163 -1.7,-100 -17.2,-200.7 -32.2,-298.1 -6.2,-40.1 -12.6,-81.5 -17.9,-122.4 -20.5,-156.7 -27.2,-316.7 -19.8,-475.4 7.4,-158.7 28.9,-317.4 63.9,-471.5 l 9.8,2.2 c -34.9,153.6 -56.3,311.6 -63.6,469.8 -7.4,158.1 -0.7,317.5 19.7,473.7 5.3,40.8 11.7,82.2 17.9,122.2 15.1,97.8 30.6,198.9 32.3,299.5 0.9,54.1 -2.1,109.8 -4.9,163.7 -3.6,66.9 -7.3,136 -3.5,202.4 4.2,74.1 17.5,136.9 40.7,192 22.4,53.2 55.5,102.2 87.6,149.7 35.6,52.7 72.5,107.2 95,167.9 64.6,173.9 34.2,356.4 4.9,533 l -0.9,5.5 c -30.2,182 -61.5,370.1 -101.7,553.6 -4.6,20.8 -9.3,42 -13.9,62.5 -27.2,120.8 -55.3,245.8 -58.1,371 -1.4,60.5 3.2,122.3 7.5,182.1 6.8,94.5 14,192.5 -2.1,287.7 z m 187.2,-34.4 -0.1,-1.9 c -5.2,-195.1 -10.5,-396.9 -13.4,-595.5 -2.3,-159 -2.4,-302.2 20.4,-445.6 11,-69.2 27.6,-138.6 43.6,-205.6 20.9,-87.3 42.4,-177.5 51.8,-268 10,-96.2 4.6,-178.7 -16.3,-252.3 -27.8,-97.7 -68.1,-192.5 -107,-284.1 -48.3,-113.7 -98.3,-231.2 -125.2,-355.9 -18.1,-84 -26.1,-174.5 -24.4,-276.8 1.7,-99.8 12.7,-200.5 22.1,-277 9.5,-77.1 27.8,-149.2 47.1,-225.5 2.3,-9.1 4.6,-18.1 6.9,-27.2 6.2,-24.6 14.8,-51 24,-79 19.1,-58.5 38.9,-118.9 38.9,-170.8 0,-0.4 0.1,-0.8 0.2,-1.2 15,-59.6 30.5,-121.2 36.7,-183.2 9.3,-92.5 3,-192.7 -19.2,-306.3 C 2149,382.5 2118.5,281 2089,185.8 l 9.6,-3 c 29.6,95.5 60.1,197.3 80.1,299.3 22.4,114.6 28.8,215.8 19.4,309.3 -6.3,62.5 -21.8,124.3 -36.8,184 -0.2,53.3 -20.1,114.3 -39.4,173.2 -9.1,27.8 -17.7,54.1 -23.8,78.3 -2.3,9.1 -4.6,18.2 -6.9,27.3 -19.3,76 -37.4,147.8 -46.9,224.3 -9.4,76.3 -20.4,176.6 -22.1,276 -1.7,101.5 6.2,191.3 24.2,274.5 26.7,123.8 76.5,240.9 124.6,354.1 39.1,91.9 79.5,187 107.4,285.3 21.3,74.8 26.7,158.5 16.6,256 -9.4,91.2 -31.1,181.7 -52,269.3 -16,66.9 -32.5,136 -43.5,204.8 -22.7,142.6 -22.6,285.4 -20.3,443.9 2.9,198.5 8.3,400.2 13.4,595.3 l 0.1,1.9 z m -738.6,-4.5 -7.6,-6.5 c 49.2,-57.1 92.7,-119.3 133,-190.2 35.9,-63.2 68.4,-131.9 99.4,-210.1 57.6,-145.3 100.8,-301.7 142.6,-453 25.9,-93.9 52.8,-191.1 82.7,-284.3 9.9,-30.7 20.3,-61.8 30.5,-91.9 33.5,-99.5 68.2,-202.3 86,-307.2 18.5,-109 24.8,-267.3 -50.2,-402.5 -24.4,-44 -56.7,-84.2 -88,-123 -37.2,-46.2 -75.6,-94 -101.2,-148.6 -48.7,-103.9 -47.1,-221.4 -45.6,-335 0.8,-60.9 1.7,-124 -5.2,-184.4 -13.6,-119.4 -58.2,-234.1 -101.3,-345 -20.8,-53.6 -42.4,-108.9 -60.2,-164.3 -45.6,-141.4 -73,-300.3 -83.9,-485.8 -9.9,-168.5 -5.3,-342.9 -1.3,-496.8 l 10,0.3 c -4,153.7 -8.6,327.8 1.3,496 10.8,184.6 38.1,342.7 83.5,483.3 17.8,55.1 39.3,110.4 60,163.8 43.4,111.5 88.2,226.8 101.9,347.5 6.9,61 6.1,124.4 5.2,185.7 -0.8,56.5 -1.6,114.9 3.8,170.5 6,62.1 19.4,114.5 40.8,160.1 25.1,53.6 63.2,100.9 100,146.6 31.5,39.2 64.1,79.8 88.9,124.5 76.4,137.8 70.1,298.5 51.3,409 -17.9,105.6 -52.7,208.9 -86.4,308.7 -10.1,30 -20.6,61.1 -30.4,91.8 -29.9,93 -56.7,190.1 -82.6,283.9 -41.9,151.6 -85.2,308.3 -142.9,454 -31.1,78.6 -63.8,147.7 -100,211.3 -40.6,71.3 -84.4,134 -134.1,191.6 z m 951.6,-7.1 -9.8,-1.9 c 16.4,-82.4 1.9,-168.3 -12,-251.2 -1.7,-9.8 -3.4,-20 -5,-30 -25.2,-154.5 -37.2,-312.7 -35.5,-470.1 1.6,-157.4 16.9,-315.2 45.4,-469.2 3.9,-20.9 8,-42 12,-62.5 15.7,-79.7 31.9,-162.1 33.4,-244.2 1.6,-86.3 -12.5,-178.1 -43.3,-280.6 -27.5,-91.7 -65.5,-183.5 -102.2,-272.4 -60.3,-145.9 -122.7,-296.7 -142.2,-454 -13.9,-112.4 -7,-233.9 21.1,-371.6 25,-122.5 64.1,-246 101.9,-365.5 26.3,-83 53.4,-168.8 75.5,-253.3 18.1,-69.3 36.9,-151.8 38.3,-237.3 2.5,-146 -44.9,-286.4 -90.7,-422.2 l 9.5,-3.2 c 21.7,64.3 46.3,137.2 63.9,209.5 19.5,79.7 28.4,150.4 27.3,216.1 -1.5,86.6 -20.4,169.8 -38.7,239.7 -22.2,84.8 -49.4,170.7 -75.7,253.8 -37.7,119.2 -76.7,242.5 -101.6,364.5 -27.9,136.6 -34.7,257.1 -20.9,368.4 19.3,156 81.5,306.1 141.5,451.4 36.8,89.1 74.9,181.2 102.5,273.3 31,103.5 45.3,196.3 43.7,283.6 -1.6,83 -17.8,165.9 -33.6,246 -4,20.5 -8.2,41.6 -12,62.4 -28.3,153.4 -43.5,310.7 -45.2,467.5 -1.6,156.8 10.3,314.4 35.4,468.3 1.6,10 3.3,20.1 5,29.9 14.2,83.8 28.8,170.5 12,254.8 z m -595.7,-1.9 c -42.4,-183.9 23.6,-369.6 87.4,-549.3 5,-14.1 10.2,-28.7 15.2,-43 129.9,-369.6 212.5,-755 245.7,-1145.4 4.7,-54.9 7.9,-108.4 -4.1,-159.3 -19,-81.2 -74.6,-147.9 -128.4,-212.4 -49.3,-59.1 -100.3,-120.2 -124.7,-193.5 -26.1,-78.2 -19.5,-162.3 -13.2,-243.7 1.6,-20.4 3.2,-41.5 4.3,-62 7,-132.9 -8.6,-265 -46.4,-392.6 -16.1,-54.4 -36.6,-108.7 -56.3,-161.2 -33.7,-89.5 -68.6,-182 -83.1,-278.2 -20,-132.5 -0.9,-267.7 17.6,-398.5 12.5,-88.7 25.5,-180.4 26.2,-270.6 l 10,0.1 c -0.6,91 -13.6,183 -26.2,272 -18.4,130 -37.4,264.5 -17.6,395.6 14.3,95.1 49,187.1 82.5,276.1 19.8,52.7 40.4,107.1 56.6,161.9 38.1,128.7 53.8,261.9 46.7,396 -1.1,20.7 -2.7,41.8 -4.3,62.3 -6.3,80.4 -12.7,163.5 12.7,239.7 23.8,71.5 74.2,131.9 122.9,190.3 54.5,65.4 110.9,133 130.4,216.5 12.3,52.3 9,106.7 4.3,162.4 -33.2,391.2 -116.1,777.4 -246.2,1147.8 -5,14.3 -10.2,28.9 -15.2,43.1 -63.3,178.3 -128.8,362.6 -87.1,543.7 z m -772.6,-6.7 -10,-0.3 c 2.7,-94.9 -11.8,-193 -44.6,-300 -29.3,-95.7 -70.2,-189.9 -109.8,-280.9 -47.9,-110.2 -97.4,-224.2 -127.6,-343.4 -24.3,-95.8 -21,-196.4 -17.8,-293.8 3,-91.4 6.1,-185.8 -13.7,-275.7 -9.7,-43.8 -24.9,-87 -39.7,-128.8 -8.3,-23.5 -16.9,-47.8 -24.4,-72.1 -53.6,-172.5 -64.1,-368.6 -33.1,-617.4 5.8,-46.5 14.9,-93.6 23.8,-139.1 10.8,-55.6 22,-113.1 27,-169.6 7.6,-84.1 40.2,-124.3 89.6,-185.2 4.5,-5.5 9.1,-11.2 13.8,-17.1 41.9,-52.2 73.8,-111.5 94.8,-176.3 19.7,-60.9 29.8,-126.9 30.2,-196.2 0.6,-129.2 -32.5,-267.2 -95.8,-399 -31.4,-65.4 -78.2,-123.6 -135.2,-168.4 -17.2,-13.5 -38.1,-27.8 -61.7,-31.2 -18,-2.6 -45.5,0 -74.9,27.1 -20.2,18.6 -37.7,46.1 -48,75.4 -6.3,17.9 -11.3,36.8 -16,55.1 -10.4,39.9 -21.2,81.2 -46.5,114.7 -15.3,20.3 -35.1,36.6 -54.2,52.3 -9.2,7.5 -18.6,15.3 -27.4,23.4 -65.8,60.6 -89.6,144.1 -114.7,232.5 -5.8,20.3 -11.7,41.3 -18.2,61.8 -23.6,74.9 -19.6,117.6 -13.4,146.5 2.5,11.8 4.7,23.4 6.8,34.6 6.1,32.7 11.9,63.6 25.4,95.6 22.6,53.6 26.3,112.5 29.8,169.5 2.1,34 4.3,69.1 10.4,102.7 16.2,88 60.2,168.7 102.8,246.8 37.5,68.8 76.3,139.8 96.7,216.4 26.9,101 20.9,207.8 15.1,311 -0.8,13.4 -1.5,27.3 -2.2,40.9 -3.9,76.1 -5.4,156.5 21.3,230.3 8.4,23.2 19.7,45.8 30.6,67.7 7.3,14.7 14.9,29.9 21.6,45.3 33.8,77.5 49,165.4 46.3,268.7 -2.3,92 -18.2,187.8 -33.6,280.5 -24.7,148.9 -50.2,302.8 -21.7,448.8 6.2,31.7 15.1,63.4 23.6,94.1 10.1,36.2 20.5,73.5 26.8,111.3 9.7,58.7 11.5,142.2 -34.4,207 l -8.2,-5.8 c 43.9,-62 42,-142.8 32.7,-199.6 -6.1,-37.2 -16.5,-74.3 -26.5,-110.2 -8.6,-30.9 -17.5,-62.8 -23.8,-94.9 -28.9,-147.7 -3.2,-302.6 21.7,-452.3 15.3,-92.4 31.2,-187.8 33.5,-279.1 2.6,-101.9 -12.3,-188.4 -45.5,-264.5 -6.6,-15.1 -14.1,-30.2 -21.4,-44.8 -11,-22.1 -22.5,-45 -31,-68.7 -27.3,-75.6 -25.8,-157.2 -21.8,-234.2 0.7,-13.6 1.5,-27.5 2.2,-40.9 5.8,-102.4 11.7,-208.4 -14.7,-307.9 -20,-75.4 -58.5,-146 -95.8,-214.2 -43,-78.8 -87.4,-160.2 -103.9,-249.7 -6.3,-34.2 -8.5,-69.6 -10.6,-103.9 -3.5,-56.2 -7.1,-114.3 -29,-166.3 -13.9,-32.9 -19.8,-64.3 -26,-97.6 -2.1,-11.1 -4.2,-22.6 -6.7,-34.3 -12.2,-57.3 0.9,-111.1 13.7,-151.6 6.4,-20.4 12.4,-41.3 18.1,-61.6 12.2,-42.9 24.8,-87.3 42.5,-127.7 19.9,-45.5 44.5,-81.3 75,-109.4 9,-8.3 18.6,-16.1 27.8,-23.8 18.7,-15.4 38,-31.2 52.6,-50.6 24.1,-32 34.7,-72.3 44.9,-111.2 4.8,-18.5 9.9,-37.7 16.3,-55.9 20.7,-58.9 71.5,-118.1 133.8,-109 25.9,3.8 48.1,18.9 66.4,33.3 58.3,45.7 106,105.1 138.1,171.9 63.9,133.1 97.4,272.6 96.7,403.3 -0.3,70.3 -10.7,137.3 -30.6,199.2 -21.3,66 -53.8,126.3 -96.5,179.4 -4.8,5.9 -9.4,11.6 -13.9,17.1 -50,61.6 -80.1,98.7 -87.4,179.8 -5.1,57 -16.3,114.8 -27.2,170.6 -8.8,45.4 -17.9,92.3 -23.7,138.5 -30.8,247.3 -20.4,442.1 32.7,613.2 7.5,24.1 16,48.3 24.3,71.7 14.9,42.1 30.2,85.6 40,130 20.1,91 17,186.1 14,278.1 -3.2,96.7 -6.4,196.7 17.5,291 30,118.4 79.4,232 127.1,341.8 39.7,91.3 80.7,185.8 110.2,282 32.6,108.1 47.4,207.3 44.6,303.3 z m 2226.9,-14.9 -9.9,-1.7 c 13.2,-78.8 19.3,-159.6 17.9,-239.9 -1.4,-80.4 -10.2,-160.8 -26.2,-239.2 -5.3,-25.9 -12.2,-55.6 -26.9,-80.4 -14.7,-24.7 -36,-43.6 -58.6,-63.5 -13,-11.5 -26.5,-23.4 -38.4,-36.5 -27.7,-30.4 -48.3,-68.1 -61.2,-112.1 -11.6,-39.8 -16.5,-83 -14.6,-128.3 3.7,-86 29.8,-169.1 55,-249.3 21.5,-68.4 45.8,-145.8 76.7,-218.8 33.9,-80 71.8,-145 115.9,-198.7 17.2,-20.9 36.1,-41 54.3,-60.4 31.9,-34 64.9,-69.1 89.3,-109.3 47.8,-78.9 61,-172.3 71.2,-269.1 6.7,-63.6 17,-126.9 26.9,-188 20,-123.5 40.8,-251.3 32,-382.8 -13.3,-199.6 -70.6,-395 -165.6,-565.2 -9.3,-16.6 -19,-33.2 -28.5,-49.4 -24.5,-41.8 -49.9,-85.1 -68.7,-130.8 -14.7,-35.7 -25.4,-73.3 -35.9,-109.7 -9.8,-34 -19.8,-69.3 -33,-102.6 -21.2,-53.4 -51.1,-104.1 -80,-153 -28.7,-48.6 -58.5,-98.9 -79.8,-152.3 -36.8,-91.9 -36.1,-179 -35.4,-271.2 0.2,-23.6 0.4,-48.1 -0.1,-72.8 l 10,-0.2 c 0.5,24.8 0.3,49.3 0.1,73 -0.7,91.2 -1.4,177.3 34.7,267.4 21.1,52.7 50.6,102.6 79.2,151 29.1,49.3 59.2,100.2 80.7,154.4 13.4,33.8 23.5,69.2 33.4,103.5 10.4,36.1 21.1,73.5 35.5,108.7 18.5,45.1 43.7,88 68,129.5 9.5,16.2 19.3,32.9 28.6,49.6 95.8,171.5 153.5,368.4 166.9,569.4 8.8,132.6 -12,260.9 -32.1,385 -9.9,61.1 -20.1,124.2 -26.8,187.5 -10.4,98 -23.8,192.6 -72.6,273.3 -24.9,41.1 -58.3,76.6 -90.6,111 -18.1,19.3 -36.9,39.2 -53.9,59.9 -43.5,52.9 -80.9,117.1 -114.4,196.2 -30.7,72.5 -55,149.8 -76.4,217.9 -25,79.7 -50.9,162 -54.6,246.8 -1.9,43.7 3,86.9 14.2,125.1 12.4,42.5 32.3,78.9 59,108.2 11.6,12.7 24.8,24.4 37.6,35.7 22.1,19.6 45,39.9 60.5,65.9 15.6,26.2 22.7,56.9 28.2,83.6 16.1,78.9 25,160 26.4,241 1.4,80.8 -4.6,162.1 -18,241.6 z m -349.7,-25.8 c -33.6,-254.2 -27.6,-513 18,-769.4 45.6,-256.3 129.2,-501.4 248.4,-728.4 13.2,-25.2 27.1,-50.5 40.5,-75.1 42.1,-77 85.6,-156.5 114.7,-240.5 38.3,-110.7 54.4,-235.9 49.3,-382.7 -4.4,-126.4 -23.3,-252.4 -45.6,-392.3 -26.4,-165.2 -53.7,-336.1 -122.3,-492 -47.5,-108 -114.8,-207.9 -179.8,-304.5 -47.7,-70.8 -97,-144.1 -138.4,-220.2 -53.5,-98.4 -88.6,-200.3 -101.6,-294.8 -15.3,-111.8 -0.3,-211.8 44.7,-297 l 8.8,4.7 c -44,83.3 -58.6,181.3 -43.6,291 12.8,93.3 47.5,194.1 100.5,291.4 41.2,75.8 90.4,148.8 137.9,219.4 65.3,97 132.8,197.2 180.7,306 69.1,157.1 96.5,328.6 123,494.5 22.4,140.2 41.3,266.5 45.7,393.5 5.2,148.1 -11.2,274.5 -49.9,386.3 -29.3,84.7 -73.1,164.7 -115.4,242 -13.4,24.5 -27.3,49.9 -40.5,74.9 -118.8,226.1 -202,470.2 -247.4,725.5 -45.4,255.3 -51.5,513.2 -18,766.3 z m 405.6,-0.7 c -7.2,-100.2 -0.6,-200.9 19.6,-299.3 5.5,-26.8 12.8,-57.7 29.8,-83.8 13.8,-21.2 32.8,-37.8 51.3,-53.9 26.5,-23.1 56.6,-45.9 88.5,-70.1 70.4,-53.3 143.3,-108.5 185,-172.9 24,-36.9 37.8,-73.8 41,-109.6 3.7,-41.3 -7.6,-81.2 -30.9,-109.4 -23.3,-28.2 -53.8,-45.7 -86.1,-64.3 -33.4,-19.3 -68,-39.2 -93.4,-71.8 -21.2,-27.2 -35,-58.2 -42.3,-94.7 -6,-30 -7.5,-64.1 -4.6,-104.4 5.4,-75.9 26.1,-149.9 46.1,-221.5 19.2,-68.5 39,-139.3 45,-211.1 5.1,-61 2.7,-123.9 0.4,-184.6 -2.2,-58.1 -4.5,-118.2 -0.3,-177 6.3,-87.8 28.5,-172.9 49.9,-255.3 28,-107.8 57,-219.2 50.1,-336.2 -5.3,-89.8 -29.3,-178.6 -52.5,-264.4 -17.2,-63.7 -35,-129.7 -45.2,-195.9 -8.3,-53.9 -6.1,-107.1 -3.9,-158.5 1.6,-37.2 3.2,-75.6 0.8,-113.8 -1.1,-17.9 -2.5,-36 -3.7,-53.4 -4.5,-61.4 -8.7,-119.4 -6.4,-181.7 6.9,-182.7 30.6,-374 70.5,-568.5 l 9.8,2 c -39.7,193.9 -63.4,384.7 -70.3,566.8 -2.3,61.7 1.9,119.4 6.4,180.6 1.3,17.5 2.6,35.5 3.7,53.5 2.5,38.7 0.8,77.4 -0.8,114.8 -2.2,50.9 -4.4,103.6 3.8,156.5 10.1,65.7 27.9,131.4 45,194.9 23.3,86.3 47.4,175.6 52.8,266.4 7,118.6 -22.2,230.8 -50.4,339.3 -21.3,82 -43.4,166.7 -49.6,253.5 -4.2,58.3 -1.9,118.1 0.3,176 2.3,61.1 4.7,124.2 -0.5,185.9 -6.1,72.8 -26.1,144 -45.4,213 -19.9,71.1 -40.5,144.6 -45.7,219.5 -2.8,39.4 -1.3,72.6 4.5,101.7 7,35 20.2,64.6 40.4,90.5 24.2,31.1 57.9,50.5 90.5,69.3 31.6,18.2 64.3,37 88.8,66.6 25,30.2 37.1,72.8 33.2,116.7 -3.4,37.4 -17.7,75.8 -42.6,114.1 -42.7,65.8 -116.3,121.5 -187.4,175.4 -31.8,24.1 -61.8,46.8 -88,69.6 -17.9,15.6 -36.5,31.8 -49.5,51.8 -16,24.6 -23,54.4 -28.3,80.3 -20,97.5 -26.6,197.3 -19.4,296.6 z m -1035.4,0 -9.8,-2.1 c 25.9,-119.5 12.9,-243.2 0.3,-362.9 -0.7,-6.9 -1.4,-13.8 -2.2,-20.6 -3.3,-31.4 -8.7,-64.5 -13.9,-96.5 -10.9,-66.7 -22.1,-135.6 -16.8,-200.1 14.4,-175.7 35.3,-354.1 55.5,-526.6 10.1,-86.3 20.5,-175.5 30,-263.1 8.6,-79.3 17.5,-161.3 4.9,-241.3 -16.3,-104 -65.6,-199.3 -113.2,-291.5 -36.2,-70 -73.5,-142.3 -96.6,-218.4 -25,-82.3 -55.6,-190.8 -70.5,-299.8 -15.4,-113.1 -12.7,-213.5 8.4,-307 19,-84.2 53.7,-164.7 87.3,-242.5 18.8,-43.4 38.2,-88.4 54.6,-133.4 52.2,-143.3 79.4,-301.9 80.7,-471.4 1.2,-152.5 -18.4,-313.9 -58.3,-479.8 l 9.7,-2.3 c 40.1,166.7 59.8,328.9 58.6,482.2 -1.3,170.6 -28.7,330.3 -81.3,474.7 -16.5,45.3 -36,90.4 -54.8,133.9 -33.4,77.4 -68,157.5 -86.8,240.7 -20.8,92.3 -23.5,191.6 -8.2,303.5 14.8,108.3 45.3,216.2 70.2,298.2 22.8,75.2 60,147.1 96,216.7 48,92.9 97.7,189 114.2,294.6 12.8,81.3 3.8,164 -4.8,243.9 -9.5,87.7 -19.9,176.9 -30,263.2 -20.2,172.4 -41.1,350.7 -55.4,526.2 -5.2,63.3 6,131.6 16.7,197.7 5.2,32.2 10.7,65.5 14,97.1 0.7,6.9 1.4,13.7 2.2,20.6 12.4,120.5 25.5,245 -0.7,366.1 z m 1069.1,-6 c -0.4,-68.7 0.2,-141.5 11.4,-209.9 12.7,-77.9 37.5,-140 75.7,-190 36.5,-47.6 85.5,-83.7 132.9,-118.6 40.5,-29.9 82.5,-60.7 116.1,-98.5 48.9,-54.9 80.4,-125.4 88.7,-198.5 4,-35.4 1,-62 -9.6,-83.7 -18.5,-37.8 -56.9,-56.5 -97.5,-76.3 -24.5,-11.9 -49.8,-24.3 -70.8,-41.3 -29.1,-23.5 -50.3,-56.2 -62.9,-97 -11,-35.7 -15,-76.4 -11.4,-117.8 4.5,-51.9 18.8,-102.7 32.5,-151.9 6.8,-24.4 13.9,-49.5 19.6,-74.5 25.5,-110.2 28.2,-226.1 30.8,-338.3 3,-128.5 6.2,-261.4 43.5,-386.4 13.2,-44.3 30.9,-88 48,-130.3 27.8,-68.7 56.6,-139.8 66.2,-213.9 13.2,-101.5 -9.7,-204.7 -31.7,-304.4 -3.8,-17.4 -7.8,-35.3 -11.5,-52.9 -89.4,-424.3 -65.3,-862.8 -42,-1287 l 10,0.5 c -23.2,423.5 -47.3,861.4 41.8,1284.4 3.7,17.6 7.7,35.5 11.5,52.8 22.3,100.6 45.3,204.6 31.9,307.9 -9.8,75.4 -38.8,147.1 -66.8,216.4 -17,42 -34.6,85.5 -47.7,129.4 -37,123.7 -40.1,255.9 -43.1,383.8 -2.7,112.6 -5.4,229.1 -31.1,340.3 -5.8,25.2 -12.9,50.5 -19.8,74.9 -13.7,48.7 -27.8,99.1 -32.2,150.1 -3.5,40.2 0.3,79.6 11,114 12,38.9 32.1,70 59.6,92.2 20.1,16.3 44.9,28.4 68.9,40 40.4,19.7 82.1,40 102.1,80.9 11.5,23.4 14.8,51.8 10.5,89.2 -8.6,75.1 -41,147.5 -91.2,204 -34.3,38.6 -76.7,69.8 -117.6,99.9 -46.9,34.5 -95.3,70.2 -130.9,116.7 -37.3,48.6 -61.4,109.3 -73.8,185.5 -11,67.6 -11.6,139.9 -11.2,208.2 z m -845.6,-14.5 -8.8,-4.8 c 24,-43.9 42.5,-90.3 56.6,-141.9 12.5,-46 21.2,-95.2 26.5,-150.2 9.9,-102.6 6.2,-211 2.6,-315.9 -3.8,-112.4 -7.8,-228.7 4.6,-340 8.6,-76.9 25.3,-155 41.5,-230.5 17,-79.4 34.6,-161.5 42.5,-241.5 8.8,-89.4 4.2,-167 -14,-237.2 -24.1,-93.1 -74.4,-179.2 -122.9,-262.4 -59.2,-101.5 -120.5,-206.4 -134.3,-324.4 -7.1,-61 -1.1,-123.1 4.8,-183.2 2.8,-28.7 5.7,-58.3 7.1,-87.4 4.2,-87.4 -4.7,-176.7 -13.2,-263 -11,-110.7 -22.4,-225.2 -6.2,-337.2 10.5,-72.5 32.6,-143.6 53.9,-212.3 10.3,-33.1 20.9,-67.3 30.1,-101.2 31.1,-115 47.8,-234.3 49.5,-354.6 1.7,-120.3 -11.6,-240.1 -39.5,-355.8 l 9.7,-2.3 c 28.1,116.6 41.5,237.2 39.8,358.3 -1.7,121.2 -18.5,241.3 -49.8,357.1 -9.2,34.1 -19.9,68.4 -30.2,101.6 -21.2,68.4 -43.2,139.1 -53.6,210.8 -16,110.7 -4.7,224.6 6.3,334.7 8.6,86.6 17.5,176.2 13.3,264.4 -1.4,29.3 -4.3,59.1 -7.1,87.9 -5.8,59.5 -11.8,121.1 -4.8,181 6.1,51.9 22.1,105.9 49,165 24.1,52.9 54.5,105.1 84,155.6 48.9,83.8 99.5,170.5 124,264.9 18.5,71.4 23.2,150.1 14.3,240.7 -7.9,80.6 -25.6,163 -42.6,242.6 -16.1,75.3 -32.8,153.1 -41.3,229.5 -12.3,110.6 -8.4,226.5 -4.6,338.6 3.6,105.2 7.3,214 -2.6,317.2 -5.3,55.6 -14.1,105.3 -26.8,151.9 -14.5,52.3 -33.3,99.4 -57.8,144 z m -415.2,-24.3 c -9,-287.7 -18.4,-585.1 36.5,-873.6 13.6,-71.7 31.5,-143.8 48.7,-213.5 21.6,-87.2 43.9,-177.3 58.1,-267.3 13.9,-88.3 18.4,-171 13.3,-245.6 -6,-86.9 -25.1,-166.1 -57,-235.2 -12.2,-26.5 -27.6,-51.9 -42.5,-76.5 -12.8,-21.1 -26.1,-43 -37.3,-65.6 -15,-30 -24.1,-62.6 -33,-94.1 -3.8,-13.4 -7.7,-27.3 -12,-40.9 -34.6,-108.7 -68.3,-226 -80.7,-348 -10.4,-102.3 -0.8,-205.2 8.4,-304.7 6.5,-69.8 13.2,-142 12.7,-212.4 -0.5,-78.6 -10.2,-147.1 -29.5,-209.4 -3.1,-10 -6.4,-20.3 -9.5,-30.2 -28.3,-89.6 -57.6,-182.2 -47.2,-276.1 6.1,-54.7 25.6,-107.1 44.5,-157.7 8.1,-21.8 16.5,-44.3 23.7,-66.6 21.2,-65.8 33.7,-137.4 37.3,-212.7 3.5,-72.5 -1.5,-145.1 -14.7,-215.8 l 9.8,-1.8 c 13.4,71.4 18.4,144.8 14.9,218.1 -3.6,76.2 -16.4,148.7 -37.8,215.3 -7.3,22.5 -15.7,45.2 -23.8,67 -18.7,50.1 -38,101.8 -43.9,155.3 -10.2,91.8 18.7,183.4 46.8,272 3.1,9.9 6.4,20.2 9.5,30.3 19.6,63.2 29.4,132.7 30,212.3 0.5,70.9 -6.3,143.3 -12.8,213.4 -9.2,99 -18.7,201.4 -8.4,302.7 12.3,121.1 45.9,237.8 80.3,346 4.4,13.7 8.3,27.7 12.1,41.2 9.1,32.5 17.8,63.1 32.3,92.3 11.1,22.2 24.2,43.9 36.9,64.8 15,24.8 30.6,50.5 43.1,77.5 32.3,70.2 51.8,150.5 57.9,238.7 5.2,75.4 0.7,158.8 -13.4,247.8 -14.3,90.5 -36.6,180.8 -58.3,268.2 -17.2,69.5 -35,141.5 -48.6,212.9 -54.6,287.4 -45.3,584.3 -36.3,871.4 z m 374,-1.8 c -27.1,-344 -55.1,-699.7 4.7,-1046.7 7.2,-42 15.9,-84.9 24.2,-126.4 16.6,-82.5 33.8,-167.9 41.1,-251.3 8.1,-93.4 2.6,-174.1 -16.8,-246.7 -23.9,-89 -70.7,-171.5 -116,-251.3 -49.8,-87.6 -101.2,-178.1 -122.7,-277.9 -14.4,-67.2 -15,-135.6 -14.2,-211.6 3,-304.7 18.1,-629.1 107.1,-937.6 7.8,-27 16.3,-54.4 24.5,-80.9 28,-90.1 56.9,-183.3 62.9,-278.4 8.4,-131.3 -26.2,-260.4 -59.7,-385.3 l 9.7,-2.6 c 33.7,125.6 68.4,255.5 60,388.5 -6.1,96.2 -35.2,190 -63.4,280.7 -8.2,26.5 -16.7,53.8 -24.5,80.8 -88.6,307.3 -103.6,631 -106.7,935 -0.8,75.4 -0.2,143.3 14,209.4 21.1,98.3 72.2,188.2 121.6,275.1 45.6,80.3 92.8,163.4 117,253.6 44,164.3 9.4,336.2 -24.1,502.5 -8.4,41.4 -17,84.3 -24.2,126.1 -59.6,345.8 -31.6,700.9 -4.6,1044.2 z m 320.7,-0.4 c -27.7,-164.8 -3.7,-331.8 19.4,-493.4 37.3,-260.1 75.8,-529.1 184.7,-774.5 26.4,-59.5 57.3,-118.2 87.2,-174.9 54.3,-103.2 110.5,-209.8 140.8,-323.8 29.9,-112.3 37.6,-240.8 24.4,-404.5 -20.4,-251.4 -79.7,-500.8 -137.1,-742 -15.7,-66 -33.5,-140.8 -57.6,-211.5 -26.3,-77.2 -57.2,-140.7 -94.4,-194 -19.1,-27.3 -40.9,-53.4 -62,-78.6 -23.8,-28.4 -48.3,-57.8 -69.3,-89.2 -59.4,-89.1 -93.5,-197.5 -104.3,-331.4 -9.5,-118.4 0.3,-242.2 11.1,-358.9 l 10,0.9 c -10.8,116.2 -20.5,239.5 -11.1,357.2 10.6,132.2 44.1,239 102.6,326.7 20.7,31 45.1,60.1 68.7,88.3 21.3,25.4 43.2,51.7 62.6,79.3 37.8,54.1 69.1,118.4 95.7,196.5 24.2,71.2 42.1,146.2 57.8,212.5 57.5,241.6 116.9,491.4 137.3,743.5 13.4,164.9 5.5,294.5 -24.7,407.9 -30.6,115.1 -87.1,222.2 -141.6,325.9 -29.8,56.6 -60.6,115.2 -86.9,174.3 -108.4,244.1 -146.8,512.4 -184,771.9 -23,160.8 -46.9,327.1 -19.5,490.3 z m -74.6,-4.2 c -22.8,-59.7 -30.5,-126.6 -23.6,-204.7 6.1,-69.3 23,-140.8 39.3,-210 13.8,-58.5 28.1,-119 35.8,-178 9.5,-72.7 9.4,-148 9.2,-220.9 -0.2,-113.6 -0.5,-231 36,-340.4 26.9,-80.6 73,-153.8 117.5,-224.6 14.3,-22.7 29.1,-46.2 43,-69.6 75.7,-127.2 131.8,-262.1 166.7,-401 36.4,-145.2 48.4,-290 35.6,-430.5 -14.7,-161.6 -62.2,-319.5 -108,-472.2 l -21.3,-71 c -32.2,-107.2 -64.4,-214.3 -96.5,-321.5 -17.3,-57.6 -36.9,-123 -82.2,-168.5 -14.5,-14.6 -31.7,-27.1 -48.3,-39.1 -17.3,-12.6 -35.2,-25.6 -50.6,-41.2 -36,-36.8 -55.9,-86.5 -70.7,-130.3 -34.9,-103.6 -54.7,-212.3 -58.8,-323.1 -4.1,-110.8 7.6,-220.6 34.7,-326.6 l 9.7,2.5 c -26.9,105 -38.5,213.9 -34.4,323.7 4.1,109.8 23.7,217.6 58.3,320.3 14.4,42.7 33.8,91.2 68.4,126.5 14.7,15.1 32.3,27.8 49.3,40.1 16.9,12.3 34.5,25 49.6,40.2 47.1,47.3 67.1,113.9 84.7,172.7 32.2,107.2 64.4,214.3 96.5,321.5 l 21.3,71 c 46,153.2 93.6,311.6 108.4,474.2 12.9,141.6 0.9,287.6 -35.9,433.8 -35.1,139.8 -91.6,275.7 -167.8,403.7 -14,23.4 -28.8,47 -43.1,69.8 -44.2,70.3 -90,143 -116.5,222.4 -36,107.8 -35.8,224.4 -35.5,337.2 0.2,73.2 0.3,148.9 -9.3,222.2 -7.8,59.4 -22.1,120.2 -36,178.9 -16.2,68.8 -33,140 -39.1,208.5 -6.8,76.5 0.7,142 23,200.2 z m -2030.8,-3.4 c -41.1,-181.1 -52.5,-366.7 -34,-551.5 1.9,-18.7 4.1,-37.6 6.2,-56 4.6,-39.3 9.3,-79.9 10.9,-119.9 2.4,-60.4 -2.1,-121.8 -6.5,-181.1 l -17.1,-232 c -5,-68.2 -10.2,-138.8 -27.5,-206.1 -10.6,-41.4 -25.9,-82.3 -40.8,-121.9 -16.4,-43.7 -33.4,-88.8 -44.1,-135.2 -21.1,-91 -18.3,-186 -15.6,-277.8 1.6,-53.2 3.2,-108.3 0.2,-161.9 -3.2,-55.9 -6.4,-113.7 -35.8,-163.1 -32.7,-55 -69.2,-108.1 -108.5,-158.1 -1.7,-2.1 -3.4,-4.3 -5.1,-6.4 -19.7,-24.8 -40,-50.5 -50.7,-81 -10.7,-30.5 -10.7,-63.2 -10.8,-94.8 0,-12 0,-24.4 -0.6,-36.5 -1.9,-37.2 -11.6,-73.9 -20.9,-109.3 -6.3,-23.7 -12.7,-48.2 -16.9,-72.8 -5,-29.6 -16.4,-55.1 -27.4,-79.6 -11.6,-25.8 -23.5,-52.5 -28.4,-84.4 -7.5,-49.3 1.9,-108.2 25.3,-157.6 10.8,-22.8 16.9,-48.5 22.8,-73.3 9.1,-38.2 18.5,-77.6 45.1,-107.7 16.8,-19 38.2,-32.9 58.9,-46.4 16.3,-10.6 33.1,-21.6 47.3,-34.8 21.6,-20.2 37.5,-45.8 46,-74.2 4.7,-15.8 7.1,-32.6 9.4,-48.8 2.3,-15.9 4.6,-32.4 9.1,-48.3 6.1,-21.3 16.9,-36.5 28.3,-52.6 4,-5.6 8.1,-11.4 12,-17.5 6.3,-9.8 15.1,-22 27.4,-30 9,-5.9 20.1,-9.8 33.9,-11.9 24.9,-3.9 50.9,-1.3 77.1,7.6 23.9,8.2 47.4,21.6 67.7,38.9 33.6,28.5 62.2,68 89.9,124.5 48.8,99.5 68.6,193.8 58.8,280.1 -7.1,62.2 -29.8,121.7 -51.9,179.3 -21.9,57.3 -44.6,116.6 -51.4,178 l -0.5,-0.1 c -6.6,68.3 -41.6,129.7 -75.6,189.1 -11.5,20.2 -23.5,41.1 -34,61.8 -51.1,100.4 -79.9,217.9 -88.1,359.1 -7.2,122.6 1.7,249.9 12.2,380.3 2.3,28.3 3.3,58.1 4.4,86.9 3,85.8 6.2,174.5 40.6,248.9 45.3,97.7 69.4,207.3 75.9,344.8 2.1,44.4 2.7,89.5 3.3,133.2 1.3,91.8 2.6,186.6 17.7,278.4 16.3,98.9 49,195.5 80.5,288.9 9.8,29 19.9,58.9 29.4,88.5 15.5,48.4 25.6,98.1 35.3,146.2 14.7,72.8 28.7,141.6 60,207.5 l -9,4.3 c -31.8,-67 -46.5,-139.6 -60.7,-209.8 -9.7,-47.8 -19.7,-97.2 -35,-145.1 -9.5,-29.5 -19.6,-59.4 -29.3,-88.4 -31.7,-93.8 -64.4,-190.8 -80.9,-290.5 -15.3,-92.5 -16.6,-187.8 -17.9,-279.9 -0.6,-43.6 -1.2,-88.7 -3.3,-132.9 -6.5,-136.2 -30.3,-244.5 -75,-341 -35.3,-76.3 -38.5,-166 -41.6,-252.8 -1,-28.7 -2.1,-58.4 -4.3,-86.5 -10.6,-130.8 -19.4,-258.4 -12.2,-381.7 8.3,-142.7 37.5,-261.4 89.2,-363.1 10.7,-21 22.6,-42 34.2,-62.3 35.1,-61.5 71.4,-125.2 75.1,-195.3 l 1,0.1 c 8.1,-59 29.8,-115.6 50.8,-170.4 21.8,-57 44.4,-115.9 51.3,-176.8 9.6,-84.4 -9.9,-176.8 -57.9,-274.6 -27.1,-55.2 -54.9,-93.7 -87.4,-121.3 -19.4,-16.5 -41.7,-29.3 -64.5,-37 -24.7,-8.4 -49,-10.8 -72.3,-7.2 -12.4,1.9 -22.2,5.4 -30,10.4 -10.8,7 -18.7,18.2 -24.5,27.1 -4.1,6.3 -8.2,12.2 -12.2,17.8 -10.9,15.4 -21.2,29.9 -26.9,49.6 -4.4,15.2 -6.6,31.4 -8.9,47 -2.4,16.6 -4.8,33.7 -9.7,50.3 -8.9,30.1 -25.8,57.2 -48.7,78.6 -14.8,13.8 -32,25 -48.7,35.9 -20.1,13.1 -40.9,26.7 -56.8,44.6 -24.9,28.1 -33.6,64.7 -42.9,103.4 -6,25.3 -12.3,51.5 -23.5,75.2 -22.6,47.6 -31.7,104.4 -24.5,151.8 4.7,30.5 15.8,55.4 27.6,81.8 11.3,25.2 22.9,51.2 28.1,82.1 4.1,24.1 10.5,48.4 16.7,71.9 9.5,35.9 19.3,73.1 21.2,111.3 0.6,12.3 0.6,24.8 0.7,37 0,30.8 0.1,62.6 10.2,91.5 10.1,28.9 29.9,53.9 49.1,78.1 1.7,2.2 3.4,4.3 5.1,6.5 39.6,50.3 76.4,103.8 109.3,159.2 30.6,51.5 34.1,113.2 37.2,167.7 3.1,54.1 1.4,109.3 -0.2,162.8 -2.7,91.2 -5.5,185.5 15.3,275.2 10.6,45.7 27.4,90.5 43.7,133.9 14.9,39.8 30.4,81 41.1,122.9 17.4,68.2 22.7,139.2 27.7,207.9 l 17.1,232 c 4.4,59.6 9,121.3 6.5,182.2 -1.6,40.4 -6.4,81.2 -11,120.7 -2.1,18.3 -4.3,37.2 -6.2,55.8 -18.4,183.7 -7,368.2 33.8,548.3 z m 1880.5,-5.9 -4.6,-8.9 c 55.7,-28.7 71,-133.2 80.2,-195.6 1,-6.5 1.9,-12.7 2.7,-18.3 18.8,-120.6 26.5,-218.6 24,-308.5 -0.7,-24.5 -2.1,-49.4 -3.6,-73.5 -2.4,-40.1 -4.8,-81.6 -3.7,-122.5 2.6,-96.7 24.7,-191.9 46.1,-283.9 13.5,-58.2 27.5,-118.4 36.4,-178.3 22.4,-151.6 16.1,-316.8 -17.5,-453.2 -25.1,-101.9 -72.7,-198.5 -134.1,-272.2 -68,-81.6 -99,-191.1 -113.1,-268.5 -19.7,-108.7 -25.8,-226.5 -17.6,-340.9 6.8,-95.1 -1.9,-191.5 -10.3,-284.7 -7.1,-78.2 -14.4,-159 -12.6,-238.9 1.6,-68.8 19.6,-129.7 38.7,-194.1 5.3,-17.9 10.8,-36.3 15.8,-54.8 16.1,-59 27,-123.1 37.6,-185 2.1,-12.4 4.3,-25.2 6.5,-37.6 30.2,-173 32.4,-345.4 6.5,-512.6 l 9.9,-1.5 c 26.1,168.3 23.9,341.9 -6.5,515.9 -2.2,12.4 -4.3,25.2 -6.5,37.6 -10.6,62.2 -21.6,126.5 -37.8,185.9 -5.1,18.6 -10.6,37.1 -15.9,55.1 -18.9,63.8 -36.8,124 -38.3,191.5 -1.8,79.4 5.5,159.9 12.5,237.8 8.5,93.6 17.2,190.4 10.4,286.3 -8.1,113.5 -2.1,230.5 17.5,338.4 13.8,76.3 44.3,184 110.9,263.9 62.3,74.8 110.7,172.9 136.1,276.2 33.9,137.6 40.3,304.2 17.7,457 -8.9,60.3 -23,120.7 -36.6,179.1 -21.3,91.5 -43.3,186.1 -45.9,281.9 -1.1,40.5 1.3,81.8 3.7,121.7 1.4,24.2 2.9,49.2 3.6,73.8 2.5,90.5 -5.2,189.1 -24.1,310.3 -0.9,5.6 -1.8,11.7 -2.7,18.2 -4.6,31.7 -11,75.2 -23.4,113.6 -14.9,46.2 -35.2,75.5 -62,89.3 z m -1429.6,-4.2 -2.6,-9.7 c 37.2,-10 56.8,-38.1 66.8,-59.8 10,-21.9 15,-47.8 14.5,-74.7 -0.5,-27 -6.5,-53.1 -17.4,-75.7 -25.7,-53.3 -69.5,-95.8 -111.9,-136.9 -19,-18.4 -38.7,-37.5 -56.6,-57.3 -77.2,-85.7 -131.4,-195.8 -165.5,-336.6 -30.1,-124 -41.2,-257.6 -50.1,-383.8 L 771.9,2772 c -10.3,-146.3 -20.9,-297.5 -12.1,-446.6 7.8,-132.6 31.1,-265.4 53.7,-393.8 36.7,-209.2 74.7,-425.6 150,-628.6 10.7,-28.9 22.4,-58.1 33.7,-86.3 30,-74.8 60.9,-152.2 76.9,-232.2 17.8,-88.9 17.2,-181.3 16.6,-270.5 l -3,-459.3 10,-0.1 3,459.3 c 0.6,89.8 1.2,182.6 -16.8,272.6 -16.2,80.9 -47.3,158.7 -77.4,233.9 -11.3,28.1 -22.9,57.2 -33.6,86 -75,202.1 -112.9,418 -149.5,626.8 -22.5,128.1 -45.7,260.6 -53.5,392.7 -8.8,148.4 1.8,299.3 12.1,445.3 l 28.6,407.3 c 8.8,125.8 20,258.9 49.9,382.2 33.7,139.1 87.1,247.7 163.2,332.2 17.7,19.6 37.2,38.6 56.1,56.9 43,41.7 87.5,84.8 114,139.7 23.6,48.9 24.7,111.3 3,158.9 -15.8,34.1 -41.1,56.7 -73.5,65.4 z m 384.4,-6.1 -8.9,-4.6 c 33.5,-65.2 67.8,-142.1 101,-216.5 25.7,-57.7 50,-112.2 74.1,-162 48.3,-99.9 66.7,-212.2 84.4,-320.8 13.6,-83.1 27.6,-169 55,-249.7 17.1,-50.6 37.4,-99.2 57,-146.1 48.6,-116.3 94.4,-226.2 93.7,-360.7 -0.6,-112 -36.2,-218.6 -70.9,-308.1 -22.2,-57.3 -58.1,-98.1 -96.2,-141.3 -19.6,-22.3 -39.9,-45.4 -58.8,-71.3 -41.8,-57.6 -68.9,-127.2 -82.8,-212.8 -12.4,-76.1 -13.6,-157.9 -14.7,-237 -1.8,-125.4 -3.6,-255 -49.5,-369.1 -18.5,-46 -44.3,-89.6 -69.3,-131.8 -24,-40.5 -48.8,-82.4 -67.3,-126.6 -35,-83.6 -47.4,-173.4 -58.9,-273.7 -29,-251.9 -51.8,-519 13.9,-771.4 l 9.7,2.5 c -65.3,250.8 -42.5,516.8 -13.6,767.8 11.5,99.5 23.7,188.6 58.2,271 18.2,43.6 42.9,85.1 66.7,125.3 25.2,42.5 51.2,86.5 70,133.2 46.6,115.8 48.4,246.4 50.2,372.7 1.1,78.8 2.3,160.2 14.6,235.6 13.7,84 40.2,152.2 81.1,208.5 18.6,25.6 38.7,48.5 58.2,70.6 38.7,43.9 75.2,85.4 98,144.3 35,90.3 70.9,198 71.5,311.6 0.8,136.5 -45.5,247.3 -94.4,364.6 -19.5,46.8 -39.7,95.2 -56.8,145.5 -27.1,79.9 -41,165.4 -54.6,248.1 -17.9,109.3 -36.3,222.3 -85.3,323.5 -24,49.7 -48.3,104.1 -74,161.7 -33.3,74.5 -67.7,151.5 -101.3,217 z m -433.1,-1.2 -9.7,-2.3 c 10.1,-43.2 9.9,-90.7 -0.9,-141.2 -9,-42.7 -25.8,-88.6 -49.7,-136.5 -18.4,-36.8 -39.6,-73 -60.2,-108 -27.9,-47.6 -56.8,-96.7 -79.1,-148.4 -50.4,-117.1 -66.8,-244.8 -82.6,-368.4 l -97.6,-762.1 c -13.8,-107.8 -28.1,-219.2 -19.6,-329.9 8.2,-107 37.5,-211.6 65.8,-312.7 l 38.3,-136.6 c 52.6,-187.8 105.2,-375.6 157.8,-563.4 24.1,-86.2 49.1,-175.2 62.7,-265.1 24.3,-161 12.5,-326.8 1.2,-487.2 -7.1,-99.9 -14.4,-203.1 -13,-304.6 l 10,0.1 c -1.4,101.1 6,204.1 13,303.8 11.4,160.9 23.2,327.3 -1.3,489.4 -13.7,90.5 -38.7,179.9 -62.9,266.3 -52.6,187.8 -105.2,375.6 -157.8,563.4 l -38.3,136.6 c -28.2,100.7 -57.4,204.8 -65.5,310.8 -8.4,109.6 5.8,220.5 19.6,327.8 l 97.6,762.1 c 15.7,122.9 32,249.9 81.9,365.7 22,51 50.7,100 78.5,147.3 20.6,35.1 42,71.5 60.5,108.5 24.3,48.6 41.3,95.3 50.5,138.9 11,52.2 11.3,101.1 0.8,145.7 z m 333.2,-6.5 -9.5,-3 c 31.1,-97.1 59.7,-196.5 85,-295.5 5.4,-21.2 8.3,-48.7 -8.9,-59.1 -11.1,-6.7 -25.8,-3.2 -40.1,0.3 -2.4,0.6 -4.8,1.2 -7.2,1.7 -23.9,5.3 -49.7,4.2 -74.6,-3.4 -53.2,-16.2 -85.5,-59.9 -116.7,-102.2 -3.4,-4.6 -6.9,-9.3 -10.3,-13.9 -43.4,-57.9 -80.9,-117.5 -111.4,-177.3 -32.5,-63.7 -57.6,-128.7 -74.5,-193.1 -18.2,-69.3 -27,-138.3 -26.3,-205.2 0.5,-48.2 5.9,-96.8 11.1,-143.8 5.2,-47 10.6,-95.6 11.1,-143.5 0.8,-80.3 -12.2,-161.3 -24.8,-239.7 -10.2,-63.3 -20.7,-128.7 -24,-193.8 -3.7,-73.7 -0.7,-149.1 2.2,-222 1.8,-44.3 3.6,-90 3.9,-134.8 0.2,-35.6 -2,-71 -4.2,-105.3 -4.6,-72 -9.4,-146.5 9.4,-222.5 10.3,-41.9 25.4,-83.4 40,-123.5 25,-68.8 50.9,-140 52.4,-213.6 0.4,-22.2 -1.3,-45 -3,-67.1 -3.3,-42.4 -6.7,-86.3 5.3,-128 13.5,-46.9 44.8,-85.6 75,-123 28.4,-35.1 57.8,-71.4 71.7,-114 14.3,-43.8 11.5,-92.8 9,-136.1 l -20.5,-354.7 c -4.1,-70.3 3.6,-129.1 11.6,-191.5 3.4,-26.5 7,-53.9 9.7,-83 l 10,0.9 c -2.7,29.2 -6.3,56.7 -9.7,83.3 -8,61.9 -15.6,120.3 -11.6,189.6 l 20.5,354.7 c 2.6,44.1 5.4,94.2 -9.4,139.8 -14.5,44.3 -44.4,81.4 -73.4,117.2 -29.6,36.6 -60.3,74.5 -73.2,119.5 -11.5,40 -8.2,83 -4.9,124.5 1.7,22.3 3.5,45.4 3.1,68.1 -1.5,75.3 -27.7,147.2 -53,216.8 -14.5,39.9 -29.5,81.1 -39.6,122.4 -18.4,74.6 -13.9,145 -9.1,219.5 2.2,34.5 4.5,70.1 4.3,106 -0.3,44.9 -2.1,90.8 -3.9,135.1 -2.9,72.7 -5.9,147.8 -2.2,221.1 3.3,64.5 13.7,129.7 23.9,192.7 12.7,78.8 25.8,160.2 25,241.4 -0.5,48.4 -5.9,97.3 -11.2,144.5 -5.2,46.8 -10.6,95.1 -11.1,142.8 -0.7,66 8,134.2 26,202.6 16.7,63.7 41.5,128 73.7,191.1 30.2,59.3 67.4,118.4 110.5,175.9 3.5,4.6 7,9.4 10.3,13.9 30.2,41 61.5,83.3 111.5,98.5 23.3,7.1 47.3,8.2 69.5,3.2 2.3,-0.5 4.6,-1.1 7,-1.7 15.4,-3.7 32.9,-8 47.6,0.9 18,10.9 22.6,34.5 13.4,70.1 -25.7,99.3 -54.3,198.9 -85.4,296.2 z m 68.7,-1.5 c 0,-99 47.8,-195.8 94,-289.5 28.2,-57.1 57.3,-116.2 74.4,-173.9 20.7,-69.9 20.7,-144.7 20.7,-217.1 0,-53.2 0,-108.3 8.2,-161.6 16.1,-106 63.9,-205.1 110.1,-301 52.1,-108.1 106,-219.9 112.9,-339.9 3.6,-62.1 -6.3,-126.6 -28.7,-186.5 -22.4,-59.9 -57.1,-115.1 -100.5,-159.7 -14.1,-14.4 -29.4,-28.3 -44.3,-41.7 -29.3,-26.4 -59.6,-53.7 -81.9,-87.2 -26.9,-40.4 -41,-88.5 -52.1,-130.4 -13.4,-50.8 -10.7,-103.4 -8,-154.2 2,-38 4,-77.2 -0.5,-115.9 -11.2,-94.3 -38.6,-189 -62.8,-272.4 l -0.8,-2.8 c -48.2,-166.4 -98,-338.5 -152.6,-506 -23.6,-72.4 -41.3,-150.7 -52.5,-232.7 -10.3,-75.2 -15.6,-156 -15.7,-240.1 -0.1,-141.6 14.3,-297.6 43.9,-476.8 l 9.9,1.6 c -29.6,178.7 -43.9,334.1 -43.8,475.1 0.1,83.7 5.3,164 15.6,238.7 11.2,81.4 28.7,159.1 52.2,231 54.7,167.7 104.5,339.8 152.7,506.3 l 0.8,2.8 c 24.3,83.9 51.8,178.9 63.1,274 4.7,39.5 2.6,79.2 0.6,117.6 -2.7,52.4 -5.3,101.9 7.7,151.1 10.9,41.1 24.7,88.2 50.7,127.4 21.6,32.5 51.4,59.4 80.2,85.3 15,13.5 30.5,27.4 44.7,42.1 44.4,45.5 79.9,102 102.7,163.2 22.8,61.2 33,127.1 29.3,190.6 -7.1,122 -61.4,234.7 -113.9,343.7 -45.9,95.2 -93.4,193.7 -109.3,298.2 -8,52.6 -8,107.2 -8,160.1 0,73.1 -0.1,148.6 -21.1,219.9 -17.3,58.6 -46.7,118 -75,175.5 -45.7,92.6 -93,188.5 -93,285.1 z m 1969.8,-4.4 c -16.5,-23.3 -28.1,-50 -34.4,-79.4 -6.1,-28.2 -7.1,-57.3 -2.9,-86.6 4.2,-29.3 13.2,-57.1 26.8,-82.4 14.2,-26.4 32.8,-48.9 55.1,-66.7 36.5,-29.2 80.6,-46.4 123.2,-63 30.6,-11.9 62.3,-24.3 90.8,-40.9 32.8,-19.2 61.5,-45.2 85.3,-77.3 22.9,-30.9 40.2,-65.9 51.3,-104 11.1,-38.1 15.4,-76.8 12.7,-115.3 -2.8,-39.9 -13,-77.2 -30.3,-111.1 -18.5,-36.2 -44.4,-68.8 -69.4,-100.4 -18.9,-23.8 -38.4,-48.4 -54.8,-74.6 -102.6,-163.2 -79.5,-370.3 -41.9,-515.4 19.2,-74.1 44.8,-147.6 69.5,-218.7 32.2,-92.4 65.5,-188 84.7,-285.4 23.5,-118.7 28.3,-249 14.8,-398.4 -12.1,-133.5 -37.4,-270 -62,-401.9 -27.1,-145.6 -55,-296.2 -65.7,-444.8 -19.9,-277.5 19.5,-556.8 57.7,-826.9 l 9.9,1.4 c -38.1,269.6 -77.5,548.4 -57.7,824.8 10.6,148.1 38.6,298.4 65.6,443.7 24.6,132.2 50,268.9 62.1,402.9 13.6,150.4 8.7,281.6 -14.9,401.3 -19.4,98.1 -52.8,194 -85.1,286.8 -24.7,70.9 -50.2,144.2 -69.3,218 -37,143.1 -60,347.4 40.7,507.6 16.2,25.7 35.5,50.1 54.2,73.7 25.3,31.9 51.5,65 70.5,102 18,35 28.5,73.7 31.4,114.9 2.8,39.6 -1.6,79.6 -13,118.8 -11.4,39.2 -29.2,75.2 -52.8,107.1 -24.6,33.2 -54.3,60.1 -88.3,80 -29.1,17.1 -61.2,29.6 -92.2,41.6 -42,16.3 -85.3,33.3 -120.6,61.5 -41.6,33.3 -70.1,85.3 -78.2,142.8 -8.1,57.5 4.8,115.4 35.6,158.9 z m -601.5,-0.1 c -61.8,-408 6.4,-835.6 191.9,-1204.2 23.4,-46.5 49.1,-93 73.9,-138 64,-115.8 130.1,-235.5 162.6,-365 25.3,-100.9 30.1,-206.6 34.7,-308.9 4.3,-95 8.7,-193.2 -5.5,-288.8 -8.3,-55.6 -23,-110.9 -37.2,-164.5 -11.3,-42.6 -23,-86.6 -31.5,-130.6 -7.4,-38.4 -12.5,-77.8 -17.4,-116 -7.8,-60 -15.8,-122.1 -32.9,-181 -30.2,-104.3 -88.2,-198.2 -144.2,-289 l -162,-262.7 c -48,-77.8 -97.6,-158.3 -123.4,-248.2 -20.7,-72.3 -26.7,-153 -18.3,-246.8 7.2,-80.3 23.5,-159.6 42.6,-247.6 l 9.8,2.1 c -19,87.6 -35.2,166.7 -42.4,246.4 -8.3,92.5 -2.4,172.1 18,243.2 25.4,88.7 74.7,168.5 122.3,245.7 l 162,262.7 c 56.4,91.4 114.7,185.9 145.3,291.5 17.3,59.6 25.4,122.1 33.2,182.5 4.9,38 10,77.3 17.3,115.4 8.4,43.7 20,87.5 31.3,129.9 14.3,53.8 29.1,109.5 37.4,165.6 14.3,96.5 9.9,195.2 5.6,290.7 -4.6,102.8 -9.4,209 -35,310.9 -32.9,130.8 -99.3,251.1 -163.6,367.4 -24.8,44.9 -50.5,91.3 -73.8,137.6 -184.6,366.7 -252.4,792.2 -191,1198.2 z m -2421,-8.7 -9.8,-1.9 c 17.4,-88.5 16.2,-180.8 15.1,-270 -1.1,-83.4 -2.2,-169.7 11.8,-253.3 7.5,-44.7 19.4,-89.1 30.9,-132 12.2,-45.6 24.9,-92.7 32.1,-139.9 12.8,-83 9.2,-170.1 -10.3,-251.8 -12,-50.4 -30.3,-100 -48,-148 -17.9,-48.5 -36.3,-98.6 -48.5,-149.8 -22.9,-96.1 -23.9,-196.7 -24.9,-293.9 -0.9,-93.7 -1.9,-190.5 -22.5,-282.8 -14.3,-64.1 -38.2,-126.7 -61.4,-187.2 -10.2,-26.8 -20.8,-54.5 -30.5,-82 -37.5,-107.1 -62.4,-216.7 -81.9,-309.7 -9.3,-44.4 -9,-89 -8.7,-132.1 0.3,-44.3 0.6,-90.1 -9.7,-134.7 -17.5,-75.7 -23.9,-136.1 -20.3,-190 3.4,-49.4 15.3,-96.3 38.6,-151.9 15.8,-37.6 24.1,-70.1 31.4,-98.7 12.9,-50.4 23.1,-90.3 65.1,-130.2 55.1,-52.3 60.6,-86.4 67.6,-129.5 3.2,-19.9 6.9,-42.6 16.3,-68.9 6.9,-19.4 9.9,-40.5 12.9,-60.9 3.1,-21.8 6.4,-44.4 14.3,-65.5 16.8,-44.7 54.2,-78.5 105.4,-95.3 65.6,-21.5 144.5,-11.7 201,25 46,29.9 83.9,72.5 115.9,130.4 24.8,44.9 45.4,97.8 64.9,166.4 7.2,25.4 25.9,56.2 46.3,63.2 7.9,2.7 15.1,1.5 22.1,-3.6 8.7,-6.4 12.7,-18 15.7,-29.5 C 983.5,767.3 959.4,651 936,538.5 911.7,421.4 886.6,300.4 920.7,185.7 l 9.6,2.8 c -14.9,50.3 -19.5,106.4 -14,171.4 5,58.3 17.4,118.4 29.5,176.5 23.6,113.6 47.9,231.1 18.5,343.2 -3.5,13.3 -8.3,26.8 -19.5,35 -9.6,7 -20.4,8.8 -31.3,5 -23.9,-8.2 -44.6,-41.4 -52.7,-69.9 -19.3,-67.8 -39.6,-120 -64,-164.3 C 765.7,629 728.9,587.5 684.2,558.6 630.1,523.5 554.5,514.1 491.7,534.7 c -48.2,15.8 -83.4,47.6 -99.1,89.3 -7.6,20.1 -10.7,42.1 -13.8,63.4 -3,20.9 -6.1,42.5 -13.4,62.9 -9.1,25.5 -12.5,46.7 -15.8,67.2 -7,43.2 -13,80.5 -70.6,135.2 -39.9,37.9 -49.8,76.5 -62.3,125.4 -7.4,29 -15.8,61.8 -31.9,100.1 -22.9,54.6 -34.6,100.4 -37.9,148.7 -3.6,52.9 2.8,112.3 20,187 10.6,45.8 10.3,92.2 10,137 -0.3,42.6 -0.6,86.6 8.5,130 19.4,92.7 44.2,201.9 81.5,308.5 9.6,27.4 20.2,55 30.4,81.7 23.3,60.9 47.3,123.8 61.8,188.6 20.8,93.3 21.8,190.7 22.7,284.9 1,96.7 2,196.7 24.6,291.7 12,50.6 30.4,100.4 48.2,148.6 17.8,48.3 36.2,98.2 48.4,149.2 19.8,82.9 23.5,171.4 10.5,255.7 -7.4,47.8 -20.1,95.2 -32.3,141 -11.5,42.7 -23.3,86.9 -30.7,131.1 -13.9,82.7 -12.7,168.5 -11.6,251.5 1.3,89.6 2.5,182.4 -15.1,271.9 z m 2213.8,-3.6 -9.8,-2 c 43.1,-206.8 87.6,-420.6 87.5,-635.6 0,-26 -0.7,-52.5 -1.3,-78.1 -1.7,-69.4 -3.6,-141.1 7.4,-210.9 9.4,-59.6 28.1,-118 46.2,-174.4 19.2,-59.8 39.1,-121.7 47.6,-184.7 6.9,-50.8 6.9,-102 0,-156.5 -6.1,-48.6 -17.5,-98.7 -35,-153.1 -32.5,-101.3 -81.1,-202.2 -128.2,-299.8 -25.1,-52.1 -51.1,-106 -74.2,-158.9 -35,-80.4 -68.1,-159.2 -89.3,-237.8 -19.5,-72.3 -11.9,-148.4 -4.7,-221.9 1.5,-15.5 3.1,-31.4 4.4,-47 9.4,-113.7 6.7,-236.3 -8.2,-374.6 -0.8,-7.1 -1.6,-14.3 -2.4,-21.4 -6.2,-55.8 -12.6,-113.6 -5.9,-170.3 6,-50.2 22.3,-98.8 38,-145.8 4.8,-14.3 9.7,-29.1 14.3,-43.7 36.4,-116.1 54.5,-246.3 53.9,-387 -0.5,-123.1 -15.3,-254.5 -44,-390.5 l 9.8,-2.1 c 28.8,136.7 43.6,268.8 44.2,392.6 0.6,141.8 -17.7,273 -54.3,390.1 -4.6,14.7 -9.6,29.5 -14.4,43.9 -15.6,46.5 -31.7,94.7 -37.5,143.8 -6.6,55.6 -0.3,112.7 5.9,168 0.8,7.2 1.6,14.3 2.4,21.5 15,139 17.7,262.2 8.3,376.5 -1.3,15.6 -2.9,31.6 -4.4,47.1 -7.2,72.7 -14.7,147.8 4.4,218.3 21,78.1 52.7,153.3 88.8,236.4 22.9,52.8 48.9,106.5 74,158.6 47.2,97.9 96.1,199.1 128.7,301.1 17.6,55 29.2,105.7 35.4,154.9 7,55.4 6.9,107.4 -0.1,159.1 -8.6,63.8 -28.6,126.1 -48,186.4 -18,56.1 -36.6,114.1 -45.9,172.9 -10.8,68.9 -9,140.2 -7.3,209.1 0.6,25.7 1.3,52.2 1.3,78.3 0.3,215.8 -44.4,430.2 -87.6,637.5 z m -1352,-30.6 -5,-8.7 c 88.3,-50.5 127.1,-102.7 115.1,-155 -5.3,-23.2 -18.9,-41.6 -41.5,-56 -19.7,-12.6 -43.6,-20.6 -68.4,-28.5 -48.7,-15.4 -83.7,-36 -124.8,-73.4 -81.7,-74.5 -142.7,-168.5 -176.3,-271.8 -27.5,-84.6 -36.8,-174.1 -45.7,-260.6 -7.3,-70.4 -3.6,-141.4 0,-210.1 4.2,-79.8 8.5,-162.4 -4.3,-244.7 -3.2,-20.7 -7.1,-41.6 -10.8,-61.9 -5.8,-31.4 -11.7,-63.9 -15.5,-96.3 -6.7,-56.9 -3.3,-114.7 -0.1,-170.5 3.5,-60.2 7.2,-122.5 -2.2,-182.6 l -0.2,-1.2 c -17.3,-110.6 -36.8,-236 -31.5,-349.2 2.9,-61.4 18.4,-121.8 33.4,-180.2 8.7,-33.8 17.6,-68.7 24,-103.3 10.8,-58.4 14.9,-119 18.9,-177.5 5.3,-77.5 10.7,-157.7 31.7,-234.4 18.8,-69 56.2,-125.2 92.3,-179.6 30.4,-45.8 61.9,-93.2 81.7,-147.6 35.1,-96.5 19.3,-202.7 3.9,-305.3 -3.4,-22.6 -6.9,-46 -9.7,-68.8 -10.5,-83.5 -13.1,-168.6 -7.8,-253.1 5.3,-84.5 18.6,-168.6 39.5,-250.1 l 9.7,2.5 c -20.7,80.9 -33.9,164.4 -39.2,248.2 -5.3,83.8 -2.7,168.3 7.7,251.2 2.8,22.7 6.3,46 9.7,68.5 15.5,103.9 31.5,211.3 -4.4,310.2 -20.2,55.5 -52,103.4 -82.8,149.7 -35.7,53.7 -72.6,109.3 -91,176.7 -20.7,75.7 -26.1,155.4 -31.4,232.5 -4,58.8 -8.2,119.7 -19,178.7 -6.5,35 -15.5,70 -24.2,104 -14.9,57.9 -30.2,117.8 -33.1,178.2 -5.3,112.2 14.2,237 31.4,347.2 l 0.2,1.2 c 9.5,61.1 5.8,123.9 2.3,184.7 -3.3,55.4 -6.6,112.8 0,168.8 3.8,32 9.7,64.4 15.4,95.6 3.7,20.3 7.6,41.4 10.8,62.2 13,83.4 8.6,166.4 4.4,246.7 -3.6,68.3 -7.3,139 -0.1,208.6 8.9,86 18.1,175 45.3,258.5 33.1,101.7 93.1,194.2 173.5,267.5 39.9,36.4 73.8,56.3 121.1,71.2 43.5,13.7 103.1,32.5 116.6,91.7 13.3,57.3 -27,113.1 -119.6,166.1 z m 1212.2,-9.9 -8.6,-5.1 c 49.2,-82.3 34.2,-183.7 19.6,-281.7 -3.1,-21.2 -6.4,-43.1 -8.9,-64.2 -21.7,-183.6 14.7,-369.3 50,-548.9 7.3,-37.3 14.9,-75.9 21.8,-113.7 27,-148.4 50.3,-322.8 17.4,-491.7 -21.6,-111 -73.8,-212.5 -124.4,-310.6 -59.9,-116.2 -121.8,-236.3 -133.7,-373.7 -4.3,-49.7 -3,-100.1 -1.7,-148.9 1.6,-61.1 4.2,-123.5 6.8,-183.8 5.1,-120.8 10.3,-245.8 8,-367.9 -2.9,-153.7 44.4,-288.6 94.4,-431.3 2.1,-6.1 4.3,-12.3 6.5,-18.4 36.8,-105.3 55.9,-210.4 56.7,-312.5 0.9,-107.4 -18.5,-212.4 -57.5,-312.1 l 9.3,-3.6 c 39.5,100.9 59.1,207.2 58.2,315.8 -0.8,103.2 -20.1,209.4 -57.3,315.8 -2.2,6.2 -4.3,12.3 -6.5,18.4 -49.7,141.9 -96.7,275.9 -93.8,427.8 2.3,122.4 -3,247.5 -8,368.5 -2.5,60.3 -5.1,122.6 -6.8,183.7 -1.3,48.5 -2.6,98.7 1.6,147.8 11.8,135.4 73.2,254.6 132.6,369.9 50.9,98.7 103.5,200.9 125.3,313.3 33.1,170.6 9.8,346.1 -17.4,495.4 -6.9,37.9 -14.5,76.5 -21.8,113.9 -35.1,178.8 -71.3,363.7 -49.8,545.8 2.5,21 5.7,42.8 8.9,64 14.8,99.4 30.1,202.6 -20.9,288 z m 845.3,-290.5 c 0,0 0,0 0,0 -31.8,0 -48.3,-33.3 -60.1,-65.8 -24.4,-66.8 -62.9,-115.1 -103.7,-166.1 -16.6,-20.8 -33.8,-42.4 -50.3,-65.6 -25.4,-35.7 -39.7,-81.4 -42.5,-135.8 -2.1,-41 2.1,-87.5 12.9,-142.2 17.6,-89.5 46.6,-171.7 77.3,-258.7 l 3.9,-10.9 c 16.3,-46.2 33.1,-93.9 63.1,-134.3 17.5,-23.5 38.9,-43.6 59.7,-63.2 L 3423.7,2795 c 19.8,-18.6 43.3,-38.3 70.9,-35.5 2.1,0.2 3.9,1.8 4.4,3.9 16.7,73.7 -2.9,149.8 -21.9,208 -5.6,17.1 -11.7,34.4 -17.6,51.2 -16.9,47.9 -34.3,97.4 -41.6,148.1 -9.1,63 -1,154.3 51.7,204 22,20.7 50.4,33.1 77.8,45 37.4,16.2 76.1,33 100.9,71.3 28.2,43.4 33.7,89.1 16.2,135.9 l -4.7,-1.8 4.7,1.8 c -27,72.3 -104,134.9 -160.2,180.7 -5.1,4.2 -10.1,8.2 -14.8,12.1 -33.4,27.4 -64,58.5 -90.9,92.4 -13,16.3 -30.7,38.6 -55.5,38.6 z m 146.3,-1181.4 c -21.8,0 -41.8,16.9 -58.9,33 l -120.3,113.1 c -20.4,19.2 -41.6,39.1 -58.5,61.9 -29.2,39.2 -45.7,86.2 -61.7,131.6 l -3.9,10.9 c -30.6,86.7 -59.4,168.5 -76.9,257.3 -10.6,53.8 -14.8,99.5 -12.7,139.7 2.7,52.5 16.4,96.4 40.6,130.5 16.3,23 33.4,44.4 50,65.1 41.3,51.7 80.3,100.6 105.3,168.9 10.7,29.3 25.1,59.2 50.7,59.2 0,0 0,0 0,0 19.9,0 35.3,-19.4 47.7,-34.9 27.4,-34.4 58.4,-66 92.4,-93.9 4.8,-3.9 9.8,-8 14.9,-12.2 55.3,-45 131,-106.7 157.1,-176.4 16.6,-44.2 11.6,-85.8 -15.2,-126.9 -23.2,-35.7 -58.8,-51.2 -96.5,-67.5 -28.2,-12.3 -57.4,-24.9 -80.7,-46.9 -55.5,-52.3 -64.2,-147.3 -54.7,-212.7 7.5,-51.7 25.1,-101.7 42.1,-150 5.9,-16.7 11.9,-33.9 17.5,-50.9 18.2,-56 37.1,-128.9 22.4,-199 -0.3,0.1 -0.5,0.1 -0.7,0.1 z M 1450.8,3874 c -1.3,0 -2.7,0 -4,-0.1 -31.2,-1.1 -65.8,-16 -100.1,-42.9 -37.4,-29.4 -63.2,-63.6 -75.2,-81.4 -30.8,-45.6 -65.8,-97.2 -95.2,-150.2 -32.4,-58.3 -54.5,-111.8 -67.5,-163.5 -27.2,-107.9 -18.4,-221.3 -9.9,-330.9 1.8,-23.2 3.7,-47.3 5.1,-70.8 10.3,-163.6 3.1,-328.7 -21.2,-490.8 -3.2,-21.3 -7.8,-43.3 -12.3,-64.6 -9.3,-43.8 -18.9,-89.2 -17.3,-134 6.9,-191.3 19.2,-353.4 57,-522.5 3.4,-15.3 6.6,-30.9 10,-47.5 11.5,-56.6 23.4,-115.2 46.2,-164.7 7.3,-15.8 18,-30.4 28.3,-44.5 19.9,-27.2 38.7,-52.8 36,-87.1 -0.5,-6.2 -1.7,-12.3 -3,-18.7 -1.7,-8.4 -3.4,-17 -3.4,-25.9 0,-36 26.2,-64.5 53,-90.5 16.9,-16.3 39.2,-34 62.7,-25.9 19.8,6.9 28.1,27.9 34.2,49.6 32.6,117.4 47.9,231.8 60.9,339 17.3,143.2 36,262.3 71,378.3 13.6,45 13.7,90.9 13.8,135.4 0.1,41.8 0.2,81.2 10.7,119.1 20.2,72.6 79.9,156.8 152.2,214.6 41.9,33.5 76.5,69.2 102.8,106 31.4,43.9 51,89.5 58.4,135.7 9.3,57.7 3.6,117.7 -16.7,178.4 -18.7,55.9 -49.7,110.4 -89.7,157.6 -7.6,9 -15.7,17.9 -23.4,26.5 -18.9,21 -38.5,42.7 -53.1,67 -35.7,59.6 -41.1,132.2 -46.3,202.3 -0.5,6.7 -1,13.3 -1.5,19.9 -6,77.6 -16.6,155.7 -31.3,232.1 -1.8,9.4 -3.4,20 -5,31.3 -5.9,40.2 -12.7,85.7 -35.2,114.4 -25.6,32.8 -56.2,49.3 -91,49.3 z M 1328.2,1325.5 c -15.6,0 -31.3,13 -43.8,25.1 -25.3,24.5 -50,51.2 -50,83.3 0,7.9 1.6,15.7 3.2,23.9 1.3,6.4 2.6,13.1 3.1,19.9 3,38 -17.8,66.4 -37.9,93.8 -10,13.7 -20.4,27.9 -27.3,42.8 -22.3,48.5 -34.1,106.4 -45.5,162.5 -3.4,16.6 -6.6,32.3 -10,47.7 -37.7,168.3 -50,329.9 -56.8,520.7 -1.6,43.6 7.9,88.3 17,131.5 4.5,21.4 9.2,43.6 12.4,65.2 24.4,162.8 31.6,328.6 21.3,492.9 -1.5,23.6 -3.3,47.7 -5.1,70.9 -8.4,108.9 -17.1,221.4 9.6,327.7 28.9,114.8 96.2,214.3 161.3,310.5 19.9,29.4 46.6,58.3 73.1,79.2 32.6,25.6 65.2,39.7 94.3,40.8 33,1.2 62.2,-14.1 86.9,-45.3 20.9,-26.5 27.4,-70.7 33.2,-109.6 1.7,-11.4 3.3,-22.1 5.1,-31.7 14.7,-76.1 25.2,-153.8 31.2,-231 0,0 0,0 0,0 0.5,-6.6 1,-13.2 1.5,-19.9 5.3,-71.3 10.7,-145.1 47.7,-206.8 15.1,-25.2 35,-47.3 54.3,-68.6 7.7,-8.5 15.7,-17.4 23.2,-26.3 39.2,-46.2 69.5,-99.6 87.8,-154.3 19.8,-59.2 25.3,-117.6 16.3,-173.7 -7.2,-44.6 -26.2,-88.9 -56.7,-131.5 -25.8,-36.1 -59.7,-71.1 -100.9,-104 -33.7,-27 -67,-61.9 -93.7,-98.5 -29.7,-40.6 -51.1,-82.5 -61.9,-121.3 -10.9,-39.2 -11,-81.1 -11.1,-121.7 -0.1,-43.7 -0.2,-89 -13.4,-132.5 -35.2,-116.7 -54,-236.3 -71.3,-380 -12.9,-106.7 -28.2,-220.7 -60.6,-337.5 -5.3,-19.1 -12.3,-37.5 -27.8,-42.8 -2.9,-0.9 -5.8,-1.4 -8.7,-1.4 z m 2033.9,2518.8 c -1.1,0 -2.1,0 -3.2,-0.1 -22.4,-1.9 -36.1,-23.3 -47.2,-40.5 -22,-34.3 -51.3,-60.2 -79.6,-85.3 -36.2,-32.1 -73.7,-65.3 -95.7,-115.9 -27.9,-64.1 -32.9,-137.8 -14.1,-207.5 5.4,-19.9 12.6,-39.4 19.7,-58.3 l 66.3,-177.8 c 2.9,-7.7 5.7,-15.2 8.6,-22.8 v 0 c 21,-54.8 47.8,-116.3 101.4,-152.3 15.6,-10.5 29.4,-12.8 40,-6.7 11.9,6.8 16.3,22.2 12.6,44.3 -4,24.4 -10.4,48.8 -16.5,72.5 -10.9,41.9 -22.2,85.1 -20.3,128.5 4.3,102.1 80.1,187.6 136.7,243 1.9,1.9 3.8,3.7 5.8,5.6 19.2,18.7 39.1,38.1 52.9,61.8 17.7,30.4 20.4,66.5 8.1,107.4 -21,70 -76.9,125.6 -126.2,174.7 l -4.6,4.6 c -13.1,12.9 -27.5,24.8 -44.7,24.8 z m -16.5,-860.6 c -7.9,0 -16.5,4.8 -21.7,8.3 -51.2,34.4 -77.3,94.2 -97.7,147.6 v 0 c -2.9,7.5 -5.7,15.1 -8.6,22.7 l -66.3,177.7 c -7,18.7 -14.2,38 -19.4,57.4 -18.2,67.5 -13.4,138.9 13.6,201 21.1,48.6 56.1,79.6 93.2,112.4 28.8,25.5 58.6,51.9 81.4,87.4 10.4,16.1 22.1,34.4 39.6,35.9 14.6,1.3 27.9,-9.8 40.1,-21.9 l 4.6,-4.6 c 50.8,-50.6 103.4,-102.9 123.7,-170.5 11.5,-38.2 9.1,-71.6 -7.2,-99.5 -13.1,-22.5 -32.5,-41.4 -51.3,-59.7 -1.9,-1.9 -3.9,-3.8 -5.8,-5.6 -57.8,-56.6 -135.3,-144.1 -139.7,-249.7 -1.9,-44.8 9.6,-88.9 20.6,-131.4 6.1,-23.4 12.4,-47.6 16.4,-71.6 2,-12.3 2.4,-28.2 -7.7,-34 -2.4,-1.3 -5,-1.9 -7.8,-1.9 z m 4.1,798.6 c -3.1,0 -6.1,-0.6 -9,-1.8 -12.3,-5 -25.4,-18.1 -38,-30.8 -8.6,-8.6 -16.7,-16.8 -23.9,-21.8 l -3.7,-2.6 c -27.1,-18.8 -50.5,-35.1 -72.1,-64.4 -44.8,-60.7 -66.9,-133.2 -62.3,-204.3 2.9,-44.8 17.7,-84.9 32,-123.8 7.3,-19.9 14.9,-40.5 20.9,-61.7 16.3,-57.6 38.2,-111.4 66.9,-164.6 2.5,-4.6 8.3,-15.3 18.8,-15.7 5.1,-0.2 9.6,1.7 12.9,5.7 16.6,19.5 4.7,89.5 -7.4,148.3 -0.8,3.8 -1.4,6.8 -1.8,8.7 -9.4,49.2 8.9,106.4 46.5,145.7 10.6,11.1 22.4,21.1 33.8,30.9 18,15.4 36.6,31.3 51.3,51.6 33.8,46.9 48,98.5 41.1,149.2 -6.7,48.9 -32.8,95.9 -75.5,135.7 -11,10.5 -21.3,15.7 -30.5,15.7 z m -69.6,-681.4 c -0.1,0 -0.2,0 -0.3,0 -4.3,0.2 -7.9,5.7 -10.4,10.5 -28.4,52.5 -50,105.7 -66.1,162.6 -6.1,21.5 -13.7,42.3 -21.1,62.4 -14.7,39.9 -28.6,77.7 -31.4,121 -4.5,68.7 17,138.9 60.3,197.7 20.6,27.9 42.3,43 69.7,62.1 l 3.7,2.6 c 8,5.6 16.4,14 25.3,22.9 11.9,12 24.2,24.3 34.7,28.6 7.5,3.1 17.3,-0.9 28.9,-11.8 41,-38.3 66,-83.1 72.4,-129.8 6.6,-48.1 -7,-97.2 -39.3,-142 -14,-19.4 -31.3,-34.2 -49.7,-49.9 -11.6,-9.9 -23.6,-20.2 -34.5,-31.6 -19.2,-20 -34,-44.7 -42.8,-71.5 -9.2,-27.8 -11.4,-56.5 -6.3,-82.9 0.4,-2.1 1,-5.1 1.8,-8.9 3.4,-16.5 9.8,-47.1 13.2,-76.3 5.3,-45.4 0.1,-59.3 -3.5,-63.5 -1.4,-1.5 -2.8,-2.2 -4.6,-2.2 z m -1894.3,666.2 c -1.9,0 -3.8,-0.1 -5.7,-0.3 -15.7,-1.7 -29.6,-10.6 -39.9,-18.1 -70,-51.1 -121.1,-135.8 -151.8,-251.8 -22,-83.1 -33.7,-183 -34.7,-297 -0.6,-60.5 0.4,-121.6 1.3,-180.6 2.1,-136.1 4.3,-276.9 -12.2,-416.6 -7.6,-63.9 -15,-131.9 -16.2,-199 -2.7,-152.8 26.6,-304.7 54.9,-451.7 4.4,-22.7 11,-45.6 17.3,-67.7 8.1,-28.2 16.5,-57.3 20.1,-85.6 1.7,-13.7 2.4,-28.3 3,-42.5 1.8,-38.8 3.6,-79 26.9,-112.5 5.1,-7.4 11.2,-14.2 17.1,-20.8 11.6,-13 22.6,-25.3 26.2,-41 3.5,-15.1 -0.6,-31.7 -4.6,-47.7 -5.1,-20.5 -10.3,-41.6 -0.6,-61.1 4,-8.1 10.1,-14.1 17.1,-16.8 14.2,-5.5 29,2.6 36.8,12.4 7.7,9.7 10.9,21.3 14.1,34.4 19,78.9 29.7,159.9 40.1,238.3 8.3,63 17,128.2 29.8,191.9 l 95.9,475 c 8.4,41.4 17,84.3 35,123.2 26.8,58.2 73.3,105.3 119.5,147.5 2.1,1.9 4.2,3.9 6.4,5.8 32,29.1 65.2,59.2 82.5,99.5 16.7,38.8 18.4,85.7 5.2,143.4 -17.1,74.9 -52.1,144.8 -86,212.4 -29.6,59.1 -60.2,120.2 -78.6,184.2 -5.6,19.5 -9.5,39.8 -13.3,59.3 -7.3,37.8 -14.8,77 -35.1,112.4 -9.5,16.6 -20.6,32.5 -31.3,48 -19.5,28.2 -39.6,57.3 -50.6,90.4 -3.6,10.9 -6.3,22.5 -8.9,33.7 -3.8,16.5 -7.7,33.5 -14.9,49.4 -11.3,25.3 -35.5,49.6 -64.8,49.6 z M 1136.7,2403.6 c 1.2,66.6 8.6,134.3 16.1,198 16.6,140.4 14.4,281.5 12.3,417.9 -0.9,59 -1.9,120 -1.3,180.4 1,113.2 12.6,212.3 34.4,294.5 30.1,113.7 79.9,196.5 148,246.3 9.9,7.2 21.8,14.8 35.1,16.2 26.7,2.9 50,-20.6 60.5,-43.7 6.8,-14.9 10.6,-31.5 14.2,-47.5 2.6,-11.4 5.3,-23.2 9.1,-34.6 11.5,-34.4 32,-64.1 51.9,-92.9 10.6,-15.3 21.5,-31.1 30.8,-47.3 19.5,-33.9 26.6,-70.5 34,-109.2 3.8,-19.8 7.7,-40.2 13.5,-60.2 18.7,-64.9 49.5,-126.4 79.3,-185.9 33.6,-67 68.3,-136.4 85.2,-210.1 12.7,-55.6 11.2,-100.4 -4.7,-137.2 -16.5,-38.2 -48.8,-67.6 -80,-96 -2.1,-1.9 -4.3,-3.9 -6.4,-5.8 -47,-42.9 -94.3,-90.8 -121.9,-150.7 -18.4,-40 -27.2,-83.4 -35.7,-125.5 l -95.9,-475 c -12.9,-64 -21.6,-129.3 -29.9,-192.5 -10.3,-78.1 -21,-158.9 -39.9,-237.3 -2.9,-11.9 -5.7,-22.4 -12.2,-30.5 -5.8,-7.3 -16.3,-12.8 -25.4,-9.3 -4.7,1.8 -8.9,6 -11.8,11.9 -8,16.2 -3.4,34.7 1.4,54.3 4.2,17.2 8.6,34.9 4.6,52.3 -4.2,18.2 -16.5,32 -28.5,45.4 -5.7,6.4 -11.6,13 -16.3,19.8 -21.7,31.1 -23.4,69.8 -25.1,107.2 -0.7,14.3 -1.3,29.1 -3.1,43.3 -3.7,29 -12.2,58.5 -20.4,87.1 -6.3,21.9 -12.8,44.5 -17.1,66.8 -28.3,146.6 -57.5,298.1 -54.8,449.8 z m 2169.9,1319.3 c -17.6,0 -35.7,-9.9 -55.1,-30 -40,-41.6 -70.9,-102.2 -84.6,-166.1 -14.6,-68.2 -8.7,-133.8 16.6,-184.7 3.6,-7.2 8.1,-15.4 14.6,-22.6 6.2,-6.7 32.6,-30.4 49.4,-22.9 14.1,6.3 16.1,30.1 17.4,45.8 0.2,2.6 0.4,4.8 0.6,6.5 4.1,34 21,58.7 38.8,84.8 9.2,13.4 18.6,27.3 26.5,42.7 35.6,69.8 47,132.7 33.8,186.9 -6.3,25.9 -23.1,55.1 -51.5,59 -2.1,0.4 -4.3,0.6 -6.5,0.6 z m -66.4,-417.8 c -9.4,0 -26.1,11.7 -34.7,21.1 -5.7,6.3 -9.8,13.8 -13.1,20.3 -24.3,48.9 -29.9,112.2 -15.8,178.2 13.3,62.2 43.2,121 82,161.3 19.4,20.2 36.8,28.9 53.1,26.6 23.4,-3.3 37.6,-28.7 43.1,-51.5 12.5,-51.8 1.4,-112.4 -33,-180 -7.6,-14.9 -16.9,-28.5 -25.8,-41.6 -17.7,-26 -36.1,-52.8 -40.5,-89.3 -0.2,-1.9 -0.4,-4.2 -0.7,-6.9 -1,-11.8 -2.8,-33.6 -11.5,-37.5 -0.8,-0.5 -1.9,-0.7 -3.1,-0.7 z m 35.5,375.8 c -1.2,0 -2.4,-0.1 -3.6,-0.2 -15.4,-2.1 -26.6,-17.5 -36,-31.7 -20.4,-31.1 -34.6,-67.3 -41.2,-104.9 -6.6,-37.6 -5.5,-76.5 3.2,-112.6 1,-4.1 2.2,-8.4 5,-12 7.6,-9.6 22,-8.8 32.4,-3.2 12.7,6.9 21,18.7 29,30 2.1,3 4.3,6.1 6.5,9 5.6,7.5 12.2,14.6 18.5,21.4 7.7,8.3 15.6,17 22.3,26.5 19.1,27.3 27.4,61.8 22.7,94.8 -3.2,23.1 -14,54.1 -34.4,71.9 -8.4,7.4 -16.4,11 -24.4,11 z M 3219.8,3422 c -3.6,0 -6.8,1.1 -8.8,3.5 -1.6,2 -2.4,5 -3.2,8.2 -8.3,34.8 -9.4,72.4 -3.1,108.6 6.3,36.2 20.1,71.2 39.7,101.1 8.7,13.3 18.3,25.8 29,27.3 6.1,0.8 12.7,-1.9 20.1,-8.3 18.4,-16 28.2,-45.4 31.1,-65.8 l 5,0.7 -5,-0.7 c 4.3,-30.5 -3.4,-62.5 -21,-87.7 -6.3,-9 -14,-17.4 -21.4,-25.5 -6.5,-7 -13.2,-14.3 -19.1,-22.2 -2.3,-3 -4.5,-6.2 -6.7,-9.3 -7.7,-10.9 -14.9,-21.2 -25.6,-27 -3.4,-1.8 -7.4,-2.9 -11,-2.9 z m 59.4,241.8 c -6.3,0 -11.2,-4.8 -13.6,-7.1 -20,-19.6 -33.4,-38.7 -41,-58.2 v 0 c -3.4,-8.7 -7.1,-29.8 -7.3,-52 -0.2,-18.9 2,-43.6 14.1,-54.4 5.4,-4.8 14.9,-8.8 29.9,-0.8 53.3,28.3 44.1,108.7 34,154.2 -3.2,14.5 -10.1,17.9 -15.3,18.2 -0.3,0.1 -0.5,0.1 -0.8,0.1 z m -33.8,-166.9 c -4.2,0 -6.4,1.9 -7.4,2.8 -16.8,14.9 -10.6,78.5 -4.1,95.2 7,18.2 19.7,36.1 38.6,54.7 2.2,2.2 4.7,4.4 6.8,4.2 2.5,-0.2 4.8,-4.1 6.2,-10.5 9.6,-42.7 18.5,-118 -28.9,-143.1 -4.7,-2.5 -8.4,-3.3 -11.2,-3.3 z m -1873.7,123.9 c -20.3,0 -41.9,-5.9 -59.6,-17 -33.8,-21 -59.5,-53.5 -76.3,-96.6 -14.4,-36.8 -21.7,-80.2 -21,-125.4 0.6,-40.3 6.1,-80.9 11.5,-120.1 5.7,-41.6 11.6,-84.7 11.5,-127.1 -0.2,-45.3 -7.2,-91 -14,-135.2 -2.3,-14.7 -4.6,-29.9 -6.7,-45 -10.1,-73.6 -14.3,-148.7 -18.4,-221.4 L 1183,2453.9 c -5.7,-100.9 -12.1,-215.3 24,-318.2 3.8,-10.8 8.1,-21.5 12.2,-31.9 6.4,-16 13,-32.5 17.8,-49.2 4.5,-15.8 6.6,-33.6 8.8,-52.5 3.9,-33.3 7.8,-67.7 26,-93.2 12.5,-17.6 31.6,-28.7 49.8,-29 14.8,-0.2 27.8,6.3 37.5,19 22.8,29.7 35.5,77.6 46.8,119.9 3.4,12.7 6.6,24.7 9.8,35.3 18.8,61.5 30.8,116.8 36.8,169.2 3.3,29.5 5,60 6.6,89.5 4.1,76.4 8.4,155.4 42.8,223.5 20.8,41.2 52.3,77.3 82.7,112.2 38,43.6 77.3,88.7 96.4,144.3 24.2,70.6 12.4,149 -3.9,223.1 -19.1,86.4 -43.5,172.6 -72.6,256.1 -15.4,44.3 -34.5,95.2 -65.7,138.7 -10,14 -21.5,27.5 -32.5,40.5 -26.3,31 -51.2,60.3 -60.6,97.6 -0.9,3.5 -1.7,7.2 -2.4,10.8 -1.9,9.2 -3.9,18.8 -8.4,27.6 -7.6,14.9 -20.9,25.4 -38.6,30.4 -8,2.2 -16.2,3.2 -24.6,3.2 z m -49.4,-1730.9 c -0.2,0 -0.4,0 -0.7,0 -15.1,0.3 -31.1,9.8 -41.8,24.9 -16.7,23.4 -20.5,56.5 -24.2,88.5 -2.2,19.3 -4.3,37.5 -9.1,54.1 -4.9,17.2 -11.6,34 -18.1,50.2 -4.1,10.3 -8.4,20.9 -12.1,31.5 -35.5,101 -29.1,214.3 -23.4,314.3 l 15.7,279.1 c 4.1,72.5 8.3,147.4 18.3,220.6 2,14.9 4.4,30.1 6.6,44.8 6.9,44.6 13.9,90.7 14.1,136.7 0.2,43.2 -5.8,86.6 -11.6,128.5 -5.3,38.9 -10.9,79.1 -11.4,118.8 -0.6,44 6.4,86 20.3,121.6 16.1,41.1 40.4,71.9 72.3,91.8 22.8,14.2 52.6,19.2 75.8,12.7 14.9,-4.2 26.1,-12.9 32.4,-25.3 3.9,-7.6 5.6,-16.1 7.5,-25.1 0.8,-3.7 1.6,-7.4 2.5,-11.2 10,-39.5 36.8,-71.1 62.7,-101.6 10.9,-12.9 22.2,-26.2 32,-39.9 30.4,-42.4 49.2,-92.6 64.4,-136.2 29,-83.1 53.3,-168.9 72.3,-254.9 16,-72.7 27.7,-149.4 4.2,-217.7 -18.5,-53.8 -57.1,-98.1 -94.5,-141 -30.8,-35.4 -62.7,-72 -84.1,-114.3 -35.3,-70 -39.7,-150 -43.8,-227.4 -1.6,-29.3 -3.2,-59.6 -6.5,-88.9 -5.9,-51.8 -17.8,-106.6 -36.4,-167.4 -3.3,-10.8 -6.5,-22.9 -9.9,-35.7 -11,-41.4 -23.5,-88.3 -45.1,-116.4 -7.3,-9.9 -17.2,-15.1 -28.4,-15.1 z m 1938.9,1722.8 c -0.9,0 -1.8,-0.1 -2.7,-0.4 -2.8,-0.9 -4.7,-3.1 -5.2,-5.9 l 9.9,-1.4 c -0.2,-1.1 -1,-1.9 -1.7,-2.2 -0.2,-0.1 -0.7,-0.2 -1.3,0.4 0.2,-0.2 0.4,-1 0.4,-3.2 0.1,-18 -1.4,-36 -4.3,-53.8 -3.7,5.6 -5,12.6 -4.9,18.5 0.2,10.3 3.9,20.4 7.6,30.3 l -9.4,3.5 c -3.7,-10.1 -8,-21.6 -8.2,-33.6 -0.3,-14 5.6,-26.6 15.4,-33.1 1.4,-0.9 3.2,-1.1 4.7,-0.4 1.5,0.6 2.7,2 3,3.7 4.2,21.4 6.3,43.3 6.2,65.1 0,2.4 0,6.8 -3.2,10.1 -1.6,1.4 -4,2.4 -6.3,2.4 z m -1903.5,-92.3 c -20.8,0 -41.8,-10.9 -55.7,-25.7 -32.8,-34.8 -37.3,-84.8 -39.3,-137.2 l -3.5,-92.3 c -1,-25.8 -2,-52.4 1.3,-78.6 2.1,-16.4 5.8,-32.7 9.5,-48.4 3.8,-16.5 7.8,-33.6 9.7,-50.6 4.9,-43.9 -3.7,-88.6 -12,-131.9 -4.5,-23.3 -9.1,-47.3 -11.7,-71.2 -3.6,-33.9 -3.2,-68.5 -2.7,-101.9 0.4,-30.1 0.8,-61.2 -1.8,-91.6 -2.1,-23.9 -6,-48.2 -9.9,-71.6 -5.8,-35.2 -11.8,-71.6 -11.4,-108 0.5,-55.8 15.8,-110.1 30.7,-162.5 l 1.3,-4.7 c 6.4,-22.5 10.4,-47.4 14.2,-71.4 4.9,-30.5 10,-62.1 20,-89.9 8.3,-23 22.4,-30.2 32.7,-32.2 18.1,-3.5 40.1,6.5 57.3,26 15.5,17.6 25.7,41.4 31.1,72.8 4.5,26.3 5,53.3 5,78.6 0,10 -0.1,20.2 -0.2,30.1 -0.6,53.9 -1.2,109.6 20.2,158.6 17.3,39.7 48.1,72.2 77.9,103.6 19.2,20.3 39.1,41.2 55.6,64.2 20.1,28 35.3,59.2 50.1,89.5 16.8,34.4 34.1,69.9 39.1,109.1 4.3,34 -1.1,67.6 -8,104.9 -11.2,60.1 -25.8,130.7 -48.6,198.7 -24.1,71.8 -54.1,130.8 -91.8,180.6 -16.5,21.8 -35,42.4 -52.9,62.3 -12.6,14.1 -25.2,28 -37.7,42 l -18.7,20.9 c -6.6,7.3 -14,15.6 -23.5,21 -8.3,4.7 -17.3,6.8 -26.3,6.8 z M 1336.6,2160 c -1.9,0 -3.8,0.2 -5.6,0.5 -11.2,2.1 -19.9,11 -25.2,25.8 -9.7,27 -14.7,58 -19.6,88.1 -3.9,24.3 -8,49.4 -14.5,72.5 l -1.3,4.7 c -14.7,51.8 -29.8,105.4 -30.3,159.9 -0.3,35.6 5.6,71.5 11.3,106.3 3.9,23.6 7.9,48.1 10,72.4 2.6,30.8 2.2,62.2 1.8,92.6 -0.4,33.1 -0.9,67.4 2.7,100.7 2.5,23.5 7.1,47.3 11.5,70.4 8.5,44 17.2,89.5 12.2,134.9 -2,17.6 -6,34.9 -9.9,51.7 -3.6,15.5 -7.3,31.5 -9.3,47.4 -3.2,25.4 -2.2,51.6 -1.3,76.9 l 3.5,92.3 c 1.9,50.4 6.1,98.4 36.6,130.7 16.9,17.9 47,30 69.8,17.1 8.1,-4.6 14.6,-11.9 21,-19 l 18.7,-20.9 c 12.6,-14 25.1,-28 37.7,-42 17.8,-19.8 36.2,-40.3 52.4,-61.8 37,-48.9 66.5,-107.1 90.3,-177.8 22.6,-67.4 37.1,-137.6 48.2,-197.4 6.8,-36.4 12.1,-69.2 8,-101.8 -4.7,-37.5 -21.7,-72.3 -38.1,-106 -14.6,-29.9 -29.7,-60.8 -49.2,-88.1 -16.1,-22.4 -35.7,-43.2 -54.7,-63.2 -30.4,-32 -61.8,-65.2 -79.8,-106.5 -22.2,-50.9 -21.6,-107.7 -21,-162.7 0.1,-9.8 0.2,-20 0.2,-30 -0.1,-54.2 -2.8,-109.9 -33.7,-144.8 -13.1,-14.4 -28.8,-22.9 -42.4,-22.9 z m 35.8,1256 c -3.3,0 -6.7,-0.6 -9.9,-2 -8,-3.5 -12.6,-11.2 -16.1,-18.2 -33.5,-67.7 -24.6,-145.1 -16,-219.9 3,-26 6,-52.8 7.3,-78.7 3.1,-65.6 -6.1,-132 -15,-196.3 -7.2,-52 -14.6,-105.8 -15.6,-159.2 -0.6,-32 1.1,-64.3 2.7,-95.6 1,-18.7 2,-38 2.5,-57 0.6,-21.2 -0.2,-43 -0.9,-64 -1.3,-36 -2.6,-73.3 2.6,-109.5 1.5,-10.7 2.7,-21.3 3.9,-31.5 2.6,-23.5 5.1,-45.6 11.5,-69.4 3.6,-13.5 13.6,-29.3 30,-29.7 0.2,0 0.3,0 0.5,0 13.5,0 24.1,11.6 27.5,23.2 4,13.2 4,28.7 4.1,43.7 0.1,11 0.1,21.4 1.6,30.8 4.4,28.7 9.1,52 14.6,73.3 13,50.5 32.7,96 58.5,135.4 14.7,22.4 30.5,44.3 47.1,67.5 58.7,81.6 119.5,166 126.4,267.7 v 0 c 5.2,75.4 -22.1,149.8 -46.1,215.4 -20.1,54.9 -43.2,112.4 -75.4,161.7 -36.7,56.2 -79.2,91.8 -129.8,109 -5,1.8 -10.5,3.3 -16,3.3 z m -12.6,-1121 c -0.1,0 -0.2,0 -0.3,0 -10.1,0.2 -17.6,11.3 -20.6,22.2 -6.2,23.1 -8.6,44.9 -11.2,67.9 -1.2,10.3 -2.4,20.9 -3.9,31.8 -5.1,35.3 -3.8,72.1 -2.5,107.7 0.7,21.2 1.5,43.2 0.9,64.6 -0.5,19.1 -1.5,38.5 -2.5,57.3 -1.6,31.1 -3.3,63.3 -2.7,94.9 1,52.8 8.4,106.3 15.5,158 9,64.7 18.2,131.7 15.1,198.2 -1.2,26.2 -4.3,53.2 -7.3,79.3 -8.4,73.4 -17.1,149.3 15.1,214.3 2.8,5.7 6.1,11.3 11.1,13.5 5.4,2.4 12.4,0.6 18.6,-1.5 107.5,-36.5 159.1,-155.8 199,-264.7 23.7,-64.7 50.5,-138 45.5,-211.2 v 0 c -6.8,-98.9 -66.7,-182.1 -124.6,-262.6 -16,-22.3 -32.6,-45.3 -47.4,-67.9 -26.4,-40.3 -46.5,-86.8 -59.8,-138.4 -5.6,-21.6 -10.3,-45.2 -14.8,-74.2 -1.6,-10.2 -1.6,-21.4 -1.7,-32.3 -0.1,-14.3 -0.1,-29.1 -3.7,-40.9 -2.2,-7.7 -9.3,-16 -17.8,-16 z m 21.2,1055.8 c -3.3,0 -6.5,-0.6 -9.6,-2.4 -3.2,-1.8 -5.4,-4.6 -7.2,-7 -24.3,-33.4 -15.4,-75.5 -6.9,-116.3 2.3,-11 4.7,-22.3 6.3,-33.1 6,-40.3 0.7,-82 -4.4,-122.4 l -0.9,-7.3 c -20.9,-166.9 -29.6,-336.9 -25.9,-505.1 0.7,-30.1 1.9,-57.1 10.6,-83.2 0.7,-2.1 2.6,-3.5 4.8,-3.4 23.6,0.5 40.2,20.5 53.2,39.9 30.7,45.7 52.9,84.9 69.8,123.4 3.2,7.3 6.3,14.8 9.3,22 6.9,16.5 14,33.6 22.8,49.4 11.8,21.3 26.4,41.6 40.4,61.2 10.8,15.1 22,30.7 32,46.8 40.7,65.7 47.4,144.4 19.2,227.7 -9.7,38.8 -31.3,113.5 -67.4,179.7 -39.3,71.9 -85.1,115.1 -136.1,128.5 -3.1,0.9 -6.6,1.6 -10,1.6 z m -29.6,-869.9 c -7.2,23.7 -8.3,48.8 -8.9,76.6 -3.7,167.7 5,337.2 25.8,503.6 l 0.9,7.3 c 5.2,41 10.5,83.4 4.3,125.1 -1.6,11.1 -4.1,22.6 -6.4,33.7 -8.1,38.6 -16.5,78.5 5.2,108.3 1.2,1.7 2.6,3.4 4.1,4.3 3.2,1.8 7.9,0.9 12.2,-0.2 48.3,-12.6 92,-54.2 129.9,-123.6 35.7,-65.4 57,-139.3 66.6,-177.6 0,-0.1 0.1,-0.3 0.1,-0.4 27.3,-80.4 21,-156.3 -18.1,-219.4 -9.8,-15.8 -20.9,-31.3 -31.6,-46.2 -14.2,-19.8 -28.9,-40.4 -41,-62.2 -9,-16.3 -16.3,-33.6 -23.3,-50.4 -3,-7.2 -6.1,-14.6 -9.3,-21.8 -16.7,-38 -38.7,-76.7 -69,-121.9 -10.9,-16.1 -24.3,-32.8 -41.5,-35.2 z m 70.1,795.1 c -4.9,0 -9.7,-1 -14.4,-3.1 -32.6,-14.7 -25,-62.8 -22.1,-80.9 12.7,-80.4 9.1,-164.6 -10.6,-243.6 -1.5,-6.2 -3.2,-12.5 -4.8,-18.6 -7,-26.3 -14.1,-53.4 -13.8,-81.2 0.2,-16.3 3.1,-32.5 5.8,-48.1 2.5,-14.2 5.1,-28.9 5.6,-43.4 0.9,-24.9 -4.4,-50.1 -9.4,-74.4 -2,-9.6 -4,-19.5 -5.7,-29.2 -7.8,-45.4 -3.8,-80.3 12.3,-106.5 1.3,-2 3.8,-2.9 6,-2.1 39.7,15.1 60.4,55.7 70.8,87.2 4.6,13.8 8.1,28.1 11.6,41.9 5.4,21.6 11,44 20.4,64.4 19.4,41.7 46.8,79 78.1,119.9 18.1,23.7 28.3,51.7 30.1,83.1 1.8,29.4 -3.7,62.7 -16.1,99 -17.8,73.5 -46.9,143.9 -77.9,188.2 -17.2,24.5 -42.1,47.4 -65.9,47.4 z m -50.7,-720.3 c -12.9,23.7 -15.8,55.1 -8.8,95.9 1.6,9.6 3.7,19.4 5.6,28.9 5.2,24.9 10.5,50.7 9.6,76.8 -0.5,15.2 -3.2,30.2 -5.7,44.8 -2.7,15.2 -5.5,31 -5.7,46.5 -0.4,26.4 6.7,52.9 13.4,78.5 1.6,6.2 3.3,12.5 4.9,18.8 20,80.3 23.7,165.9 10.8,247.6 -4,25.2 -6.6,59.9 16.3,70.3 3.3,1.5 6.8,2.2 10.3,2.2 20,0 42.7,-21.8 57.7,-43.2 30.4,-43.4 59,-112.6 76.5,-185.1 0,-0.2 0.1,-0.3 0.1,-0.5 12.1,-35.1 17.4,-67.2 15.7,-95.4 -1.8,-29.4 -11.2,-55.5 -28.1,-77.6 -31.6,-41.4 -59.5,-79.2 -79.2,-121.8 -9.8,-21.2 -15.5,-44 -21.1,-66.1 -3.4,-13.6 -6.9,-27.8 -11.4,-41.2 -9.4,-28.3 -27.4,-64.5 -60.9,-79.4 z m 94.4,547.4 c -3.9,0 -9,-1.8 -13.3,-9 -2.1,-3.5 -1.7,-7.3 -1.4,-10.1 5.8,-49.4 -4.8,-100.2 -29.6,-143.2 -3.2,-5.5 -6.6,-11 -10,-16.3 -6.2,-9.7 -12.6,-19.8 -17.6,-30.6 -16.6,-35.9 -18.1,-81.8 -4.1,-129.3 1.1,-3.8 2.5,-7.8 5.8,-10.7 7.4,-6.6 18.9,-4 30.1,6.8 0,0 0,0 0,0 43.9,42.7 110.3,107.3 110.3,186.3 0,21 -6.9,40.8 -13.7,60.1 -2.2,6.3 -4.5,12.8 -6.4,19.2 -0.6,1.9 -6.9,19.9 -15.9,38.3 -12.1,24.7 -22.7,37.2 -32.6,38.4 -0.5,0 -1,0.1 -1.6,0.1 z m -60.5,-342.8 c -1.2,0 -2.2,0.3 -3,1.1 -1.3,1.2 -2.1,3.6 -2.9,6.1 -13.2,45.2 -11.9,88.6 3.6,122.3 4.7,10.2 10.9,20 16.9,29.4 3.4,5.4 6.9,11 10.2,16.6 25.9,44.9 36.9,97.9 30.9,149.4 -0.1,1.2 -0.4,3.2 0,3.8 2.6,4.4 4.5,4.2 5.1,4.1 2.2,-0.3 10.3,-3.4 24.8,-32.9 8.6,-17.5 14.8,-35.1 15.3,-36.8 2,-6.5 4.3,-13.1 6.5,-19.5 6.4,-18.4 13.1,-37.5 13.1,-56.8 0,-32.2 -11.4,-64.4 -35,-98.4 -20.4,-29.5 -46.9,-56.1 -72.3,-80.7 v 0 c -3.1,-3.3 -9,-7.7 -13.2,-7.7 z m 72.4,218.3 c -0.4,0 -0.8,0 -1.1,-0.1 -1.8,-0.4 -3.2,-1.8 -3.7,-3.5 -4.8,-17.1 -13.1,-33.5 -24.1,-47.5 -1.8,-2.3 -3.8,-4.7 -5.7,-7 -8.1,-9.6 -16.4,-19.6 -19.2,-32.4 -2.2,-10.2 1.3,-22.2 8.8,-29.7 5.7,-5.7 12.7,-7.9 19.8,-6.4 7.7,1.6 13.4,7.4 17,11.6 17,19.6 25.3,46.6 22.4,72.5 3.2,14.2 -0.6,30 -10.5,40.9 -0.9,1 -2.3,1.6 -3.7,1.6 z m -29.5,-117 c -3.7,0 -6.6,2 -8.5,3.9 -5,5 -7.6,13.6 -6.1,20.5 2.3,10.4 9.5,19 17.1,28.1 2,2.3 4,4.8 5.9,7.2 9.7,12.2 17.4,26.2 22.7,41 4.7,-9.7 5,-21.4 0.4,-31.2 l 2.7,-1.3 c 1.1,-21.5 -6.4,-43.4 -20.5,-59.7 -4.3,-5 -7.9,-7.6 -11.5,-8.3 -0.8,-0.2 -1.5,-0.2 -2.2,-0.2 z m 1474.2,-94.7 c -15,0 -30.9,-6.6 -43.7,-18.7 -15.2,-14.4 -24.5,-33.9 -32.8,-51.2 -24.7,-51.8 -51.2,-104.1 -76.8,-154.7 -54.2,-107.1 -110.1,-217.8 -153.2,-330.4 -9.7,-25.8 -20.8,-51.6 -31.5,-76.5 -19.6,-45.6 -39.8,-92.8 -52.8,-141.8 -29.2,-110.4 -21,-226.7 -13,-339.1 3.3,-45.9 6.6,-93.4 7.4,-139.7 0.8,-45.9 -1.9,-92.6 -4.5,-137.7 -3,-51.5 -6,-104.8 -4,-157.5 2,-52.6 8.5,-96 19.8,-132.6 15.2,-49.2 39.6,-86.7 72.6,-111.5 23.4,-17.7 57.8,-30.4 84.1,-13 13.7,9 21,23.7 28.1,37.9 1.5,3 3,6 4.6,9 17.3,32.6 45.1,59.5 78.2,75.8 7.3,3.6 15.2,6.8 22.7,9.9 19.4,7.9 39.4,16.2 54.3,31.7 21.7,22.6 27.6,55.5 32.4,82 l 0.6,3.2 c 0,0 0,0 0,0 5.4,30.3 10.6,61.1 15.7,90.9 21.3,125.6 43.4,255.5 85.5,378.8 12,35.1 25.7,70.3 39,104.3 25.7,65.9 52.2,134 67.5,204.3 13.2,60.8 19.6,124.9 18.9,190.4 -0.7,62.9 -7.9,127.4 -21.3,191.7 -26.1,124.3 -75.7,246.9 -143.5,354.4 -9.8,15.6 -20.9,31.3 -38.5,37.7 -5.1,1.6 -10.4,2.4 -15.8,2.4 z M 2665,964.4 c -17.5,0 -36.2,9 -49.8,19.1 -31.2,23.5 -54.5,59.4 -69,106.5 -11.1,35.8 -17.4,78.3 -19.3,130 -2,52.2 1.1,105.2 4,156.5 2.6,45.3 5.3,92.2 4.5,138.4 -0.8,46.6 -4.1,94.2 -7.4,140.2 -7.9,111.6 -16.1,227.1 12.7,335.9 12.8,48.2 32.9,95.1 52.3,140.4 10.7,25.1 21.9,51 31.7,76.9 42.9,112.1 98.7,222.6 152.8,329.4 25.6,50.6 52.1,103 76.9,154.9 8.2,17.2 16.8,35.1 30.6,48.2 11.2,10.5 30.7,20.5 49.1,13.9 14.6,-5.3 24.5,-19.5 33.4,-33.6 67.2,-106.5 116.3,-227.9 142.2,-351.1 13.4,-63.6 20.5,-127.5 21.1,-189.7 0.7,-64.7 -5.6,-128 -18.7,-188.1 -15.1,-69.6 -41.5,-137.3 -67.1,-202.8 -13.3,-34.2 -27.1,-69.5 -39.1,-104.7 -42.4,-124 -64.5,-254.3 -85.9,-380.4 -5.1,-29.8 -10.3,-60.5 -15.7,-90.8 l -0.6,-3.2 c -4.5,-25.1 -10.1,-56.4 -29.8,-76.8 -13.5,-14 -31.7,-21.5 -50.9,-29.4 -7.7,-3.2 -15.7,-6.5 -23.3,-10.2 -35,-17.2 -64.4,-45.6 -82.6,-80 -1.6,-3 -3.2,-6.2 -4.7,-9.2 -6.8,-13.6 -13.2,-26.4 -24.7,-34 -6.8,-4.4 -14.6,-6.3 -22.7,-6.3 z m 257.4,1568.3 c -19.6,0 -40.3,-5.6 -59.3,-16.6 -31.7,-18.5 -54.7,-48.4 -71.2,-72.5 -28.3,-41.3 -51.6,-86 -69.2,-132.8 -5.2,-13.8 -10,-28 -14.6,-41.7 -7.1,-21 -14.3,-42.6 -23.2,-63.2 -15.7,-36.2 -37,-70.4 -57.6,-103.5 -10.1,-16.3 -20.6,-33.1 -30.4,-50.1 -42.8,-74.5 -57.3,-156.4 -65.2,-219.5 -5.5,-43.7 2.5,-81.7 11,-121.9 3.5,-16.7 7.1,-34 9.7,-51.7 9.7,-67 12.8,-135.2 9.3,-202.6 -0.7,-13.6 -1.6,-27.5 -2.5,-40.8 -4.3,-65.6 -8.8,-133.5 9.2,-200.4 4.4,-16.2 10.5,-34.7 22.9,-49 13.7,-15.9 33.9,-23.6 51.3,-19.6 16.7,3.9 28.1,16.7 39.1,29.2 10.5,11.8 20.4,23 34,26.1 12.9,2.9 25.7,-2.1 39.4,-7.4 9.2,-3.6 18.8,-7.3 28.8,-8.7 9.8,-1.3 19.6,-0.3 29.3,3 24.3,8.2 45.7,30.1 55.9,57.2 11.9,31.7 10.5,66.2 9.1,99.5 -0.1,2.4 -0.2,4.9 -0.3,7.3 -2.1,53.6 0.3,108.1 2.6,160.8 0.8,18.3 1.6,37.2 2.3,55.9 1.6,47.4 23.3,95.8 44.3,142.7 5.9,13.1 11.4,25.5 16.5,37.8 l 1.1,2.6 c 50.9,122.9 103.5,250 110.4,386.3 4.9,98.2 6.8,211.2 -33.7,310.7 -15.4,37.8 -33.6,61.1 -57.4,73.5 -12.7,6.2 -26.8,9.4 -41.6,9.4 z m -289.5,-1377 c -12,0 -24.7,6.3 -34.1,17.2 -11,12.8 -16.7,29.9 -20.8,45.1 -17.7,65.2 -13.4,129.3 -8.9,197.1 0.9,13.4 1.8,27.3 2.5,41 3.6,68 0.4,136.8 -9.4,204.5 -2.6,18 -6.3,35.4 -9.8,52.3 -8.3,39.4 -16.1,76.6 -10.8,118.6 8.3,66 22.3,143.3 64,215.8 9.6,16.8 20.1,33.6 30.2,49.8 20.8,33.4 42.3,68 58.3,104.9 9.1,20.9 16.4,42.8 23.5,64 4.6,13.6 9.3,27.8 14.5,41.4 17.3,46.1 40.3,90 68.1,130.7 15.9,23.2 38,52.1 68,69.5 30.3,17.6 65.1,20.2 91,6.8 21.6,-11.2 38.3,-32.9 52.8,-68.4 39.7,-97.6 37.8,-209.3 32.9,-306.4 -6.8,-134.5 -59.1,-260.8 -109.6,-383 l -1.1,-2.6 c -5.1,-12.2 -10.6,-24.5 -16.4,-37.6 -21.4,-47.7 -43.5,-97.1 -45.2,-146.4 -0.6,-18.6 -1.5,-37.5 -2.3,-55.8 -2.3,-52.9 -4.7,-107.6 -2.6,-161.6 0.1,-2.4 0.2,-4.9 0.3,-7.3 1.3,-32.3 2.7,-65.7 -8.5,-95.6 -9,-23.9 -28.5,-44 -49.7,-51.2 0,0 0,0 0,0 -8.2,-2.8 -16.6,-3.6 -24.8,-2.5 -8.8,1.2 -17.8,4.7 -26.5,8.1 -14.4,5.6 -29.4,11.4 -45.2,7.8 -16.8,-3.8 -28.2,-16.7 -39.3,-29.2 -10.5,-11.8 -20.3,-22.9 -33.9,-26.1 -2.3,-0.6 -4.8,-0.9 -7.2,-0.9 z m 241,1249 c -10.1,0 -20.6,-2.7 -31.3,-8.2 -22.5,-11.4 -39.1,-31.3 -52.4,-49.1 -48.4,-65.1 -80.5,-141.1 -111.5,-214.6 -20.7,-49 -42,-99.6 -68,-146.5 -2.9,-5.2 -5.9,-10.5 -8.8,-15.6 -12.2,-21.5 -24.9,-43.7 -32.7,-67.8 -20.5,-63.1 -5.9,-129.5 8.3,-193.7 5.7,-25.9 11.6,-52.6 15,-78.6 6.8,-51.1 6.8,-103.6 6.8,-154.4 0,-48.2 0,-98.1 5.8,-147 1.5,-13 3.8,-28 10.7,-40.9 7.8,-14.7 21.3,-24.6 35.3,-25.9 21.2,-2.1 36.2,13.2 50.7,27.9 11.5,11.7 23.5,23.8 38,26.3 4.6,0.8 9.4,0.7 14.5,0.5 7.1,-0.2 14.3,-0.5 21.5,1.9 19.1,6.2 29.5,26.2 32,61.1 3.2,45.5 1.3,90 -0.6,133.1 -0.5,11.2 -1,22.9 -1.4,34.4 -1.5,43.7 15.9,92.1 32.8,138.8 6,16.7 11.7,32.4 16.3,47.5 8.5,27.8 21.4,55 33.8,81.4 7.3,15.5 14.9,31.6 21.6,47.7 36.4,88 73.7,190.7 73.8,285.4 5.4,70.2 -3.4,129.7 -26.3,176.9 -14.6,30.2 -35.4,66.2 -66.2,76.6 -5.8,1.9 -11.7,2.8 -17.7,2.8 z M 2654.7,1272.3 c -0.9,0 -1.8,0 -2.8,0.1 -10.6,1 -21.1,9 -27.4,20.7 -6.1,11.4 -8.1,24.7 -9.6,37.4 -5.7,48.2 -5.7,97.8 -5.7,145.8 0,51.1 0,104 -6.8,155.7 -3.5,26.5 -9.4,53.4 -15.2,79.4 -13.8,62.9 -28.1,128 -8.5,188.4 7.5,23.1 19.9,44.9 31.9,65.9 2.9,5.1 5.9,10.4 8.8,15.7 26.3,47.4 47.7,98.2 68.5,147.4 30.8,72.9 62.6,148.3 110.3,212.5 12.6,16.9 28.2,35.7 48.9,46.2 14.8,7.5 28.3,9.1 41.2,4.7 27.3,-9.2 46.6,-43 60.3,-71.4 22.1,-45.6 30.6,-103.5 25.3,-172 0,-0.1 0,-0.3 0,-0.4 0,-93 -36.9,-194.6 -73,-281.8 -6.6,-15.9 -14.1,-31.8 -21.4,-47.2 -12.6,-26.7 -25.6,-54.2 -34.3,-82.7 -4.6,-14.9 -10.2,-30.5 -16.2,-47 -16.4,-45.4 -35,-96.9 -33.4,-142.6 0.4,-11.6 0.9,-23.2 1.4,-34.5 1.9,-44.8 3.8,-87 0.6,-131.9 -2.1,-30.3 -10.3,-47.4 -25.1,-52.2 -5.5,-1.8 -11.7,-1.6 -18.1,-1.4 -5.4,0.2 -11,0.3 -16.6,-0.6 -17.7,-3.1 -30.8,-16.3 -43.4,-29.2 -12.5,-12.8 -24.6,-25 -39.7,-25 z m 210.9,1100.8 c -0.7,0 -1.5,0 -2.2,0 -35.8,-1.5 -58.3,-37.1 -73.9,-68 l -37.6,-74.4 c -21.3,-42.1 -40.8,-86.7 -25.9,-129.4 4,-11.6 10.4,-22 16.6,-32.1 5.7,-9.3 11,-18 14.8,-27.6 8.4,-21.8 7.5,-45.2 6.5,-70 -0.5,-13.8 -1.1,-28 0.1,-42 3.3,-37.9 20.5,-75.2 47.3,-102.2 3.5,-3.5 7.4,-6.8 12.7,-7.2 6.6,-0.6 12.6,3.4 18,11.7 14.7,22.9 20.5,49.8 26.2,75.9 1.4,6.6 2.9,13.4 4.5,19.9 v 0 c 7.8,32.2 23,60.8 37.6,88.4 14.1,26.5 28.7,53.9 36.7,84.5 17.3,66 14.8,137.2 -7.1,200.5 -6.7,19.3 -16.5,36.8 -27.8,49.1 -13.8,15.1 -29.8,22.9 -46.5,22.9 z M 2825,1830.2 c -0.1,0 -0.2,0 -0.3,0 -2.1,0.2 -4.3,2.2 -6.4,4.3 -25.2,25.4 -41.4,60.4 -44.4,96 -1.2,13.3 -0.6,27.3 -0.1,40.7 1,24.7 2,50.3 -7.2,74 -4,10.5 -9.9,20 -15.6,29.3 -6.2,10.1 -12,19.6 -15.7,30.1 -13.6,38.9 5.1,81.4 25.4,121.6 l 37.6,74.4 c 15.3,30.2 35,61.2 65.4,62.5 32.1,1.3 55.4,-32.8 66.5,-65.1 21.2,-61.5 23.6,-130.6 6.8,-194.7 -7.7,-29.5 -21.4,-55.2 -35.8,-82.3 -15,-28.2 -30.5,-57.3 -38.5,-90.7 v 0 c -1.6,-6.7 -3.1,-13.5 -4.5,-20.1 -5.4,-25.2 -11.1,-51.2 -24.8,-72.6 -2.1,-3.5 -5.3,-7.4 -8.4,-7.4 z m 28,497.9 c -5.8,0 -12.2,-1.6 -19.2,-4.9 -25.7,-12 -42.9,-50.9 -56.8,-82.2 -4.4,-9.9 -8.6,-19.3 -12.4,-26.4 -16.5,-30.6 -20.9,-59.4 -13.9,-90.7 3.1,-13.9 8.2,-27.3 13,-40.3 3.8,-10.1 7.7,-20.5 10.6,-30.9 6.8,-24.4 8.6,-50.4 10.4,-75.6 1,-14.8 2.1,-30.1 4.2,-45 0.6,-4.5 1.4,-9.3 3.8,-13.6 3.1,-5.5 8.5,-9.5 15.3,-11.1 8.2,-2 17.6,-0.3 24.6,4.3 12.7,8.4 18.2,23.3 21.2,33.8 5,17.3 7.2,35.4 9.3,53 3.1,25.7 6.1,49.9 16.9,71.9 4.4,8.9 10.2,17.4 15.8,25.7 8.8,13 17.9,26.4 22.4,42.1 9.6,33.1 -2.8,64.2 -14.8,94.2 -3.9,9.7 -7.5,18.9 -10.5,28.1 -1.4,4.3 -2.6,10 -3.8,16 -3.8,18.4 -8.6,41.3 -24.2,49.1 -3.7,1.6 -7.6,2.5 -11.9,2.5 z m -37.8,-411.7 c -1.6,0 -3.3,0.2 -4.8,0.6 -2.9,0.7 -6.7,2.3 -8.9,6.3 -1.6,2.8 -2.1,6.4 -2.7,10.1 -2,14.6 -3.1,29.7 -4.1,44.3 -1.8,25.7 -3.6,52.2 -10.7,77.6 -3,10.8 -7,21.5 -10.9,31.7 -4.7,12.7 -9.7,25.8 -12.6,39 -6.5,28.8 -2.4,55.4 12.9,83.8 4,7.4 8.3,17 12.8,27.1 13.2,29.7 29.6,66.8 51.9,77.2 9.4,4.4 16.6,5.2 22.2,2.4 11.3,-5.6 15.5,-25.9 18.9,-42.2 1.3,-6.3 2.5,-12.2 4.1,-17 3.1,-9.6 7,-19.3 10.7,-28.8 11.4,-28.5 23.1,-57.9 14.5,-87.7 -4.1,-14.1 -12.3,-26.3 -21.1,-39.2 -5.8,-8.5 -11.8,-17.4 -16.5,-26.9 -11.6,-23.5 -14.8,-49.8 -17.9,-75.1 -2.1,-17.1 -4.2,-34.9 -9,-51.4 -4.1,-14.3 -9.6,-23.2 -17.1,-28.3 -3.3,-2.3 -7.5,-3.5 -11.7,-3.5 z m 18.4,370.7 c -3.4,0 -6.9,-0.5 -10.4,-1.7 -19.6,-6.8 -25.2,-28.2 -30.2,-47.2 -0.9,-3.6 -1.8,-6.9 -2.8,-10.2 -2.6,-8.8 -6.5,-17.8 -10.2,-26.4 -8,-18.4 -16.3,-37.5 -13.8,-58.1 1.5,-12.7 7.1,-24.2 12.4,-35.3 1.1,-2.2 2.1,-4.4 3.1,-6.6 11.5,-24.8 18.9,-51 22,-78.1 0.7,-6.6 2.5,-21.9 14.8,-25.3 4.3,-1.2 8.7,-0.5 12.6,1.9 7.4,4.6 11.4,14.1 12.7,20.9 1.8,9.5 1.9,19.1 2,28.4 0.1,8.9 0.3,17.4 1.7,25.7 2.9,16.8 12.1,30.4 21.8,44.8 8.7,12.8 17.6,26.1 22.2,42.1 9.9,34.8 3,73.6 -17.8,101.1 -9,12.1 -24.1,24 -40.1,24 z m -10.9,-279.5 c -0.5,0 -1,0.1 -1.5,0.2 -5.2,1.4 -6.7,9.8 -7.5,16.8 -3.2,28.2 -10.9,55.5 -22.8,81.2 -1,2.3 -2.1,4.5 -3.2,6.7 -5.2,10.8 -10.1,21.1 -11.5,32.1 -2.2,17.9 5.2,34.9 13,52.9 3.9,8.9 7.9,18.1 10.7,27.5 1,3.4 2,7 2.9,10.5 4.6,17.3 9.3,35.2 23.8,40.3 14.7,5.1 30.3,-6.9 39.3,-18.7 19,-25.1 25.2,-60.5 16.2,-92.4 -4.1,-14.5 -12.2,-26.5 -20.8,-39.3 -9.9,-14.7 -20.1,-29.8 -23.4,-48.7 -1.6,-9.1 -1.7,-18.3 -1.8,-27.2 -0.1,-9.3 -0.3,-18.1 -1.9,-26.7 -1.1,-6.1 -4.5,-12 -8.1,-14.3 -1.4,-0.6 -2.4,-0.9 -3.4,-0.9 z m 4.2,251.2 c -5.8,0 -10.3,-1.5 -13.6,-4.6 -7.2,-6.7 -6.6,-18 -6,-30.1 0.5,-10.5 1.1,-21.4 -3.9,-27.2 -0.7,-0.8 -1.4,-1.7 -2.2,-2.5 -6.1,-7.1 -13,-15.1 -13.9,-25.5 -0.7,-7.7 2.4,-15.3 8.6,-21.2 7.4,-7 17.9,-10.6 27.6,-9.3 14.9,2 28.7,13 37.7,30.1 v 0 c 11.5,21.8 18,37.6 5.2,59 -3.5,5.9 -21.8,29.4 -34.7,31 -1.7,0.1 -3.3,0.3 -4.8,0.3 z m -7.4,-110.7 c -5.9,0 -12.3,2.5 -16.7,6.8 -4,3.8 -6,8.5 -5.6,13.1 0.6,7.2 5.9,13.3 11.5,19.8 0.7,0.9 1.5,1.7 2.2,2.6 7.5,8.8 6.8,22.3 6.3,34.2 -0.5,9.2 -0.9,18.8 2.8,22.2 1.9,1.8 5.4,2.4 10.5,1.7 6.7,-0.8 22.5,-18.1 27.3,-26.2 9.8,-16.4 5.7,-28.1 -5.5,-49.2 v 0 c -3.6,-6.7 -13.6,-22.7 -30.2,-24.9 -0.9,-0.1 -1.7,-0.1 -2.6,-0.1 z M 513.7,2105.3 c -0.7,0 -1.3,-0.1 -1.9,-0.4 -30.2,-12.7 -42.9,-44.1 -55.1,-74.5 -2.7,-6.7 -5.5,-13.6 -8.4,-20.1 -12,-26.8 -34.1,-47.8 -55.4,-68.1 -27.7,-26.4 -56.4,-53.7 -63.1,-93.9 v 0 c -3.4,-20.4 3,-43.5 21.7,-48.1 16.4,-4 30.1,8.7 41.2,18.8 l 1.2,1.1 c 22,20.2 49,34.4 78.1,41.2 25.3,5.9 55.9,2.5 67.1,-18.2 1.1,-2 3.3,-3 5.5,-2.5 8.4,2 13.6,10.2 14.6,23.3 2.7,34.7 -5.9,69 -14.2,102.1 -7.1,28.3 -14.4,57.6 -14.5,86.6 0,1.4 0,2.7 0,4.1 0.1,16.8 0.2,35.9 -13.6,47.5 -0.9,0.7 -2.1,1.1 -3.2,1.1 z M 357.5,1809.4 c -1.2,0 -2.5,0.1 -3.8,0.4 -12.7,3.1 -16.8,21.3 -14.2,36.8 6.1,37 32.4,61.9 60.1,88.3 22,21 44.8,42.6 57.7,71.3 3,6.6 5.8,13.7 8.5,20.5 11,27.4 22.5,55.7 46.8,67.7 8,-8.9 7.9,-23.5 7.8,-37.7 0,-1.4 0,-2.8 0,-4.2 0.1,-30.3 7.5,-60.2 14.8,-89.1 8.1,-32.3 16.5,-65.7 13.9,-98.9 -0.2,-2.4 -1,-9.2 -4,-12.5 -16.1,23 -50.2,24.8 -75.5,18.9 -30.8,-7.1 -59.3,-22.2 -82.6,-43.6 l -1.2,-1.1 c -8.7,-7.9 -18.4,-16.8 -28.3,-16.8 z m 2349.7,285.2 c -0.6,0 -1.2,0 -1.8,-0.1 -20.1,-2 -20.3,-29.7 -20.4,-40.1 -0.2,-22.6 -7.4,-45.2 -20.3,-63.7 -9.3,-13.4 -21.8,-25 -33.9,-36.3 -17.3,-16.2 -35.2,-32.9 -44.9,-55.3 -16.4,-38.2 -4.3,-81.7 6.5,-120.1 l 0.6,-2.3 c 26.7,-95.4 43.3,-193.9 49.5,-292.8 1.9,-30 12.4,-47.7 29.7,-49.7 17.9,-2.1 32.7,14.1 39.6,43.3 4.9,20.8 9.2,42.5 13.3,63.5 9,45.9 18.3,93.3 35.5,135.7 3.6,8.9 7.6,17.9 11.5,26.6 7.9,17.6 16.1,35.9 21.3,55 9.3,34.1 6.5,65.5 -7.9,88.6 -3.7,5.9 -8,11.2 -12.3,16.3 -3.9,4.7 -7.5,9.1 -10.6,13.9 -18.1,27.6 -16.7,61.7 -15.2,97.9 1.5,37 3.1,75.3 -18.4,105.6 -6.5,9.1 -14.1,14 -21.8,14 z M 2675.1,1444 c -0.6,0 -1.2,0 -1.8,0.1 -16.1,1.9 -20,26.1 -20.9,40.4 -6.2,99.6 -23,198.8 -49.8,294.9 l -0.6,2.3 c -10.8,38.6 -22,78.5 -6.9,113.5 8.8,20.5 25.2,35.7 42.5,51.9 12.5,11.6 25.4,23.7 35.3,37.9 14.1,20.1 21.9,44.8 22.1,69.3 0.2,19.9 3.8,29.5 11.4,30.3 6.1,0.6 11.7,-5.8 14.5,-9.7 19.5,-27.5 18.1,-62.4 16.6,-99.4 -1.5,-36.1 -3,-73.5 16.8,-103.8 3.4,-5.3 7.4,-10.1 11.3,-14.8 4.2,-5.1 8.2,-9.9 11.5,-15.2 17.4,-27.9 11.7,-62.5 6.7,-80.7 -5,-18.4 -13,-36.2 -20.8,-53.5 -3.9,-8.8 -8,-17.8 -11.7,-26.9 -17.5,-43.3 -26.9,-91.2 -36,-137.6 -4.1,-20.9 -8.4,-42.6 -13.3,-63.1 -1.4,-6.2 -9.4,-35.9 -26.9,-35.9 z M 492.2,2021.3 c -7.9,0 -11.9,-11.7 -18,-32.2 -1.2,-3.9 -2.3,-7.5 -3.3,-10.6 -4.4,-13.1 -12.9,-24.8 -23.9,-33 -5.4,-4 -11.4,-7.3 -17.7,-10.7 -6.2,-3.4 -12.7,-6.9 -18.6,-11.2 -11.9,-8.8 -23.3,-24.2 -19.7,-41.1 1.4,-6.7 6.3,-13.7 13.9,-14.5 4.4,-0.5 8.3,1.4 11.1,2.8 l 49.6,24.1 c 11.5,5.6 25.9,12.6 34,25.5 v 0 c 12.1,19.1 9,63.9 4.8,82.5 -2.1,9.4 -5.1,18.1 -11.8,18.4 -0.2,0 -0.3,0 -0.4,0 z m -86.1,-143.4 c -0.1,0 -0.2,0 -0.3,0 -2.4,0.2 -4.4,3.6 -5.1,6.7 -2.6,12.2 6.9,24.3 15.9,30.9 5.4,4 11.2,7.1 17.4,10.5 6.3,3.4 12.9,7 18.9,11.4 12.6,9.4 22.4,22.9 27.4,37.8 1.1,3.3 2.2,7 3.4,10.9 2,6.7 5.5,18.3 8.2,23.3 0.7,-1.6 1.6,-4.3 2.6,-8.8 4.1,-17.8 6.4,-59.2 -3.5,-74.9 0,0 0,0 0,0 -6.6,-10.5 -19.6,-16.8 -29.9,-21.8 l -49.6,-24.1 c -1.8,-0.9 -3.8,-1.9 -5.4,-1.9 z m 2270.4,74.6 c -7.4,0 -16.3,-3 -27.1,-9.2 -27.6,-15.7 -55.8,-37.9 -55.8,-83.2 0,-42.1 13,-87.2 25.6,-130.8 5.6,-19.3 10.8,-37.5 14.9,-55.1 1.1,-4.7 1.9,-12.1 2.9,-20.8 3.6,-31.3 8.6,-74.3 32.4,-79.7 6.8,-1.5 16.6,1 23.3,10 4.9,6.6 6.8,14.4 8.6,21.3 3.6,14.1 7.8,28.2 12.2,43.1 10,33.6 20.3,68.3 23.1,102.1 2.5,30.5 -8,58.5 -18.3,85.6 -5,13.1 -10.1,26.7 -13.5,40.2 -1.9,7.3 -2.4,17.1 -2.9,26.6 -1,19.8 -2.1,40.3 -15.2,47.5 -3,1.6 -6.4,2.4 -10.2,2.4 z m -3,-369.3 c -0.6,0 -1.3,0.1 -1.9,0.2 -16.9,3.9 -21.8,46 -24.7,71.1 -1,9 -1.9,16.7 -3.1,21.9 -4.1,17.9 -9.4,36.2 -15,55.6 -12.4,42.9 -25.2,87.3 -25.2,128 0,32.4 14.7,54 50.8,74.5 12.7,7.2 22.2,9.5 27.5,6.7 8.3,-4.5 9.2,-23 10.1,-39.2 0.5,-10 1.1,-20.3 3.2,-28.5 3.6,-14 8.8,-27.9 13.9,-41.3 10.3,-27.3 20,-53 17.7,-81.2 -2.7,-32.8 -12.9,-67 -22.8,-100.1 -4.3,-14.4 -8.7,-29.2 -12.3,-43.5 -1.6,-6.3 -3.2,-12.8 -6.9,-17.8 -2.6,-3.2 -6.9,-6.4 -11.3,-6.4 z m -39.8,319.4 c 0,0 -0.1,0 -0.1,0 -4.1,-0.1 -7.1,-2.7 -8.7,-4.2 -9,-8.1 -18,-16.9 -19.1,-29.1 -0.8,-8.7 2.8,-16.6 6,-23.7 0.4,-0.9 0.8,-1.9 1.2,-2.8 3.3,-7.5 5.9,-25.2 8.6,-44 6.5,-44.9 14.6,-100.8 42,-106.5 0,0 0,0 0,0 8.7,-1.8 18.3,2.5 23.8,10.8 4.2,6.2 6.1,14.2 5.8,23.9 -0.7,18 -8.4,34.3 -15.9,50 -5.6,11.7 -11.4,23.8 -13.9,36.3 -1.7,8.5 -2,17.1 -2.2,26.3 -0.2,5.5 -0.3,11.2 -0.8,16.9 -1.8,19.3 -8,33.7 -18.6,42.7 -1.7,1.4 -4.5,3.4 -8.1,3.4 z m -1.1,-109.2 c -0.3,2.3 -0.7,4.6 -1,6.9 -2.9,20.3 -5.5,37.9 -9.3,46.7 -0.4,0.9 -0.8,1.9 -1.3,2.9 -2.9,6.5 -5.7,12.6 -5.2,18.7 0.8,8.5 7.9,15.5 15.8,22.5 0.4,0.4 1.6,1.4 2.1,1.6 0.2,-0.1 0.7,-0.3 1.7,-1.1 8.5,-7.2 13.6,-19.3 15.1,-36 0.5,-5.3 0.6,-10.9 0.8,-16.3 0.3,-9.2 0.5,-18.6 2.4,-28 2.8,-13.7 8.8,-26.4 14.7,-38.6 7.4,-15.5 14.4,-30.1 15,-46 0.3,-7.5 -1.1,-13.5 -4.1,-17.9 -3.2,-4.8 -8.8,-7.5 -13.5,-6.6 v 0 c -9.2,1.9 -15.9,14.3 -21,30.7 0.3,-0.6 0.7,-1.2 1.1,-1.8 2.7,-4.2 6,-6.9 9.8,-8.2 5.4,-1.8 11.3,-0.2 14.4,4.1 1.9,2.6 3.5,7.2 0.9,14.4 v 0 c -0.8,2.1 -1.6,4.3 -2.4,6.5 -4.6,12.5 -9.4,25.4 -12,38.2 l -0.1,0.5 c -0.7,3.4 -1.4,7.3 -4,10.6 -3.3,4.3 -10.1,6.8 -15.3,3.3 -2.3,-1.7 -3.8,-4.1 -4.6,-7.1 z m 27.4,-61.3 c -0.4,0 -0.8,0.1 -1.2,0.2 -2,0.7 -3.6,2.6 -4.6,4.2 -3.9,6 -4.6,13.5 -5.5,21.5 -0.5,5.3 -1.1,10.9 -2.6,16.3 -0.5,1.7 -1.1,3.4 -1.6,5 -1.3,3.8 -2.6,7.4 -2.3,10.7 0.1,1.1 0.4,1.8 0.5,2 0.4,0 1.2,-0.4 1.7,-1 1.1,-1.5 1.6,-3.9 2.1,-6.5 l 0.1,-0.5 c 2.7,-13.6 7.6,-26.9 12.4,-39.7 0.8,-2.2 1.6,-4.3 2.4,-6.4 0,0 0,0 0,0 0.8,-2.3 1,-4.3 0.4,-5.1 -0.2,-0.4 -0.9,-0.7 -1.8,-0.7 z m -21.1,24.2 c -1.2,6.1 -2.4,12.3 -3.4,18.4 0.4,-1.1 0.7,-2.1 1,-3.1 1.3,-4.5 1.8,-9.4 2.3,-14.5 0.1,-0.3 0.1,-0.6 0.1,-0.8 z m -2156,77.3 c -22.5,0 -44.1,-15 -62.7,-30.4 -39.8,-32.9 -77.2,-66.1 -98.6,-109.8 -19,-38.8 -23.5,-82.5 -27.8,-124.8 -4.1,-40.3 -8.4,-82.1 -25.4,-118.6 -4.9,-10.5 -10.9,-21 -16.8,-31.2 -15.6,-27 -31.6,-54.9 -28.7,-86.4 1.6,-17.4 8.9,-33.2 16,-48.5 2.4,-5.1 4.8,-10.4 7,-15.5 10.1,-24.3 15.8,-51.3 21.3,-77.5 9,-42.8 18.4,-87.1 47.5,-120.9 19.8,-22.9 46.5,-38.1 72.3,-52.8 24.8,-14.1 50.4,-28.6 69,-49.8 25.9,-29.5 25,-60.8 24.1,-93.9 -0.7,-25.5 -1.4,-51.9 10.7,-77.6 11.5,-24.2 31.3,-40.5 57.3,-47.3 35.1,-9.2 79.2,0.1 112.2,23.7 63.9,45.5 105.6,89.1 131.4,137.4 32.7,61.4 41.8,134.2 27,216.3 -12.1,66.9 -39.6,138.7 -81.7,213.4 -16.9,30 -35.3,60.1 -53.2,89.2 -59.4,97.1 -120.8,197.6 -137.5,310.2 -4.9,32.9 -12.2,82.6 -50.4,93.2 -4.3,1.1 -8.7,1.6 -13,1.6 z M 576.7,755.1 c -9,0 -17.7,1 -25.9,3.2 -23.1,6 -40.6,20.5 -50.8,41.9 -11.1,23.5 -10.5,47.6 -9.8,73 0.9,33.6 1.9,68.4 -26.6,100.8 -19.7,22.5 -46.1,37.4 -71.6,51.9 -25.1,14.2 -51,29 -69.7,50.6 -27.4,31.8 -36.1,72.9 -45.3,116.4 -5.6,26.6 -11.4,54.1 -21.9,79.2 -2.2,5.4 -4.7,10.7 -7.1,15.9 -7,15.2 -13.7,29.6 -15.2,45.2 -2.6,28.4 12,53.7 27.4,80.5 6,10.4 12.2,21.1 17.2,31.9 17.7,38.1 22.1,80.7 26.3,121.8 4.3,41.4 8.7,84.3 26.8,121.5 20.5,41.9 57.1,74.3 96,106.5 21.2,17.6 44,33 66.7,26.7 32,-8.8 38.5,-52.8 43.2,-85 16.9,-114.6 78.9,-215.9 138.8,-313.9 17.8,-29.1 36.1,-59.1 53,-88.9 41.6,-73.7 68.7,-144.4 80.6,-210.2 14.4,-79.9 5.7,-150.5 -26,-209.8 C 757.8,867.5 717,824.9 654.5,780.4 631.7,764 603.1,755.1 576.7,755.1 Z m -127.5,999.6 c -10,0 -20.9,-2.7 -32.4,-8.2 -23.4,-11 -42.1,-33.6 -57,-68.9 -12.6,-29.8 -20.8,-61.3 -24.2,-93.5 -0.9,-8.8 -1.5,-17.8 -2.1,-26.5 -1.1,-16.6 -2.2,-33.7 -5.8,-49.9 -5.6,-25.1 -17.2,-49.7 -28.5,-73.4 -18.5,-39 -37.7,-79.3 -30.1,-122.4 3.2,-18.2 11.1,-35.1 18.7,-51.4 3.8,-8.1 7.7,-16.6 11,-25 5.7,-14.8 9.8,-30.8 13.7,-46.3 6.9,-27.2 14,-55.4 30.6,-79 19.2,-27.4 48.3,-44.7 76.4,-61.4 19.5,-11.6 39.6,-23.6 56.1,-38.8 27.5,-25.3 47.5,-62.1 57.9,-106.3 0.5,-2 0.9,-4 1.4,-6.1 4.1,-17.9 8.2,-36.4 22,-49.2 18.3,-17 44.8,-15.6 59,-13.2 40,6.7 76.5,33.2 95.2,69.2 13.5,26.1 17.8,55.3 20.9,82.9 3,26.2 6.2,60.7 4.4,95 -4.7,90.4 -42.7,174.5 -79.2,244.9 -9.7,18.7 -19.9,37.6 -29.8,55.9 -30.2,55.9 -61.4,113.7 -82.5,174.4 v 0 c -3.8,11 -7,28.1 -10.7,47.9 -10.3,55.2 -23,123.9 -62,143.9 -7.2,3.6 -14.8,5.4 -23,5.4 z M 599,843.7 c -11.7,0 -25.3,2.5 -35.5,12 -11.5,10.7 -15.4,27.7 -19.1,44.1 -0.5,2.1 -0.9,4.1 -1.4,6.2 -10.8,46.2 -31.9,84.7 -60.9,111.3 -17.3,15.9 -37.8,28.1 -57.7,40 -28.4,16.9 -55.3,32.9 -73.3,58.6 -15.5,22.1 -22.1,48.2 -29.1,75.7 -4,15.8 -8.1,32.1 -14.1,47.5 -3.4,8.7 -7.4,17.3 -11.2,25.6 -7.7,16.4 -14.9,31.9 -17.9,48.9 -7,40 10.6,77.1 29.2,116.4 11.5,24.3 23.5,49.4 29.3,75.6 3.8,17 4.9,34.5 6,51.4 0.6,8.6 1.1,17.5 2.1,26.1 3.3,31.2 11.2,61.8 23.5,90.7 14,32.9 31,53.8 52.1,63.8 18.3,8.6 33.5,9.6 46.5,2.9 34.6,-17.7 47.4,-86.6 56.7,-136.8 3.8,-20.2 7,-37.6 11,-49.3 v 0 c 21.3,-61.5 52.7,-119.7 83.1,-175.9 9.9,-18.2 20.1,-37.1 29.7,-55.8 36,-69.4 73.4,-152.4 78.1,-240.8 1.8,-33.6 -1.4,-67.5 -4.4,-93.3 -3.1,-26.7 -7.1,-54.9 -19.9,-79.5 -17.3,-33.3 -51,-57.8 -87.9,-64 -3.9,-0.8 -9.1,-1.4 -14.9,-1.4 z m -173.2,851 c -1,0 -2,0 -3,-0.1 -17.7,-1.5 -34.1,-15.7 -41.8,-36 -5.7,-15.2 -6.4,-31.5 -7.1,-47.3 -0.1,-2 -0.2,-4.1 -0.3,-6.1 -2.9,-58.5 -15.3,-115.7 -37,-170 -2.8,-6.9 -5.7,-14 -8.6,-20.7 -8.2,-19.5 -16.7,-39.6 -21.7,-60.7 -7.9,-33.3 -4.8,-64.4 8.6,-87.4 3.6,-6.2 7.9,-11.8 12.1,-17.3 3.5,-4.5 6.7,-8.8 9.6,-13.3 9.4,-14.7 14.8,-32.4 20.1,-49.5 7.2,-23.6 14.7,-48 32.8,-65.9 16.1,-15.8 37.5,-23.4 58.2,-30.7 19.7,-7 38.3,-13.5 52.7,-26.6 13.6,-12.3 21.8,-28.9 30.5,-46.4 4.8,-9.8 9.8,-19.9 15.9,-29.2 11.8,-18.3 31.2,-32.6 49.4,-36.4 12.2,-2.6 23.7,-0.7 33.3,5.6 16.1,10.4 24.1,30.6 24.7,61.7 1.8,101.9 -39.4,197.5 -79.2,290 -24.2,56.2 -49.2,114.2 -64.5,173.4 l -4.8,-1.3 4.8,1.3 c -1.9,7.4 -4,20.8 -6.5,36.4 -5.1,32.4 -12.2,76.8 -24,112.7 -6.7,20.3 -14,35.3 -22.3,45.9 -9.3,11.8 -20.1,17.9 -31.9,17.9 z m 180.9,-735 c -2.7,0 -5.5,0.3 -8.3,0.9 -15.7,3.4 -32.7,15.9 -43.1,32.1 -5.7,8.8 -10.6,18.7 -15.3,28.2 -8.7,17.6 -17.7,35.8 -32.7,49.4 -15.9,14.4 -36.3,21.6 -56,28.6 -20.6,7.3 -40,14.2 -54.5,28.4 -16.3,16.1 -23.1,38.2 -30.3,61.7 -5.4,17.7 -11.1,36.1 -21.2,51.9 -3.1,4.9 -6.7,9.6 -10.1,14 -4.2,5.5 -8.1,10.6 -11.4,16.2 -12.1,20.8 -14.8,49.3 -7.5,80.1 4.8,20.3 13.1,40 21.2,59.1 2.9,6.8 5.9,13.9 8.7,20.9 22,55.4 34.7,113.7 37.7,173.2 0.1,2 0.2,4.1 0.3,6.2 0.7,15 1.4,30.5 6.5,44.2 4.8,12.7 16.4,28.1 33.3,29.6 18.1,1.6 33.9,-17.6 46.9,-57.1 11.6,-35.2 18.6,-79.1 23.6,-111.2 2.6,-16.5 4.7,-29.5 6.7,-37.4 v 0 c 15.5,-59.9 40.6,-118.3 65,-174.8 39.4,-91.5 80.1,-186.1 78.4,-285.8 -0.5,-27.5 -7.1,-45 -20.1,-53.5 -5.6,-3.2 -11.4,-4.9 -17.8,-4.9 z m -166.3,669 c -0.6,0 -1.2,0 -1.8,-0.1 -16.4,-2.3 -25.1,-35.9 -32.1,-71.9 -0.6,-3 -1,-5.4 -1.4,-6.8 -10.1,-43.8 -25.9,-85.9 -46.9,-125.3 -1.4,-2.6 -2.8,-5.2 -4.2,-7.7 -8.6,-15.9 -17.5,-32.3 -21.1,-50.5 -7.9,-40.3 11.3,-77.7 29.9,-113.9 8.3,-16.2 17,-33 22.9,-49.7 1.3,-3.7 2.6,-7.6 3.8,-11.3 6.3,-19.1 12.8,-38.9 29.7,-50.8 8,-5.6 17.2,-8.5 26,-11.2 6,-1.9 11.7,-3.6 17,-6.2 9.8,-4.7 17.9,-11.9 26.6,-19.6 7.1,-6.3 14.5,-12.8 22.9,-17.9 18.9,-11.4 33.9,-14 44.5,-7.7 11.8,7.1 17.1,24.8 15.8,52.6 0,0 0,0 0,0 -2.4,49 -24,113.8 -32.2,129.5 -6.6,12.6 -13.8,25.2 -20.7,37.3 -19.1,33.5 -38.8,68.2 -48.6,105.6 -12.9,49.3 -8.4,102 -4.1,152.9 0.3,3.4 0.6,6.9 0.9,10.3 1,11.7 2.3,27.7 -4.4,41.2 -7.4,14.1 -14.7,21.2 -22.5,21.2 z m 102.8,-544.2 c -5.8,0 -14.2,2.3 -26.3,9.6 -7.6,4.6 -14.3,10.6 -21.4,16.8 -8.8,7.8 -17.9,15.8 -28.9,21.1 -6,2.9 -12.3,4.8 -18.4,6.7 -8.5,2.6 -16.5,5.1 -23.3,9.8 -14.2,9.9 -20.1,28.1 -25.9,45.7 -1.3,3.8 -2.6,7.8 -3.9,11.6 -6.2,17.4 -15,34.4 -23.5,50.9 -18.6,36.2 -36.2,70.5 -28.9,107.4 3.3,16.7 11.8,32.5 20.1,47.6 1.4,2.6 2.8,5.2 4.2,7.8 21.4,40.2 37.5,83.2 47.8,127.8 0.4,1.6 0.8,4 1.4,7.1 1.9,9.7 5,26 9.5,39.9 6.9,21.4 12.6,23.7 14.1,23.9 2.6,0.4 7.7,-3.6 13.9,-15.9 5.1,-10.1 4.5,-22.2 3.4,-35.8 -0.3,-3.4 -0.6,-6.9 -0.9,-10.3 -4.4,-51.8 -9,-105.3 4.3,-156.3 10.2,-38.7 30.2,-73.9 49.6,-108 6.9,-12.1 14,-24.6 20.6,-37 8.4,-15.9 28.8,-79.7 31.1,-125.3 1.2,-23.5 -2.6,-38.5 -10.9,-43.5 -1.7,-0.7 -4.2,-1.6 -7.7,-1.6 z M 419.8,1471 c -15,0 -25.9,-28.5 -34.8,-51.8 -2.5,-6.7 -4.9,-12.9 -6.3,-15.2 0,0 0,0 0,0 -1.3,-2.1 -2.7,-4.3 -4.1,-6.4 -5.2,-8.1 -10.6,-16.5 -13.5,-26.1 -4,-13.2 -2.8,-26.9 -1.1,-38.5 3.7,-25.6 11.3,-52 24.8,-85.5 10.3,-25.8 23.2,-51.6 46.8,-65.7 6,-3.6 12.6,-6.3 18.9,-8.9 11.9,-4.9 23.1,-9.6 29.5,-19.1 1.6,-2.4 2.9,-5.1 4.3,-7.9 1.8,-3.7 3.7,-7.6 6.4,-11.1 6,-7.6 17.2,-12.1 25.5,-6.3 3.8,2.6 5.8,6.6 7.1,9.7 14.7,35.2 -7.1,72.8 -28.6,105.2 -25,37.7 -52.3,82 -58.5,131.4 -0.4,2.9 -0.3,10.6 -0.3,19.5 0.1,50 -1.7,72.9 -12.5,76.1 -1.2,0.4 -2.4,0.6 -3.6,0.6 z m 0.4,-10 z m -33,-62.3 c 1.9,3.1 4.2,9.2 7.1,16.9 3.9,10.3 8.8,23 14.1,32.7 5.5,9.8 9.6,13 11.8,12.6 0.7,-0.7 3.4,-4.9 4.8,-24.6 0.9,-13.5 0.9,-29.3 0.9,-42 0,-10 0,-17.3 0.4,-20.8 6.5,-51.6 34.4,-97.1 60.1,-135.7 20.1,-30.3 40.5,-65.2 27.7,-95.8 -0.8,-1.9 -1.9,-4.2 -3.6,-5.4 -3.3,-2.3 -9,0.4 -12,4.3 -2.1,2.7 -3.7,5.9 -5.3,9.3 -1.5,3 -3,6.2 -5,9.1 -8.1,12 -21.3,17.4 -34,22.7 -6,2.5 -12.2,5.1 -17.6,8.3 -21.1,12.6 -33,36.7 -42.7,60.8 -13.1,32.8 -20.6,58.4 -24.1,83.2 -1.5,10.5 -2.6,22.9 0.8,34.2 2.5,8.3 7.3,15.7 12.3,23.6 1.5,2.2 3,4.4 4.3,6.6 z m 18,-21.2 c -1.7,0 -3.3,-0.9 -4.2,-2.3 -13.2,-20.5 -16.1,-54.7 -13.1,-79.5 2.8,-23.2 12,-44.8 25.9,-60.9 2.7,-3.1 17.1,-12.2 25.5,-17.3 24.3,-14.5 27.5,-13.3 29.8,-12.4 2.3,0.9 3.7,3.1 3.6,5.6 v 0 c -0.7,19.3 -12.4,36 -22.8,50.8 l -1.1,1.5 c -14.2,20.2 -28.1,42.2 -33.6,66.1 -1.4,6.2 -1.7,13.2 -2,19.9 -0.3,8.5 -0.7,17.2 -3.3,25.1 -0.6,1.8 -2.2,3.1 -4.1,3.4 -0.1,0 -0.3,0 -0.6,0 z m 56.9,-161.1 c -11.5,5.3 -37.4,21.6 -40.8,25 -12.6,14.5 -21,34.2 -23.5,55.5 -2.1,18 -1.1,41.1 5.1,59.1 0.2,-2.4 0.3,-4.9 0.4,-7.4 0.3,-7.2 0.6,-14.6 2.2,-21.7 5.9,-25.5 20.4,-48.6 35.2,-69.6 l 1.1,-1.5 c 8.8,-12.6 17.8,-25.4 20.3,-39.4 z m 0.7,-6.1 c 0,0.1 0,0.1 0,0 0,0.1 0,0.1 0,0 0,0 0,0 0,0 z m 1586.5,16.5 c -2.7,0 -5.5,-0.7 -8.1,-2.3 -5.1,-3.1 -7.4,-8.4 -9.2,-13.7 -8.6,-25.6 -10.8,-52.9 -12.8,-79.2 -2.2,-28.5 -4.5,-57.9 -15.2,-84.3 -4.5,-11.1 -10.5,-21.8 -16.3,-32.2 -5.5,-9.9 -11.2,-20.1 -15.8,-30.8 -21.1,-49.7 -18,-111.8 9.2,-184.6 8,-21.5 17.5,-42.9 26.6,-63.6 15.5,-35 31.5,-71.1 40.7,-108.6 8.9,-36.1 11.7,-73.9 13.2,-106.1 v -0.8 c 0.7,-14.1 1.3,-28.7 7.4,-42 4.9,-10.8 13.7,-19.5 23.6,-23.4 0,0 0,0 0,0 4.4,-1.7 8.9,-2.5 13.4,-2.2 14.8,0.8 26,10.1 33.3,27.8 5.9,14.2 8.7,32 10.9,46.3 1.1,7.3 2.2,14.1 3.5,19.2 12.6,49.7 18.2,100.7 16.7,151.7 -0.8,26.5 -3.5,53.4 -6,77.2 -8.5,83 -17.7,166.8 -27.2,249 -2.7,23.6 -11,40.5 -19.7,58.4 -5.1,10.5 -10.4,21.3 -14.6,33.9 -3.5,10.4 -6.1,21.5 -8.6,32.2 -5.1,21.7 -10.3,44.1 -23.3,63.6 -5.2,7.9 -13.4,14.5 -21.7,14.5 z m 46.9,-762.2 c -7.5,2.9 -14.3,9.7 -18.1,18.2 -5.3,11.6 -5.9,25.1 -6.5,38.3 v 0.8 c -1.5,32.7 -4.3,71.1 -13.5,108 -9.5,38.3 -25.7,74.9 -41.3,110.3 -9.1,20.5 -18.5,41.7 -26.4,63 -26.3,70.4 -29.4,130 -9.4,177.2 4.3,10.2 9.9,20.2 15.3,29.8 6,10.7 12.2,21.7 16.9,33.4 11.2,27.8 13.6,58 15.9,87.2 2,25.8 4.1,52.4 12.3,76.8 1.2,3.5 2.6,6.9 4.9,8.4 5,3.1 12.6,-3.5 16.4,-9.1 12,-18 16.8,-38.6 21.9,-60.4 2.5,-10.9 5.2,-22.3 8.8,-33.1 4.4,-13.2 9.8,-24.3 15.1,-35.1 8.3,-17.1 16.2,-33.2 18.7,-55.2 9.6,-82.2 18.7,-165.9 27.2,-248.9 2.4,-23.6 5.1,-50.3 5.9,-76.5 1.5,-50.1 -4,-100.2 -16.4,-149 -1.4,-5.5 -2.5,-12.6 -3.7,-20.1 -4.2,-27.1 -10,-64.3 -34.9,-65.6 -2.9,-0.1 -6,0.4 -9.1,1.6 z m -21.9,661.4 c -3.8,0 -7.4,-1.3 -10.6,-3.9 -14.2,-11.7 -18.4,-47.8 -21.8,-87.1 -1,-11 -1.8,-21.4 -3,-24.9 -2.7,-8.5 -7,-16.4 -11.5,-24.8 -5.2,-9.7 -10.7,-19.8 -13.4,-30.9 -5.3,-21.2 -0.4,-42.9 3.9,-62.1 2.9,-13 5.1,-26.6 7.2,-39.8 3,-18.5 6.1,-37.6 11.2,-55.6 L 2083,626 c 3.7,-13.5 9.8,-29.4 24.5,-33.2 2.6,-0.7 5.3,0 7.6,1.9 2.9,2.4 11.9,9.8 19.9,87.7 3.9,38.1 6,78.4 5.5,87 -0.3,5.2 -0.6,10.5 -0.9,15.8 -6.3,106.2 -13.5,226.5 -50.5,327.3 0,0 0,0 0,0 -1.3,3.4 -4.6,12.5 -13.1,13.5 -0.4,-0.1 -1.1,0 -1.7,0 z m 35,-523.2 c -9,3 -13.4,14.7 -16.4,25.8 l -46.7,171 c -5,17.5 -8,36.3 -11,54.5 -2.1,13.3 -4.4,27 -7.3,40.4 -4.1,18.1 -8.7,38.7 -4,57.5 2.5,9.9 7.4,19 12.5,28.6 4.5,8.4 9.2,17.1 12.2,26.5 1.4,4.5 2.3,14 3.4,27 2.3,26.3 6.1,70.2 18.2,80.2 1.6,1.3 3.2,1.8 5,1.6 1.1,-0.1 2.8,-1.4 4.8,-7 20.2,-55 31.3,-116.1 38.4,-177.6 -4.4,32 -11.8,63.5 -18.9,94.2 -2.3,10.1 -6.8,15.6 -13.4,16.5 -9.1,1.2 -15.2,-7.6 -17.1,-16.9 -1.1,-5.2 -1.7,-10.4 -2.3,-15.5 -1.3,-10.2 -2.5,-19.8 -6.7,-28.2 -1.7,-3.4 -3.9,-6.7 -6.3,-10.1 -2.6,-3.7 -5.3,-7.6 -7.3,-11.9 -8.5,-17.6 -5.4,-37.6 -1.5,-56.5 3.1,-15.1 8.6,-29.4 13.9,-43.2 6.7,-17.5 13.1,-34.1 15,-52.2 0.2,-1.4 0.3,-2.9 0.4,-4.3 0.7,-7.5 1.4,-15.3 5.1,-22.5 4.9,-9.5 16.8,-16.9 27.5,-12.3 9.8,4.2 12.7,15.2 14.2,24.3 5.6,35.2 3.4,68.9 0.9,104.5 3.5,-38.3 5.8,-76.3 8,-112.7 0.3,-5.3 0.6,-10.6 0.9,-15.8 0.4,-7.2 -1.4,-46.3 -5.6,-86.3 -6.9,-65.3 -14,-77.4 -15.9,-79.6 z m -9.4,174.3 c -4.6,0 -9.5,3.8 -11.8,8.3 -2.8,5.5 -3.4,12 -4.1,18.8 -0.1,1.5 -0.3,3 -0.4,4.5 -2.1,19.4 -9,37.3 -15.6,54.7 -5.2,13.4 -10.5,27.3 -13.4,41.6 -3.6,17.3 -6.5,35.3 0.7,50.1 1.8,3.6 4.1,7 6.6,10.6 2.4,3.5 5,7.2 7,11.3 5,10 6.4,20.9 7.7,31.5 0.6,4.9 1.2,9.9 2.2,14.7 0.9,4.6 3.5,9.3 6,9 1.9,-0.2 3.7,-3.5 4.9,-8.8 9.3,-40.1 19,-81.6 21.9,-123.3 v -0.6 c 2.6,-36 5,-70.1 -0.6,-105.1 -1.5,-9.7 -4.1,-14.9 -8.2,-16.7 -0.9,-0.4 -1.9,-0.6 -2.9,-0.6 z m 1348.4,345.3 c -27.8,0 -51.9,-23.3 -62,-48.2 -8.3,-20.2 -10.2,-42.1 -12.1,-63.3 -0.6,-6.6 -1.2,-13.4 -2,-20 -5.8,-48.9 -23.9,-101.5 -49.5,-144.3 -21.1,-35.3 -50.5,-65.9 -78.9,-95.4 -25.9,-26.9 -52.7,-54.8 -73.6,-86.6 -30.5,-46.4 -49.8,-101.8 -59,-169.3 -8.1,-60 -7.7,-123.7 -7.2,-185.3 0.3,-48.1 0.7,-97.9 -3.1,-145.4 l 10,-0.8 c 3.8,47.9 3.4,97.9 3.1,146.2 -0.4,61.3 -0.9,124.7 7.2,183.9 8.9,66.1 27.7,120.1 57.4,165.2 20.4,31 46.9,58.6 72.5,85.2 28.8,29.9 58.5,60.8 80.2,97.2 26.3,44 44.9,98 50.9,148.3 0.8,6.8 1.4,13.7 2,20.3 1.8,20.4 3.7,41.6 11.4,60.4 9.5,23.3 32.5,45.1 58,41.7 14.8,-2 29.2,-12.7 38.5,-28.7 8.9,-15.3 12.5,-33.1 15.6,-49.9 24.5,-137.2 14.3,-276.9 0.7,-419.7 l -0.5,-5.3 c -2.9,-29.8 -5.8,-60.6 -6.6,-91.2 -2.1,-78 2.6,-226.5 57.4,-344.3 l 9.1,4.2 c -53.9,116 -58.5,262.7 -56.4,339.8 0.8,30.2 3.7,60.8 6.6,90.5 l 0.5,5.3 c 13.7,143.6 23.9,284 -0.8,422.4 -3,17 -7.1,36.5 -16.7,53.2 -10.8,18.7 -27.9,31.3 -45.8,33.6 -2.5,0.1 -4.7,0.3 -6.9,0.3 z M 2086.1,969.3 c -3.1,0 -5.5,-1.5 -7.1,-2.7 -15.9,-11.5 -15.7,-34.2 -10.6,-50.3 1.8,-5.6 4,-11.1 6.2,-16.3 1.6,-3.9 3.3,-7.9 4.7,-11.9 2.1,-5.9 4.1,-11.4 5.1,-17.2 0,0 0,0 0,0 0.6,-3 0.8,-5.8 0.8,-8.7 0,-0.9 0,-1.8 -0.1,-2.8 -0.1,-1.9 -0.1,-4 0,-6 0.3,-4 1.3,-7.1 3.3,-9.5 3.1,-3.8 8.5,-5.1 12.6,-2.9 2,1.1 4.5,3.4 5.3,8.4 0.8,5.1 -0.2,10 -1.3,14.1 v 0.1 c -1.3,5.1 -2.5,9.4 -2.1,14.2 0.3,4.6 0.2,9.2 0.1,13.7 -0.1,2 -0.1,4.1 -0.1,6.2 l -0.1,11.5 c 0,9.1 -0.1,18.5 -0.1,27.8 0,10.1 -0.8,21.5 -8.9,28.8 -2.4,2.1 -4.9,3.2 -7.4,3.3 -0.2,0.2 -0.2,0.2 -0.3,0.2 z m 6.7,-90.4 c -1.2,4.4 -2.7,8.6 -4.2,12.8 -1.5,4.2 -3.2,8.3 -4.9,12.3 -2.2,5.3 -4.3,10.3 -5.9,15.5 -4.4,13.8 -3.9,31.3 6.9,39.1 0.7,0.5 1.1,0.7 1.3,0.7 0.1,-0.1 0.5,-0.2 1,-0.7 5.1,-4.5 5.5,-13 5.6,-21.3 0,-9.3 0,-18.7 0.1,-27.8 l 0.1,-11.5 c 0,-2.1 0.1,-4.3 0.1,-6.4 0.1,-4.3 0.2,-8.7 -0.1,-12.7 z m 3.4,-28.5 c 0,0 -0.1,0 0,0 -0.6,0.7 -1,2 -1.1,3.9 -0.1,1.6 -0.1,3.3 0,5.1 0,0.8 0,1.6 0.1,2.3 0,-0.1 0.1,-0.2 0.1,-0.3 v -0.1 c 0.9,-3.3 1.7,-6.8 1.1,-9.9 0,-0.5 -0.1,-0.8 -0.2,-1 z m 1365.7,36.3 c -10.9,0 -21.8,-7.4 -27.6,-16.9 -5.3,-8.8 -7.4,-18.7 -9.4,-28.2 -0.6,-3 -1.3,-6.1 -2,-9.1 -12.2,-49.1 -51.4,-81.9 -92.9,-116.7 -20.6,-17.3 -41.9,-35.1 -59.6,-55.1 -68.4,-77.5 -80.9,-188.4 -84.4,-265.1 -1,-22.5 -1.5,-45.4 -1.9,-67.6 -1.3,-69.9 -2.7,-142.2 -22.3,-209.8 l 9.6,-2.8 c 20,68.9 21.4,141.8 22.7,212.4 0.4,22.1 0.9,45 1.9,67.3 3.4,75.2 15.6,183.8 81.9,259 17.2,19.5 38.2,37.1 58.5,54.1 40.9,34.3 83.2,69.7 96.2,122 0.8,3.1 1.5,6.3 2.1,9.4 1.9,9.1 3.7,17.8 8.2,25.1 5.2,8.6 16.9,15 25.2,10.5 8.6,-4.6 9.9,-17.6 10.2,-28.3 2.2,-103.4 -21.1,-188.4 -45.8,-278.3 -5.3,-19.5 -10.9,-39.6 -11.6,-60.5 -0.9,-27.1 6.3,-53.4 13.3,-78.9 2.4,-8.6 4.8,-17.4 6.8,-26.1 17.8,-74.9 11.7,-155.4 -17.4,-226.8 l 9.3,-3.8 c 29.8,73.2 36.1,155.9 17.8,232.8 -2.1,8.8 -4.6,17.8 -6.9,26.4 -6.8,24.8 -13.9,50.4 -13,75.9 0.7,19.7 6,39.2 11.2,58.2 24.9,90.7 48.4,176.4 46.1,281.2 -0.3,13.5 -2.3,29.8 -15.4,36.9 -3.4,1.9 -7.1,2.8 -10.8,2.8 z m -77.1,-192.8 c -10.4,0 -25,-7.2 -43.8,-21.7 -17,-13.1 -33.7,-29.3 -40,-37.5 -43,-55.5 -66.3,-130.6 -71.2,-229.6 -1.8,-35.6 -1.3,-71.8 -0.8,-106.8 0.6,-44.1 1.2,-89.6 -2.7,-134.1 l 10,-0.9 c 4,45 3.3,90.8 2.8,135.1 -0.5,34.8 -0.9,70.9 0.8,106.1 4.8,96.9 27.4,170.2 69.1,224 4.9,6.3 20.4,22 38.2,35.7 28.1,21.6 38.1,20.1 40.5,19.1 4.6,-1.9 4.3,-11.3 3.7,-16.8 -2.5,-22.4 -13.2,-43.5 -23.6,-63.9 -9.8,-19.3 -19.9,-39.2 -23.5,-60.5 -6.5,-38.3 4.3,-76.2 14.7,-112.9 3.6,-12.8 7.4,-26 10.3,-38.9 12.1,-53.7 11.3,-110.2 -2.4,-163.6 l 9.7,-2.5 c 14.1,54.8 15,113 2.5,168.2 -3,13.2 -6.8,26.6 -10.4,39.5 -10.1,35.6 -20.5,72.5 -14.5,108.5 3.3,19.8 12.7,38.2 22.5,57.6 10.8,21.2 21.9,43.2 24.6,67.3 1.7,14.7 -1.6,23.9 -9.8,27.2 -2,1 -4.2,1.4 -6.7,1.4 z M 3300.1,584 c -11,0 -18.7,-11.7 -22.4,-23.6 -29.3,-94.5 -33.4,-195.4 -11.6,-291.9 l 9.8,2.2 c -21.3,94.8 -17.4,193.9 11.4,286.7 2.1,6.8 7.6,18 14.5,16.3 5.1,-1.2 7.1,-9.3 6.8,-16.2 -0.6,-16 -6.1,-32.1 -11.5,-47.6 -6.5,-18.8 -13.2,-38.2 -11.8,-58.7 1.7,-23.6 13.9,-44.1 25.7,-63.9 10,-16.8 20.4,-34.3 23.7,-53 4.7,-26.7 -5.7,-55.2 -26.6,-72.5 l 6.4,-7.7 c 23.6,19.6 35.4,51.7 30.1,81.9 -3.6,20.6 -14.5,38.8 -24.9,56.4 -11.7,19.7 -22.8,38.3 -24.3,59.5 -1.3,18.4 4.8,36.1 11.2,54.7 5.6,16.2 11.4,32.9 12,50.4 0.4,10.4 -3.2,23.6 -14.5,26.3 -1.4,0.6 -2.7,0.7 -4,0.7 z"
   id="path2"
   style="fill:#dee7da;fill-opacity:1;stroke-width:0.829972" />
</g>
</svg>
