<?xml version="1.0" encoding="UTF-8" standalone="no"?>
<!-- Generator: Adobe Illustrator 27.2.0, SVG Export Plug-In . SVG Version: 6.00 Build 0)  -->

<svg
   version="1.1"
   id="Calque_1"
   x="0px"
   y="0px"
   viewBox="0 0 318.96954 573.80078"
   xml:space="preserve"
   sodipodi:docname="growth_rings.svg"
   inkscape:version="1.1 (c68e22c387, 2021-05-23)"
   width="318.96954"
   height="573.80078"
   xmlns:inkscape="http://www.inkscape.org/namespaces/inkscape"
   xmlns:sodipodi="http://sodipodi.sourceforge.net/DTD/sodipodi-0.dtd"
   xmlns="http://www.w3.org/2000/svg"
   xmlns:svg="http://www.w3.org/2000/svg"><defs
   id="defs23">
	
	
	
	
	
	
	
</defs><sodipodi:namedview
   id="namedview21"
   pagecolor="#505050"
   bordercolor="#eeeeee"
   borderopacity="1"
   inkscape:pageshadow="0"
   inkscape:pageopacity="0"
   inkscape:pagecheckerboard="0"
   showgrid="false"
   inkscape:zoom="0.64194678"
   inkscape:cx="11.683211"
   inkscape:cy="172.13265"
   inkscape:window-width="1920"
   inkscape:window-height="1009"
   inkscape:window-x="1912"
   inkscape:window-y="-8"
   inkscape:window-maximized="1"
   inkscape:current-layer="Calque_1"
   inkscape:snap-midpoints="true"
   inkscape:snap-intersection-paths="true"
   inkscape:object-paths="true"
   inkscape:snap-smooth-nodes="true"
   inkscape:snap-bbox="true"
   inkscape:bbox-paths="true"
   inkscape:bbox-nodes="true"
   inkscape:snap-bbox-edge-midpoints="true"
   inkscape:snap-bbox-midpoints="true"
   fit-margin-top="0"
   fit-margin-left="0"
   fit-margin-right="0"
   fit-margin-bottom="0" />
<style
   type="text/css"
   id="style2">
	.st0{fill:none;}
	.st1{fill:#FFFFFF;}
	.st2{fill:#E6332A;}
	.st3{fill:#3665B2;}
	.st4{fill:#F40205;}
	.st5{fill:#B8CBB1;}
	.st6{fill:#916150;}
	.st7{fill:#E54F2C;}
</style>
<path
   id="path4"
   d="m 193.08478,0 c -8.3,24.4 -23.5,49.50117 -57,81.20117 -42.000004,39.9 -52.199614,79.69922 -65.099614,130.19922 -7.3,28.6 -15.60039,61.09922 -31.40039,98.69922 C 16.284776,365.69961 4.3851657,412.6 0.98516573,462 -1.3148343,496 0.38360573,532.50078 6.3836057,573.80078 H 16.383606 c -6,-41.2 -7.8000003,-77.50117 -5.5,-111.20117 3.3,-48.3 15.00039,-94.19922 37.90039,-148.69922 16.1,-38.3 24.50039,-71.09961 31.90039,-100.09961 12.5,-48.9 22.400784,-87.50039 62.300784,-125.40039 C 179.24001,54.04319 195.04204,26.46977 203.54962,0 Z m 87.24414,0 c -4.78887,9.76318 -10.36824,19.131 -16.94531,27.80078 -14.6,19.3 -33.89961,35.19961 -52.59961,50.59961 -9.3,7.6 -18.79883,15.50078 -27.79883,23.80078 -30.5,28.1 -55.1,63.89844 -75,109.39844 -17.700004,40.4 -30.300004,84.80117 -42.500004,127.70117 -5.8,20.2 -11.70156,41.19961 -18.10156,61.59961 -12.8,40.5 -25.89922,94.29961 -13.69922,151.59961 1.5,7.2 2.90078,14.30078 4.30078,21.30078 h 10.09961 c -1.5,-7.7 -3.00117,-15.50039 -4.70117,-23.40039 -6.2,-28.9 -10.2,-71.6 13.5,-146.5 6.5,-20.5 12.40117,-41.50039 18.20117,-61.90039 C 100.18478,253.6 123.884,170.1 189.784,109.5 c 8.8,-8.1 18.20039,-15.90039 27.40039,-23.40039 19.1,-15.7 38.89922,-31.99883 54.19922,-52.29883 C 279.36105,23.23068 285.94567,11.86362 291.43634,0 Z m 35.63867,0 c -1.8965,12.26794 -4.09341,24.73166 -7.58398,36.59961 -8.4,28.3 -24.3,54.00117 -46,74.20117 -14.2,13.2 -30.99883,24.19883 -47.29883,34.79883 -20.7,13.5 -42.10039,27.40039 -58.90039,46.40039 -26.6,30 -35.99961,69.50117 -45.09961,107.70117 -5.9,24.8 -12.000784,50.49883 -22.800784,73.29883 -23.4,49.4 -32.79883,108.29961 -25.29883,157.59961 2.3942,15.46253 6.38182,29.72994 11.26563,43.20117 h 10.63281 c -5.3,-14.1 -9.6,-28.70039 -12,-44.90039 -7.2,-47.4 1.9,-104.10078 24.5,-151.80078 11.200004,-23.7 17.500004,-49.89922 23.500004,-75.19922 9.2,-38.7 17.90039,-75.20039 42.90039,-103.40039 15.9,-18 36.70078,-31.49961 56.80078,-44.59961 16.6,-10.8 33.79922,-22.00078 48.69922,-35.80078 23,-21.4 39.80078,-48.59961 48.80078,-78.59961 0.35387,-1.15006 0.55917,-2.33538 0.88477,-3.49414 V 0 Z m 3.00196,104.4668 c -18.51666,20.60675 -43.7145,34.97817 -67.98438,48.73437 -25.8,14.7 -52.50078,29.79883 -72.30078,52.79883 -29.1,33.7 -38.5,78.00039 -47.5,120.90039 -5.5,26.1 -11.20078,53.2 -21.30078,77.5 -2.2,5.2 -4.6,10.4 -7,15.5 -7.100004,15.3 -14.400004,31.1 -16.000004,48.5 -2.9,31.5 13.201174,59.40039 28.701174,86.40039 3.58116,6.16755 7.25726,12.53507 10.64258,19 h 11.15625 c -4.2,-8.2 -8.79844,-16.19961 -13.39844,-24.09961 -15.5,-26.8 -30.100394,-52.1 -27.400394,-80.5 1.4,-15.7 8.099614,-30.00117 15.099614,-45.20117 2.4,-5.2 4.89961,-10.50039 7.09961,-15.90039 10.5,-25.2 16.30039,-52.69922 21.90039,-79.19922 9.2,-43.5 17.80078,-84.60039 45.30078,-116.40039 18.7,-21.6 44.59922,-36.29961 69.69922,-50.59961 22.05004,-12.54571 44.76938,-25.51337 63.28516,-43.33203 z m 0,57.38671 c -11.59065,8.1799 -23.87268,15.64041 -35.88477,22.84766 -28.1,16.7 -57.20039,34 -76.40039,61.5 -16.6,23.6 -23.69961,51.8 -30.59961,79 -3.9,15.5 -8.00117,31.49883 -13.70117,46.29883 -3.2,8.4 -7.2,16.8 -11,25 -7.6,16.3 -15.49922,33.10039 -18.69922,51.40039 -7.6,43.2 11.5,83.50039 30,122.40039 0.58341,1.16681 1.07417,2.33319 1.65234,3.5 h 11.39844 c -1.1873,-2.56957 -2.46645,-5.23368 -3.75,-7.80078 -18.7,-39.3 -36.30117,-76.40039 -29.20117,-116.40039 3,-16.9 10.20039,-32.49844 17.90039,-48.89844 3.9,-8.3 7.89922,-16.90156 11.19922,-25.60156 5.9,-15.4 10.10156,-31.7 14.10156,-47.5 7,-27.6 13.59961,-53.59922 29.09961,-75.69922 18,-25.7 44.79883,-41.69961 73.29883,-58.59961 10.24617,-6.07516 20.6073,-12.37394 30.58594,-19.07617 z m 0,61.14454 c -2.46701,0.85016 -4.9232,1.68726 -7.38477,2.60156 -20.7,7.3 -42.10117,14.90117 -58.20117,30.70117 -18.1,17.8 -25.59883,42.30039 -32.79883,65.90039 -5.2,17.1 -10.69961,34.8 -20.09961,49.5 -2.9,4.6 -6.20156,8.79883 -9.60156,13.29883 -4.2,5.5 -8.49961,11.10078 -12.09961,17.30078 -13.4,23.1 -16.49961,54.10039 -8.59961,87.40039 5,21.1 13.49922,41.19922 21.69922,60.69922 2.9,6.8 5.80156,13.79922 8.60156,20.69922 0.38578,0.868 0.68139,1.74347 1.06055,2.70117 h 38.43945 c -2.9,-6.1 -6.00117,-12.1 -9.20117,-18 L 226.58478,548 c -8.3,-15.2 -16.79961,-30.89922 -20.09961,-47.69922 -7.2,-36.9 10.29844,-71.20039 28.89844,-107.40039 8.5,-16.5 17.3,-33.6 23.5,-51 1.4,-3.8 2.70039,-7.79961 3.90039,-11.59961 5.8,-17.6 11.70039,-35.80117 25.90039,-45.70117 6.7,-4.7 14.80078,-7.19883 23.30078,-9.79883 2.30489,-0.69845 4.64541,-1.47438 6.98438,-2.23633 v -10.66992 c -3.24367,1.17647 -6.50103,2.32254 -9.98438,3.40625 -8.9,2.8 -18,5.59922 -26,11.19922 -16.9,11.9 -23.40117,31.60078 -29.70117,50.80078 -1.2,3.8 -2.49883,7.69883 -3.79883,11.29883 -6,16.7 -14.60039,33.50117 -22.90039,49.70117 -18.6,36.2 -37.80039,73.60039 -29.90039,113.90039 3.6,18.2 12.49961,34.6 21.09961,50.5 1.4,2.6 2.80117,5.19922 4.20117,7.69922 2.3,4.4 4.59883,8.80078 6.79883,13.30078 h -16.59961 c -0.8,-2.2 -1.7,-4.3 -2.5,-6.5 -2.8,-7 -5.79922,-14.10039 -8.69922,-20.90039 -8,-19.1 -16.40117,-38.79961 -21.20117,-59.09961 -7.3,-30.8 -4.6,-59.20156 7.5,-80.10156 3.3,-5.6 7.20039,-10.79922 11.40039,-16.19922 3.4,-4.5 6.99961,-9.1 10.09961,-14 10.1,-15.8 15.80117,-34.20039 21.20117,-51.90039 7.2,-23.5 13.99883,-45.59922 30.29883,-61.69922 14.5,-14.3 33.9,-21.20039 54.5,-28.40039 1.37518,-0.47832 2.78162,-0.98707 4.18555,-1.49414 z m -78.98438,350.80273 h 27 c -3.3,-7.4 -6.4,-15.40117 -9,-22.20117 -2.9,-7.7 -5.30117,-13.79844 -7.20117,-16.89844 -1.4,-2.2 -2.79922,-4.50156 -4.19922,-6.60156 -5,-7.9 -9.80078,-15.29961 -12.30078,-23.59961 -3.4,-11.4 -2.29883,-23.69922 -0.79883,-34.19922 3.6,-24.8 10.99961,-50.50117 24.09961,-83.20117 9.7,-24.2 21.49922,-48.29883 42.69922,-60.79883 5.4,-3.2 11.59961,-5.80078 17.59961,-8.30078 0.37143,-0.14286 0.71684,-0.30251 1.08594,-0.45703 v -10.78906 c -1.55933,0.65991 -3.10371,1.33886 -4.68555,1.94726 -6.3,2.6 -12.90039,5.29844 -18.90039,8.89844 -23.7,14.1 -36.49883,39.90117 -46.79883,65.70117 -13.4,33.5 -21.10078,59.9 -24.80078,85.5 -1.7,11.6 -2.90039,25.3 1.09961,38.5 2.9,9.6 8.3,17.99961 13.5,26.09961 1.3,2.1 2.80156,4.30039 4.10156,6.40039 1.4,2.3 3.79883,8.59922 6.29883,15.19922 2.3,6.1 4.80039,12.50117 7.40039,18.70117 h -16.19922 z m 78.98438,-229.22851 c -4.00469,1.96055 -8.99239,4.63861 -16.08594,8.92773 -8.4,5 -22.8,14.20078 -25.5,17.30078 -14,16.1 -23.19844,37.70039 -25.89844,60.90039 -2.9,24.8 -7.8e-4,59 13.19922,79.5 0.9,1.5 2.49922,2.29883 4.19922,2.29883 h 0.60156 c 1.9,-0.2 3.49961,-1.50039 4.09961,-3.40039 2.6,-7.9 2.99883,-16.69961 3.29883,-25.09961 0.3,-6.7 0.5,-13.60039 2,-19.90039 5.5,-23.9 19.40156,-45.89961 33.60156,-66.09961 l 1.09961,-1.5 c 1.7732,-2.49561 3.58196,-5.21273 5.38477,-7.88086 v -18.875 c -3.85419,7.17409 -8.67846,14.1027 -13.48438,20.95703 l -1.10156,1.5 c -14.8,21.1 -29.29922,44.09961 -35.19922,69.59961 -1.7,7.1 -1.89922,14.59922 -2.19922,21.69922 -0.1,2.5 -0.20039,5.00039 -0.40039,7.40039 -6.2,-18.1 -7.29961,-41.19961 -5.09961,-59.09961 2.5,-21.2 10.9,-40.9 23.5,-55.5 2.80164,-2.89502 21.26484,-14.58987 33.98438,-21.52344 z m 0,80.5332 c -13.78314,25.93681 -25.15246,54.11305 -28.98438,84.39453 -0.3,3.5 -0.30078,10.80078 -0.30078,20.80078 0,12.7 0.0996,28.5 -0.90039,42 0,0.5 -0.0996,1 -0.0996,1.5 h 10 c 0.8,-11.3 1.00039,-25.7 0.90039,-43.5 0,-8.9 -10e-4,-16.6 0.29883,-19.5 2.80749,-22.18827 9.91806,-43.24897 19.08594,-63.23047 z"
   sodipodi:nodetypes="cccccccccccccccccccccccccccccccccccccsccccccccccccccccccccccccccccccccccccccccccccccccccccccccccccccccccccccccccccccccccccccccccccccccccccccccccccccccccccccccccscccccccccccccccccccsccccccc"
   style="fill:#dee7da;fill-opacity:1" />
</svg>
