<?xml version="1.0" encoding="UTF-8" standalone="no"?>
<!-- Generator: Adobe Illustrator 27.2.0, SVG Export Plug-In . SVG Version: 6.00 Build 0)  -->

<svg
   version="1.1"
   id="Calque_1"
   x="0px"
   y="0px"
   viewBox="0 0 3000 471.87119"
   xml:space="preserve"
   sodipodi:docname="nemosa_text_gray_orange.svg"
   inkscape:export-filename="C:\Users\marie\OneDrive\Documents\Création\Antoine-site-web\Logo_NEMOSA\SVG\NEMOSA_name.png"
   inkscape:export-xdpi="96"
   inkscape:export-ydpi="96"
   inkscape:version="1.1 (c68e22c387, 2021-05-23)"
   width="3000"
   height="471.87119"
   xmlns:inkscape="http://www.inkscape.org/namespaces/inkscape"
   xmlns:sodipodi="http://sodipodi.sourceforge.net/DTD/sodipodi-0.dtd"
   xmlns="http://www.w3.org/2000/svg"
   xmlns:svg="http://www.w3.org/2000/svg"><defs
   id="defs53">
	
	
	
	
	
	
	
	
	
</defs><sodipodi:namedview
   id="namedview51"
   pagecolor="#505050"
   bordercolor="#eeeeee"
   borderopacity="1"
   inkscape:pageshadow="0"
   inkscape:pageopacity="0"
   inkscape:pagecheckerboard="0"
   showgrid="false"
   inkscape:zoom="0.19071429"
   inkscape:cx="1502.2472"
   inkscape:cy="233.33333"
   inkscape:window-width="1920"
   inkscape:window-height="1009"
   inkscape:window-x="1912"
   inkscape:window-y="-8"
   inkscape:window-maximized="1"
   inkscape:current-layer="layer2"
   inkscape:snap-global="false"
   fit-margin-top="0"
   fit-margin-left="0"
   fit-margin-right="0"
   fit-margin-bottom="0" />
<style
   type="text/css"
   id="style2">
	.st0{fill:none;}
	.st1{fill:#FFFFFF;}
	.st2{fill:#E6332A;}
	.st3{fill:#3665B2;}
	.st4{fill:#F40205;}
	.st5{fill:#B8CBB1;}
	.st6{fill:#916150;}
	.st7{fill:#E54F2C;}
</style>
<g
   inkscape:groupmode="layer"
   id="layer1"
   inkscape:label="Layer 1"
   style="display:inline"
   transform="translate(-699.73153,-2306.3751)" /><g
   inkscape:groupmode="layer"
   id="layer2"
   inkscape:label="Layer 2"
   style="display:inline"
   transform="translate(-699.73153,-2306.3751)"><g
     id="g951"
     transform="matrix(3.4070121,0,0,3.4070121,359.945,799.41725)"
     style="stroke-width:0.293512"><path
       class="st1"
       d="m 99.73153,580.71068 v -134.1 h 42.3 l 37.5,52.5 v -52.5 h 50.4 v 134.2 h -42.5 l -37.3,-52.5 v 52.5 h -50.4 z"
       id="path36"
       style="display:inline;fill:#4f6d7a;fill-opacity:1;stroke-width:0.293512" /><path
       class="st1"
       d="m 251.69889,580.61068 v -134.1 h 107.3 v 36.3 h -56.9 v 12.1 h 49 v 37.5 h -49 v 12.1 h 56.9 v 36.3 h -107.3 z"
       id="path38"
       style="display:inline;fill:#4f6d7a;fill-opacity:1;stroke-width:0.293512" /><path
       class="st1"
       d="m 380.76624,580.81068 v -134.2 h 47.9 l 27.3,55.4 27.1,-55.4 h 47.9 v 134.2 h -50.4 v -47.1 l -11.9,24.2 h -25.6 l -11.9,-24.2 v 47.1 z"
       id="path40"
       style="display:inline;fill:#4f6d7a;fill-opacity:1;stroke-width:0.293512" /><path
       class="st1"
       d="m 759.10105,580.81068 c -9.4,0 -18.5,-0.8 -27.3,-2.4 -8.7,-1.6 -16.1,-3.9 -22.1,-7 v -37.7 c 6.5,3.2 13.9,5.8 22.1,7.9 8.2,2.1 15.5,3.1 21.9,3.1 4.2,0 7.4,-0.5 9.8,-1.6 2.4,-1 3.5,-2.5 3.5,-4.5 0,-2.5 -2.2,-4.4 -6.7,-5.8 -4.4,-1.4 -10.3,-3.4 -17.5,-6 -8.6,-3.3 -15.4,-6.8 -20.4,-10.4 -5,-3.6 -8.6,-8 -10.7,-13 -2.2,-5.1 -3.2,-11.4 -3.2,-19.1 0,-27.9 19.7,-41.9 59,-41.9 4.4,0 9.4,0.3 14.9,0.9 5.5,0.6 10.8,1.4 16,2.4 5.2,1 9.6,2 13.2,3.1 v 37.9 c -7.6,-3.2 -14.4,-5.3 -20.2,-6.5 -5.8,-1.1 -11,-1.7 -15.4,-1.7 -3.5,0 -7,0.3 -10.6,0.9 -3.6,0.6 -5.4,2.1 -5.4,4.3 0,1.8 1.6,3.2 4.8,4.3 3.2,1 8.3,2.5 15.2,4.5 11.1,3.1 19.4,6.7 25,10.9 5.6,4.2 9.3,9.2 11.1,15 1.9,5.8 2.8,12.4 2.8,19.9 0,12.8 -5,23 -15,30.7 -10,8 -24.9,11.8 -44.8,11.8 z"
       id="path44"
       style="display:inline;fill:#4f6d7a;fill-opacity:1;stroke-width:0.293512" /><path
       class="st1"
       d="m 824.66847,580.81068 51.7,-134.2 h 52.3 l 51.6,134.2 h -52.5 l -9.6,-25 h -31.5 l -9.6,25 z m 67.5,-59.3 h 20.4 l -10.2,-25.7 z"
       id="path46"
       style="display:inline;fill:#4f6d7a;fill-opacity:1;stroke-width:0.293512" /><path
       class="st6"
       d="m 691.73365,511.51068 c 0,16.8 -2.8,30.3 -8.6,40.5 -5.7,10.1 -13.9,17.4 -24.6,22 -10.7,4.5 -23.6,6.8 -38.8,6.8 -15.2,0 -28,-2.3 -38.8,-6.8 -10.7,-4.5 -18.9,-11.8 -24.6,-22 -5.7,-10.2 -8.6,-23.6 -8.6,-40.5 0,-16.9 2.9,-30.4 8.6,-40.5 5.7,-10.1 13.9,-17.4 24.6,-21.9 10.7,-4.5 23.6,-6.8 38.8,-6.8 15.2,0 28.1,2.3 38.8,6.8 10.7,4.5 18.9,11.8 24.6,21.9 5.8,10.1 8.6,23.6 8.6,40.5 z"
       id="path2575"
       style="display:inline;fill:#cb7c55;fill-opacity:1;stroke-width:0.293512" /></g></g><g
   inkscape:groupmode="layer"
   id="layer3"
   inkscape:label="Layer 3"
   style="display:none"
   transform="translate(-699.73153,-2306.3751)"><path
     class="st6"
     d="m 546.7,510.2 c 0,16.8 -2.8,30.3 -8.6,40.5 -5.7,10.1 -13.9,17.4 -24.6,22 -10.7,4.5 -23.6,6.8 -38.8,6.8 -15.2,0 -28,-2.3 -38.8,-6.8 -10.7,-4.5 -18.9,-11.8 -24.6,-22 -5.7,-10.2 -8.6,-23.6 -8.6,-40.5 0,-16.9 2.9,-30.4 8.6,-40.5 5.7,-10.1 13.9,-17.4 24.6,-21.9 10.7,-4.5 23.6,-6.8 38.8,-6.8 15.2,0 28.1,2.3 38.8,6.8 10.7,4.5 18.9,11.8 24.6,21.9 5.8,10.1 8.6,23.6 8.6,40.5 z"
     id="path2596"
     style="display:inline;fill:#cc7041;fill-opacity:1" /></g>
</svg>
