<?xml version="1.0" encoding="UTF-8" standalone="no"?>
<!-- Generator: Adobe Illustrator 27.2.0, SVG Export Plug-In . SVG Version: 6.00 Build 0)  -->

<svg
   version="1.1"
   id="Calque_1"
   x="0px"
   y="0px"
   viewBox="0 0 1080 1080"
   style="enable-background:new 0 0 1080 1080;"
   xml:space="preserve"
   sodipodi:docname="NEMOSA_TDB_Gray_white.svg"
   inkscape:export-filename="C:\laragon\www\nemosa\public\img\logo\NEMOSA_TDB_Gray.png"
   inkscape:export-xdpi="96"
   inkscape:export-ydpi="96"
   inkscape:version="1.1 (c68e22c387, 2021-05-23)"
   xmlns:inkscape="http://www.inkscape.org/namespaces/inkscape"
   xmlns:sodipodi="http://sodipodi.sourceforge.net/DTD/sodipodi-0.dtd"
   xmlns="http://www.w3.org/2000/svg"
   xmlns:svg="http://www.w3.org/2000/svg"><defs
   id="defs53">
	
	
	
	
	
	
	
	
	
</defs><sodipodi:namedview
   id="namedview51"
   pagecolor="#ffffff"
   bordercolor="#eeeeee"
   borderopacity="1"
   inkscape:pageshadow="0"
   inkscape:pageopacity="1"
   inkscape:pagecheckerboard="0"
   showgrid="false"
   inkscape:zoom="0.38148148"
   inkscape:cx="483.64078"
   inkscape:cy="61.601942"
   inkscape:window-width="1920"
   inkscape:window-height="1009"
   inkscape:window-x="1912"
   inkscape:window-y="-8"
   inkscape:window-maximized="1"
   inkscape:current-layer="g34" />
<style
   type="text/css"
   id="style2">
	.st0{fill:none;}
	.st1{fill:#FFFFFF;}
	.st2{fill:#E6332A;}
	.st3{fill:#3665B2;}
	.st4{fill:#F40205;}
	.st5{fill:#B8CBB1;}
	.st6{fill:#916150;}
	.st7{fill:#E54F2C;}
</style>
<path
   id="path6"
   style="fill:#4f6d7a;fill-opacity:1"
   d="M 201.30078 190.5 C 183.10078 190.5 168.30078 205.3 168.30078 223.5 L 168.30078 797.40039 C 168.30078 815.60039 183.10078 830.40039 201.30078 830.40039 L 878.80078 830.40039 C 880.10078 830.40039 881.29961 830.29922 882.59961 830.19922 C 899.09961 828.29922 911.80078 814.40039 911.80078 797.40039 L 911.80078 223.5 C 911.70078 220.2 911.30039 217.09922 910.40039 214.19922 C 908.70039 208.29922 905.30039 203 900.90039 199 C 897.10039 195.6 892.59961 192.99922 887.59961 191.69922 C 884.79961 190.89922 881.79922 190.5 878.69922 190.5 L 201.30078 190.5 z M 760.40039 223.40039 L 837.19922 223.40039 C 837.18254 223.43444 837.16123 223.46596 837.14453 223.5 L 848.25195 223.5 C 848.26748 223.46645 848.28527 223.43395 848.30078 223.40039 L 872.80078 223.40039 C 872.79566 223.43352 872.78833 223.46686 872.7832 223.5 L 878.80078 223.5 L 878.80078 247.5918 C 878.82836 247.4601 878.87306 247.33092 878.90039 247.19922 L 878.90039 324.5 C 878.86709 324.53805 878.83408 324.58108 878.80078 324.61914 L 878.80078 395.59961 L 878.80078 445.30078 L 878.80078 495.09961 L 878.80078 529 L 878.80078 797.40039 L 758.40039 797.40039 L 732.59961 797.40039 L 721.19922 797.40039 L 694.19922 797.40039 L 683.04297 797.40039 C 683.06078 797.43441 683.08181 797.46598 683.09961 797.5 L 641.69922 797.5 L 641.69922 797.40039 L 631.09961 797.40039 L 604.90039 797.40039 L 201.30078 797.40039 L 201.30078 797.30078 L 201.30078 223.5 L 749.90039 223.5 L 760.36523 223.5 C 760.37583 223.46703 760.38982 223.43336 760.40039 223.40039 z " /><rect
   x="201.3"
   y="223.5"
   class="st5"
   width="677.5"
   height="573.90002"
   id="rect4" /><g
   id="g34"
   style="fill:#4f6d7a;fill-opacity:1">
		<path
   class="st6"
   d="m 209.4,889 v -23.2 h -8.1 v -8.6 h 28.2 v 8.6 h -8.1 V 889 Z"
   id="path8"
   style="fill:#4f6d7a;fill-opacity:1" />
		<path
   class="st6"
   d="m 250.9,889 v -31.8 h 17.9 c 2.7,0 5,0.5 6.8,1.6 1.8,1 3.1,2.5 4,4.3 0.9,1.8 1.3,3.8 1.3,6.1 0,2.1 -0.6,4 -1.7,5.6 -1.1,1.6 -2.4,2.9 -4,4 0.4,0.2 0.6,0.5 0.8,0.8 0.2,0.3 0.4,0.6 0.5,0.9 l 3.8,8.7 h -12.5 l -3.1,-7.1 c -0.2,-0.4 -0.3,-0.7 -0.5,-0.8 -0.2,-0.1 -0.5,-0.2 -0.8,-0.2 h -0.5 v 8.1 h -12 z m 12,-17.4 h 2.9 c 1.9,0 2.9,-0.8 2.9,-2.5 0,-0.9 -0.2,-1.6 -0.7,-2 -0.4,-0.4 -1.1,-0.6 -2.1,-0.6 h -3.1 v 5.1 z"
   id="path10"
   style="fill:#4f6d7a;fill-opacity:1" />
		<path
   class="st6"
   d="m 299.9,889 12.3,-31.8 h 12.4 l 12.3,31.8 h -12.5 l -2.3,-5.9 h -7.5 l -2.3,5.9 z m 16,-14 h 4.8 l -2.4,-6.1 z"
   id="path12"
   style="fill:#4f6d7a;fill-opacity:1" />
		<path
   class="st6"
   d="m 363.7,889 -12.3,-31.8 h 12.5 l 6,17.7 6,-17.7 h 12.5 L 376.1,889 Z"
   id="path14"
   style="fill:#4f6d7a;fill-opacity:1" />
		<path
   class="st6"
   d="m 402.9,889 12.3,-31.8 h 12.4 l 12.3,31.8 h -12.5 l -2.3,-5.9 h -7.5 l -2.3,5.9 z m 16,-14 h 4.8 l -2.4,-6.1 z"
   id="path16"
   style="fill:#4f6d7a;fill-opacity:1" />
		<path
   class="st6"
   d="m 462.1,889 v -31.8 h 12 V 889 Z"
   id="path18"
   style="fill:#4f6d7a;fill-opacity:1" />
		<path
   class="st6"
   d="m 497.3,889 v -31.8 h 12 V 880 h 13 v 9.1 h -25 z"
   id="path20"
   style="fill:#4f6d7a;fill-opacity:1" />
		<path
   class="st6"
   d="m 573.1,889 v -31.8 h 15.1 c 3.4,0 6.3,0.5 8.7,1.6 2.5,1.1 4.4,2.8 5.7,5.1 1.4,2.4 2,5.5 2,9.4 0,3.7 -0.7,6.7 -2,9 -1.3,2.3 -3.2,4 -5.7,5.1 -2.5,1.1 -5.4,1.6 -8.8,1.6 z m 12,-9 h 1.8 c 1.2,0 2.2,-0.2 3.1,-0.5 0.9,-0.3 1.5,-1 2,-1.9 0.5,-1 0.7,-2.4 0.7,-4.2 0,-1.8 -0.2,-3.2 -0.6,-4.1 -0.4,-0.9 -1.1,-1.5 -1.9,-1.8 -0.8,-0.3 -1.9,-0.4 -3.2,-0.4 h -1.8 V 880 Z"
   id="path22"
   style="fill:#4f6d7a;fill-opacity:1" />
		<path
   class="st6"
   d="m 642.4,889.5 c -3,0 -5.7,-0.5 -8.1,-1.5 -2.4,-1 -4.3,-2.5 -5.7,-4.4 -1.4,-1.9 -2.1,-4.3 -2.1,-7.2 v -19.3 h 12 V 875 c 0,3 1.3,4.4 4,4.4 2.6,0 4,-1.5 4,-4.4 v -17.7 h 12 v 19.3 c 0,2.8 -0.7,5.2 -2.1,7.2 -1.4,1.9 -3.3,3.4 -5.7,4.4 -2.6,0.8 -5.3,1.3 -8.3,1.3 z"
   id="path24"
   style="fill:#4f6d7a;fill-opacity:1" />
		<path
   class="st6"
   d="m 710.7,889 v -31.8 h 18.9 c 3.3,0 5.8,0.8 7.6,2.3 1.8,1.5 2.7,3.8 2.7,6.7 0,1.6 -0.3,2.9 -0.8,4.1 -0.5,1.1 -1.3,2 -2.1,2.7 1.3,0.6 2.2,1.4 3,2.3 0.7,0.9 1.1,2.3 1.1,4.2 0,3 -1,5.4 -2.9,7.1 -2,1.7 -4.7,2.6 -8.2,2.6 H 710.7 Z M 722,869.4 h 4.4 c 1.6,0 2.4,-0.7 2.4,-2.1 0,-1.3 -0.8,-2 -2.4,-2 H 722 Z m 0,11.5 h 4.4 c 1.6,0 2.4,-0.7 2.4,-2.1 0,-1.3 -0.8,-2 -2.4,-2 H 722 Z"
   id="path26"
   style="fill:#4f6d7a;fill-opacity:1" />
		<path
   class="st6"
   d="m 779.1,889.5 c -3.6,0 -6.7,-0.5 -9.2,-1.6 -2.5,-1.1 -4.5,-2.8 -5.8,-5.2 -1.4,-2.4 -2,-5.6 -2,-9.6 0,-4 0.7,-7.2 2,-9.6 1.4,-2.4 3.3,-4.1 5.8,-5.2 2.5,-1.1 5.6,-1.6 9.2,-1.6 3.6,0 6.7,0.5 9.2,1.6 2.5,1.1 4.5,2.8 5.8,5.2 1.4,2.4 2,5.6 2,9.6 0,4 -0.7,7.2 -2,9.6 -1.4,2.4 -3.3,4.1 -5.8,5.2 -2.6,1.1 -5.7,1.6 -9.2,1.6 z m 0,-10.1 c 1.7,0 3,-0.5 3.7,-1.4 0.7,-0.9 1.1,-2.6 1.1,-4.9 0,-2.3 -0.4,-3.9 -1.1,-4.9 -0.7,-0.9 -2,-1.4 -3.7,-1.4 -1.7,0 -3,0.5 -3.7,1.4 -0.7,0.9 -1.1,2.6 -1.1,4.9 0,2.3 0.4,3.9 1.1,4.9 0.7,0.9 1.9,1.4 3.7,1.4 z"
   id="path28"
   style="fill:#4f6d7a;fill-opacity:1" />
		<path
   class="st6"
   d="m 818.3,889 v -31.8 h 12 V 889 Z"
   id="path30"
   style="fill:#4f6d7a;fill-opacity:1" />
		<path
   class="st6"
   d="m 864.6,889.5 c -2.2,0 -4.4,-0.2 -6.5,-0.6 -2.1,-0.4 -3.8,-0.9 -5.2,-1.7 v -8.9 c 1.5,0.8 3.3,1.4 5.2,1.9 1.9,0.5 3.7,0.7 5.2,0.7 1,0 1.8,-0.1 2.3,-0.4 0.6,-0.2 0.8,-0.6 0.8,-1.1 0,-0.6 -0.5,-1.1 -1.6,-1.4 -1.1,-0.3 -2.4,-0.8 -4.2,-1.4 -2,-0.8 -3.7,-1.6 -4.8,-2.5 -1.2,-0.9 -2,-1.9 -2.5,-3.1 -0.5,-1.2 -0.8,-2.7 -0.8,-4.5 0,-6.6 4.7,-9.9 14,-9.9 1.1,0 2.2,0.1 3.5,0.2 1.3,0.1 2.6,0.3 3.8,0.6 1.2,0.2 2.3,0.5 3.1,0.7 v 9 c -1.8,-0.8 -3.4,-1.3 -4.8,-1.5 -1.4,-0.3 -2.6,-0.4 -3.7,-0.4 -0.8,0 -1.7,0.1 -2.5,0.2 -0.9,0.1 -1.3,0.5 -1.3,1 0,0.4 0.4,0.8 1.1,1 0.8,0.2 2,0.6 3.6,1.1 2.6,0.7 4.6,1.6 5.9,2.6 1.3,1 2.2,2.2 2.6,3.6 0.4,1.4 0.7,2.9 0.7,4.7 0,3 -1.2,5.5 -3.6,7.3 -2.1,1.9 -5.6,2.8 -10.3,2.8 z"
   id="path32"
   style="fill:#4f6d7a;fill-opacity:1" />
	</g><path
   class="st1"
   d="M 242.4,397.6 V 263.5 h 42.3 l 37.5,52.5 v -52.5 h 50.4 v 134.2 h -42.5 l -37.3,-52.5 v 52.5 h -50.4 z"
   id="path36" /><path
   class="st1"
   d="M 404.5,397.6 V 263.5 h 107.3 v 36.3 h -56.9 v 12.1 h 49 v 37.5 h -49 v 12.1 h 56.9 v 36.3 H 404.5 Z"
   id="path38" /><path
   class="st1"
   d="M 242.4,577.3 V 443.1 h 47.9 l 27.3,55.4 27.1,-55.4 h 47.9 v 134.2 h -50.4 v -47.1 l -11.9,24.2 h -25.6 l -11.9,-24.2 v 47.1 z"
   id="path40" /><path
   class="st6"
   d="m 546.7,510.2 c 0,16.8 -2.8,30.3 -8.6,40.5 -5.7,10.1 -13.9,17.4 -24.6,22 -10.7,4.5 -23.6,6.8 -38.8,6.8 -15.2,0 -28,-2.3 -38.8,-6.8 -10.7,-4.5 -18.9,-11.8 -24.6,-22 -5.7,-10.2 -8.6,-23.6 -8.6,-40.5 0,-16.9 2.9,-30.4 8.6,-40.5 5.7,-10.1 13.9,-17.4 24.6,-21.9 10.7,-4.5 23.6,-6.8 38.8,-6.8 15.2,0 28.1,2.3 38.8,6.8 10.7,4.5 18.9,11.8 24.6,21.9 5.8,10.1 8.6,23.6 8.6,40.5 z"
   id="path42"
   style="fill:#cb7c55;fill-opacity:1" /><path
   class="st1"
   d="m 288.8,761.1 c -9.4,0 -18.5,-0.8 -27.3,-2.4 -8.7,-1.6 -16.1,-3.9 -22.1,-7 V 714 c 6.5,3.2 13.9,5.8 22.1,7.9 8.2,2.1 15.5,3.1 21.9,3.1 4.2,0 7.4,-0.5 9.8,-1.6 2.4,-1 3.5,-2.5 3.5,-4.5 0,-2.5 -2.2,-4.4 -6.7,-5.8 -4.4,-1.4 -10.3,-3.4 -17.5,-6 -8.6,-3.3 -15.4,-6.8 -20.4,-10.4 -5,-3.6 -8.6,-8 -10.7,-13 -2.2,-5.1 -3.2,-11.4 -3.2,-19.1 0,-27.9 19.7,-41.9 59,-41.9 4.4,0 9.4,0.3 14.9,0.9 5.5,0.6 10.8,1.4 16,2.4 5.2,1 9.6,2 13.2,3.1 V 667 c -7.6,-3.2 -14.4,-5.3 -20.2,-6.5 -5.8,-1.1 -11,-1.7 -15.4,-1.7 -3.5,0 -7,0.3 -10.6,0.9 -3.6,0.6 -5.4,2.1 -5.4,4.3 0,1.8 1.6,3.2 4.8,4.3 3.2,1 8.3,2.5 15.2,4.5 11.1,3.1 19.4,6.7 25,10.9 5.6,4.2 9.3,9.2 11.1,15 1.9,5.8 2.8,12.4 2.8,19.9 0,12.8 -5,23 -15,30.7 -10,8 -24.9,11.8 -44.8,11.8 z"
   id="path44" /><path
   class="st1"
   d="m 362.9,759 51.7,-134.2 h 52.3 L 518.5,759 H 466 l -9.6,-25 h -31.5 l -9.6,25 z m 67.5,-59.3 h 20.4 L 440.6,674 Z"
   id="path46" />
<path
   id="path2278"
   style="fill:#ffffff;fill-opacity:1"
   d="M 749.90039 223.5 C 741.60039 247.9 726.40039 272.99922 692.90039 304.69922 C 650.90039 344.59922 640.70078 384.40039 627.80078 434.90039 C 620.50078 463.50039 612.20039 495.99961 596.40039 533.59961 C 573.10039 589.19961 561.20078 636.1 557.80078 685.5 C 555.50078 719.5 557.19922 756.00078 563.19922 797.30078 L 201.30078 797.30078 L 201.30078 797.40039 L 604.90039 797.40039 L 604.90039 797.30078 C 603.40039 789.60078 601.89922 781.80039 600.19922 773.90039 C 593.99922 745.00039 589.99922 702.30039 613.69922 627.40039 C 620.19922 606.90039 626.10039 585.9 631.90039 565.5 C 657.00039 477.1 680.69961 393.6 746.59961 333 C 755.39961 324.9 764.8 317.09961 774 309.59961 C 793.1 293.89961 812.89922 277.60078 828.19922 257.30078 C 836.17666 246.73068 842.76128 235.36362 848.25195 223.5 L 837.14453 223.5 C 832.35567 233.26318 826.77629 242.63101 820.19922 251.30078 C 805.59922 270.60078 786.29961 286.50039 767.59961 301.90039 C 758.29961 309.50039 748.80078 317.39922 739.80078 325.69922 C 709.30078 353.79922 684.70078 389.59961 664.80078 435.09961 C 647.10078 475.49961 634.50078 519.90078 622.30078 562.80078 C 616.50078 583.00078 610.59922 604.00039 604.19922 624.40039 C 591.39922 664.90039 578.3 718.7 590.5 776 C 592 783.2 593.40078 790.30078 594.80078 797.30078 L 573.19922 797.30078 C 567.19922 756.10078 565.39922 719.79961 567.69922 686.09961 C 570.99922 637.79961 582.69961 591.90039 605.59961 537.40039 C 621.69961 499.10039 630.1 466.30078 637.5 437.30078 C 650 388.40078 659.90078 349.80039 699.80078 311.90039 C 736.05562 277.54319 751.85765 249.96978 760.36523 223.5 L 749.90039 223.5 z M 872.7832 223.5 C 870.8867 235.76794 868.68979 248.23166 865.19922 260.09961 C 856.79922 288.39961 840.89922 314.10078 819.19922 334.30078 C 804.99922 347.50078 788.20039 358.49961 771.90039 369.09961 C 751.20039 382.59961 729.8 396.5 713 415.5 C 686.4 445.5 677.00039 484.99922 667.90039 523.19922 C 662.00039 547.99922 655.89961 573.7 645.09961 596.5 C 621.69961 645.9 612.30078 704.79961 619.80078 754.09961 C 622.20078 769.59961 626.19961 783.90039 631.09961 797.40039 L 641.69922 797.40039 L 641.69922 797.30078 C 636.39922 783.20078 632.09922 768.60039 629.69922 752.40039 C 622.49922 705.00039 631.59922 648.29961 654.19922 600.59961 C 665.39922 576.89961 671.69922 550.70039 677.69922 525.40039 C 686.89922 486.70039 695.59961 450.2 720.59961 422 C 736.49961 404 757.30039 390.50039 777.40039 377.40039 C 794.00039 366.60039 811.19961 355.39961 826.09961 341.59961 C 849.09961 320.19961 865.90039 293 874.90039 263 C 876.46063 257.92921 877.71836 252.76004 878.80078 247.5918 L 878.80078 223.5 L 872.7832 223.5 z M 878.80078 324.61914 C 878.13408 325.3813 877.46748 326.14281 876.80078 327 C 858.20078 348.2 832.50078 362.80078 807.80078 376.80078 C 782.00078 391.50078 755.3 406.59961 735.5 429.59961 C 706.4 463.29961 697 507.6 688 550.5 C 682.5 576.6 676.79922 603.7 666.69922 628 C 664.49922 633.2 662.09922 638.4 659.69922 643.5 C 652.59922 658.8 645.29922 674.6 643.69922 692 C 640.79922 723.5 656.90039 751.40039 672.40039 778.40039 C 675.98155 784.56794 679.65765 790.93546 683.04297 797.40039 L 694.19922 797.40039 L 694.19922 797.30078 C 689.99922 789.10078 685.40078 781.09922 680.80078 773.19922 C 665.30078 746.39922 650.70039 721.09922 653.40039 692.69922 C 654.80039 676.99922 661.5 662.7 668.5 647.5 C 670.9 642.3 673.39961 636.99961 675.59961 631.59961 C 686.09961 606.39961 691.9 578.90039 697.5 552.40039 C 706.7 508.90039 715.30078 467.8 742.80078 436 C 761.50078 414.4 787.4 399.70039 812.5 385.40039 C 835.7 372.20039 859.69922 358.60078 878.69922 339.30078 L 878.69922 383.40039 C 866.29922 392.40039 852.90039 400.39922 839.90039 408.19922 C 811.80039 424.89922 782.7 442.19922 763.5 469.69922 C 746.9 493.29922 739.80039 521.49922 732.90039 548.69922 C 729.00039 564.19922 724.89922 580.2 719.19922 595 C 715.99922 603.4 711.99922 611.8 708.19922 620 C 700.59922 636.3 692.7 653.10039 689.5 671.40039 C 681.9 714.60039 701 754.90078 719.5 793.80078 C 720.1 795.00078 720.59922 796.20039 721.19922 797.40039 L 732.59961 797.40039 C 731.39961 794.80039 730.10078 792.1 728.80078 789.5 C 710.00078 750.1 692.4 713 699.5 673 C 702.5 656.1 709.70039 640.49961 717.40039 624.09961 C 721.30039 615.79961 725.29961 607.2 728.59961 598.5 C 734.49961 583.1 738.69922 566.8 742.69922 551 C 749.69922 523.4 756.30078 497.40078 771.80078 475.30078 C 789.80078 449.60078 816.59961 433.59922 845.09961 416.69922 C 856.39961 409.99922 867.90078 403.09961 878.80078 395.59961 L 878.80078 324.61914 z M 878.80078 445.30078 C 875.30078 446.60078 871.90039 447.79961 868.40039 449.09961 C 847.70039 456.39961 826.29922 464.00078 810.19922 479.80078 C 792.09922 497.60078 784.60039 522.09922 777.40039 545.69922 C 772.20039 562.79922 766.70078 580.49922 757.30078 595.19922 C 754.40078 599.79922 751.09922 604 747.69922 608.5 C 743.49922 614 739.19961 619.60078 735.59961 625.80078 C 722.19961 648.90078 719.1 679.89922 727 713.19922 C 732 734.29922 740.49922 754.40039 748.69922 773.90039 C 751.59922 780.70039 754.50078 787.69961 757.30078 794.59961 C 757.70078 795.49961 758.00039 796.40039 758.40039 797.40039 L 878.80078 797.40039 L 878.80078 529 C 876.30078 530.1 873.69961 531.19922 871.09961 532.19922 C 864.79961 534.79922 858.19922 537.49961 852.19922 541.09961 C 828.49922 555.19961 815.70039 581.00078 805.40039 606.80078 C 792.00039 640.30078 784.29961 666.70078 780.59961 692.30078 C 778.89961 703.90078 777.69922 717.60078 781.69922 730.80078 C 784.59922 740.40078 789.99922 748.80039 795.19922 756.90039 C 796.49922 759.00039 798.00078 761.20078 799.30078 763.30078 C 800.70078 765.60078 803.09961 771.9 805.59961 778.5 C 807.89961 784.6 810.4 790.99922 813 797.19922 L 796.80078 797.19922 L 796.80078 797.30078 C 793.90078 791.20078 790.79961 785.20078 787.59961 779.30078 L 783.40039 771.5 C 775.10039 756.3 766.60078 740.60078 763.30078 723.80078 C 756.10078 686.90078 773.59922 652.60039 792.19922 616.40039 C 800.69922 599.90039 809.49922 582.80039 815.69922 565.40039 C 817.09922 561.60039 818.39961 557.60078 819.59961 553.80078 C 825.39961 536.20078 831.3 517.99961 845.5 508.09961 C 852.2 503.39961 860.30078 500.90078 868.80078 498.30078 C 872.10078 497.30078 875.40078 496.19961 878.80078 495.09961 L 878.80078 445.30078 z M 878.59961 455.90039 L 878.59961 484.40039 L 878.69922 484.40039 C 874.59922 486.00039 870.30078 487.40078 865.80078 488.80078 C 856.90078 491.60078 847.80078 494.4 839.80078 500 C 822.90078 511.9 816.39961 531.60078 810.09961 550.80078 C 808.89961 554.60078 807.60078 558.49961 806.30078 562.09961 C 800.30078 578.79961 791.70039 595.60078 783.40039 611.80078 C 764.80039 648.00078 745.6 685.39922 753.5 725.69922 C 757.1 743.89922 765.99961 760.29922 774.59961 776.19922 C 775.99961 778.79922 777.40078 781.40039 778.80078 783.90039 C 781.10078 788.30039 783.39961 792.69922 785.59961 797.19922 L 769 797.19922 C 768.2 794.99922 767.3 792.89922 766.5 790.69922 C 763.7 783.69922 760.70078 776.60078 757.80078 769.80078 C 749.80078 750.70078 741.39961 730.99922 736.59961 710.69922 C 729.29961 679.89922 731.99961 651.49961 744.09961 630.59961 C 747.39961 624.99961 751.3 619.80039 755.5 614.40039 C 758.9 609.90039 762.49961 605.30039 765.59961 600.40039 C 775.69961 584.60039 781.40078 566.2 786.80078 548.5 C 794.00078 525 800.79961 502.90078 817.09961 486.80078 C 831.59961 472.50078 850.99961 465.60039 871.59961 458.40039 C 873.89961 457.60039 876.29961 456.70039 878.59961 455.90039 z M 878.5 539.90039 L 878.5 566.69922 C 874.3 568.59922 868.29922 571.8 859.69922 577 C 851.29922 582 836.89922 591.20078 834.19922 594.30078 C 820.19922 610.40078 811.00078 631.99922 808.30078 655.19922 C 805.40078 679.99922 808.3 714.19922 821.5 734.69922 C 822.4 736.19922 823.99922 737 825.69922 737 L 826.30078 737 C 828.20078 736.8 829.80039 735.49961 830.40039 733.59961 C 833.00039 725.69961 833.39922 716.9 833.69922 708.5 C 833.99922 701.8 834.19922 694.89961 835.69922 688.59961 C 841.19922 664.69961 855.10078 642.7 869.30078 622.5 L 870.40039 621 C 873.10039 617.2 875.89961 613.2 878.59961 609 L 878.59961 643.09961 C 863.59961 670.59961 851 700.6 847 733 C 846.5 736.5 846.5 743.80078 846.5 753.80078 C 846.5 766.50078 846.59961 782.30078 845.59961 795.80078 C 845.59961 796.30078 845.5 796.80078 845.5 797.30078 L 823.80078 797.30078 C 820.50078 789.90078 817.40078 781.89961 814.80078 775.09961 C 811.90078 767.39961 809.49961 761.29922 807.59961 758.19922 C 806.19961 755.99922 804.80039 753.69961 803.40039 751.59961 C 798.40039 743.69961 793.59961 736.3 791.09961 728 C 787.69961 716.6 788.80078 704.30078 790.30078 693.80078 C 793.90078 669.00078 801.30039 643.29961 814.40039 610.59961 C 824.10039 586.39961 835.89961 562.30078 857.09961 549.80078 C 862.49961 546.60078 868.69922 544 874.69922 541.5 C 875.99922 541 877.3 540.40039 878.5 539.90039 z M 878.59961 577.69922 L 878.59961 588.40039 L 878.69922 588.40039 C 874.59922 597.70039 868.40078 606.49922 862.30078 615.19922 L 861.19922 616.69922 C 846.39922 637.79922 831.9 660.80078 826 686.30078 C 824.3 693.40078 824.10078 700.9 823.80078 708 C 823.70078 710.5 823.60039 713.00039 823.40039 715.40039 C 817.20039 697.30039 816.10078 674.20078 818.30078 656.30078 C 820.80078 635.10078 829.20078 615.40078 841.80078 600.80078 C 844.80078 597.70078 865.99961 584.29922 878.59961 577.69922 z M 878.59961 664.80078 L 878.59961 770.5 L 878.69922 770.5 C 876.79922 779.4 875.40039 788.30078 874.40039 797.30078 L 855.5 797.30078 C 856.3 786.00078 856.50039 771.60078 856.40039 753.80078 C 856.40039 744.90078 856.39922 737.20078 856.69922 734.30078 C 859.79922 709.80078 867.99961 686.60078 878.59961 664.80078 z " /></svg>
