<?xml version="1.0" encoding="UTF-8" standalone="no"?>
<!-- Generator: Adobe Illustrator 27.2.0, SVG Export Plug-In . SVG Version: 6.00 Build 0)  -->

<svg
   version="1.1"
   id="Calque_1"
   x="0px"
   y="0px"
   viewBox="0 0 3000 471.87119"
   xml:space="preserve"
   sodipodi:docname="nemosa_text_gray_orange.svg"
   inkscape:export-filename="C:\Users\marie\OneDrive\Documents\Création\Antoine-site-web\Logo_NEMOSA\SVG\NEMOSA_name.png"
   inkscape:export-xdpi="96"
   inkscape:export-ydpi="96"
   inkscape:version="1.1 (c68e22c387, 2021-05-23)"
   width="3000"
   height="471.87119"
   xmlns:inkscape="http://www.inkscape.org/namespaces/inkscape"
   xmlns:sodipodi="http://sodipodi.sourceforge.net/DTD/sodipodi-0.dtd"
   xmlns="http://www.w3.org/2000/svg"
   xmlns:svg="http://www.w3.org/2000/svg"><defs
   id="defs53">
	
	
	
	
	
	
	
	
	
</defs><sodipodi:namedview
   id="namedview51"
   pagecolor="#505050"
   bordercolor="#eeeeee"
   borderopacity="1"
   inkscape:pageshadow="0"
   inkscape:pageopacity="0"
   inkscape:pagecheckerboard="0"
   showgrid="false"
   inkscape:zoom="0.19071429"
   inkscape:cx="1502.2472"
   inkscape:cy="233.33333"
   inkscape:window-width="1920"
   inkscape:window-height="1009"
   inkscape:window-x="1912"
   inkscape:window-y="-8"
   inkscape:window-maximized="1"
   inkscape:current-layer="layer1"
   inkscape:snap-global="false"
   fit-margin-top="0"
   fit-margin-left="0"
   fit-margin-right="0"
   fit-margin-bottom="0" />
<style
   type="text/css"
   id="style2">
	.st0{fill:none;}
	.st1{fill:#FFFFFF;}
	.st2{fill:#E6332A;}
	.st3{fill:#3665B2;}
	.st4{fill:#F40205;}
	.st5{fill:#B8CBB1;}
	.st6{fill:#916150;}
	.st7{fill:#E54F2C;}
</style>
<g
   inkscape:groupmode="layer"
   id="layer1"
   inkscape:label="Layer 1"
   style="display:inline"
   transform="translate(-699.73153,-2306.3751)"><path
     class="st6"
     d="m 2716.6899,2542.1403 c 0,57.2378 -9.5396,103.2325 -29.3003,137.984 -19.42,34.4108 -47.3575,59.282 -83.8125,74.9543 -36.455,15.3315 -80.4055,23.1677 -132.1921,23.1677 -51.7865,0 -95.3963,-7.8362 -132.192,-23.1677 -36.4551,-15.3316 -64.3926,-40.2028 -83.8125,-74.9543 -19.42,-34.7515 -29.3003,-80.4055 -29.3003,-137.984 0,-57.5785 9.8803,-103.5731 29.3003,-137.984 19.4199,-34.4108 47.3574,-59.282 83.8125,-74.6135 36.455,-15.3316 80.4055,-23.1677 132.192,-23.1677 51.7866,0 95.7371,7.8361 132.1921,23.1677 36.455,15.3315 64.3925,40.2027 83.8125,74.6135 19.7607,34.4109 29.3003,80.4055 29.3003,137.984 z"
     id="path2575"
     style="display:inline;fill:#cb7c55;fill-opacity:1;stroke-width:0.999999" /></g><g
   inkscape:groupmode="layer"
   id="layer2"
   inkscape:label="Layer 2"
   style="display:inline"
   transform="translate(-699.73153,-2306.3751)"><path
     class="st1"
     d="m 699.73153,2777.9056 v -456.8804 h 144.11661 l 127.76296,178.8682 v -178.8682 h 171.7134 v 457.2211 H 998.52649 L 871.44494,2599.3781 v 178.8682 H 699.73153 Z"
     id="path36"
     style="display:inline;fill:#4f6d7a;fill-opacity:1;stroke-width:0.999999" /><path
     class="st1"
     d="m 1217.4862,2777.5649 v -456.8804 h 365.5724 v 123.6746 h -193.859 v 41.2248 h 166.9436 v 127.763 h -166.9436 v 41.2248 h 193.859 v 123.6746 h -365.5724 z"
     id="path38"
     style="display:inline;fill:#4f6d7a;fill-opacity:1;stroke-width:0.999999" /><path
     class="st1"
     d="m 1657.2202,2778.2463 v -457.2211 h 163.1959 l 93.0114,188.7485 92.33,-188.7485 h 163.1959 v 457.2211 H 1997.24 V 2617.776 l -40.5434,82.4497 h -87.2196 l -40.5434,-82.4497 v 160.4703 z"
     id="path40"
     style="display:inline;fill:#4f6d7a;fill-opacity:1;stroke-width:0.999999" /><path
     class="st1"
     d="m 2946.2115,2778.2463 c -32.026,0 -63.0298,-2.7256 -93.0115,-8.1769 -29.641,-5.4512 -54.8529,-13.2873 -75.2949,-23.849 V 2617.776 c 22.1455,10.9024 47.3574,19.7607 75.2949,26.9154 27.9375,7.1547 52.8087,10.5617 74.6136,10.5617 14.3094,0 25.2119,-1.7035 33.3887,-5.4512 8.1768,-3.407 11.9246,-8.5175 11.9246,-15.3315 0,-8.5176 -7.4955,-14.9909 -22.827,-19.7607 -14.9909,-4.7698 -35.0922,-11.5839 -59.6227,-20.4421 -29.3003,-11.2431 -52.468,-23.1677 -69.5031,-35.4329 -17.035,-12.2653 -29.3003,-27.2561 -36.455,-44.2912 -7.4954,-17.3757 -10.9024,-38.8399 -10.9024,-65.0739 0,-95.0556 67.1181,-142.7538 201.0137,-142.7538 14.9908,0 32.0259,1.0221 50.7644,3.0663 18.7386,2.0442 36.7958,4.7698 54.5122,8.1768 17.7165,3.407 32.7074,6.8141 44.9726,10.5618 v 129.1257 c -25.8933,-10.9024 -49.061,-18.0571 -68.8216,-22.1456 -19.7607,-3.7477 -37.4772,-5.7919 -52.468,-5.7919 -11.9246,0 -23.8491,1.0221 -36.1144,3.0663 -12.2652,2.0442 -18.3978,7.1548 -18.3978,14.6502 0,6.1326 5.4512,10.9024 16.3536,14.6501 10.9025,3.4071 28.2782,8.5176 51.7866,15.3316 37.8178,10.5617 66.0961,22.827 85.1753,37.1364 19.0793,14.3095 31.6852,31.3445 37.8179,51.1052 6.4733,19.7607 9.5396,42.247 9.5396,67.7996 0,43.6097 -17.0351,78.3612 -51.1052,104.5952 -34.0701,27.2561 -84.8346,40.2028 -152.6341,40.2028 z"
     id="path44"
     style="display:inline;fill:#4f6d7a;fill-opacity:1;stroke-width:0.999999" /><path
     class="st1"
     d="m 3169.6005,2778.2463 176.1425,-457.2211 h 178.1867 l 175.8018,457.2211 h -178.8681 l -32.7073,-85.1753 h -107.3209 l -32.7073,85.1753 z m 229.9733,-202.0359 h 69.503 l -34.7515,-87.5602 z"
     id="path46"
     style="display:inline;fill:#4f6d7a;fill-opacity:1;stroke-width:0.999999" /></g><g
   inkscape:groupmode="layer"
   id="layer3"
   inkscape:label="Layer 3"
   style="display:none"
   transform="translate(-699.73153,-2306.3751)"><path
     class="st6"
     d="m 546.7,510.2 c 0,16.8 -2.8,30.3 -8.6,40.5 -5.7,10.1 -13.9,17.4 -24.6,22 -10.7,4.5 -23.6,6.8 -38.8,6.8 -15.2,0 -28,-2.3 -38.8,-6.8 -10.7,-4.5 -18.9,-11.8 -24.6,-22 -5.7,-10.2 -8.6,-23.6 -8.6,-40.5 0,-16.9 2.9,-30.4 8.6,-40.5 5.7,-10.1 13.9,-17.4 24.6,-21.9 10.7,-4.5 23.6,-6.8 38.8,-6.8 15.2,0 28.1,2.3 38.8,6.8 10.7,4.5 18.9,11.8 24.6,21.9 5.8,10.1 8.6,23.6 8.6,40.5 z"
     id="path2596"
     style="display:inline;fill:#cc7041;fill-opacity:1" /></g>
</svg>
