<?xml version="1.0" encoding="utf-8"?>
<!-- Generator: Adobe Illustrator 27.2.0, SVG Export Plug-In . SVG Version: 6.00 Build 0)  -->
<svg version="1.1" id="Calque_1" xmlns="http://www.w3.org/2000/svg" xmlns:xlink="http://www.w3.org/1999/xlink" x="0px" y="0px"
	 viewBox="0 0 1080 1080" style="enable-background:new 0 0 1080 1080;" xml:space="preserve">
<style type="text/css">
	.st0{fill:none;}
	.st1{fill:#FFFFFF;}
	.st2{fill:#E6332A;}
	.st3{fill:#3665B2;}
	.st4{fill:#F40205;}
	.st5{fill:#B8CBB1;}
	.st6{fill:#916150;}
	.st7{fill:#E54F2C;}
</style>
<g>
	<path d="M910.4,214.2c-1.7-5.9-5.1-11.2-9.5-15.2c-3.8-3.4-8.3-6-13.3-7.3c-2.8-0.8-5.8-1.2-8.9-1.2H201.3c-18.2,0-33,14.8-33,33
		v573.9c0,18.2,14.8,33,33,33h677.5c1.3,0,2.5-0.1,3.8-0.2c16.5-1.9,29.2-15.8,29.2-32.8V223.5C911.7,220.2,911.3,217.1,910.4,214.2
		z M201.3,797.3V223.5h548.6c-8.3,24.4-23.5,49.5-57,81.2c-42,39.9-52.2,79.7-65.1,130.2c-7.3,28.6-15.6,61.1-31.4,98.7
		c-23.3,55.6-35.2,102.5-38.6,151.9c-2.3,34-0.6,70.5,5.4,111.8H201.3z M573.2,797.3c-6-41.2-7.8-77.5-5.5-111.2
		c3.3-48.3,15-94.2,37.9-148.7c16.1-38.3,24.5-71.1,31.9-100.1c12.5-48.9,22.4-87.5,62.3-125.4c36.3-34.4,52.1-62,60.6-88.5h76.8
		c-4.8,9.8-10.4,19.2-17,27.9c-14.6,19.3-33.9,35.2-52.6,50.6c-9.3,7.6-18.8,15.5-27.8,23.8c-30.5,28.1-55.1,63.9-75,109.4
		c-17.7,40.4-30.3,84.8-42.5,127.7c-5.8,20.2-11.7,41.2-18.1,61.6c-12.8,40.5-25.9,94.3-13.7,151.6c1.5,7.2,2.9,14.3,4.3,21.3H573.2
		z M604.9,797.3c-1.5-7.7-3-15.5-4.7-23.4C594,745,590,702.3,613.7,627.4c6.5-20.5,12.4-41.5,18.2-61.9
		c25.1-88.4,48.8-171.9,114.7-232.5c8.8-8.1,18.2-15.9,27.4-23.4c19.1-15.7,38.9-32,54.2-52.3c8-10.6,14.6-22,20.1-33.9h24.5
		c-1.9,12.3-4.1,24.8-7.6,36.7c-8.4,28.3-24.3,54-46,74.2c-14.2,13.2-31,24.2-47.3,34.8c-20.7,13.5-42.1,27.4-58.9,46.4
		c-26.6,30-36,69.5-45.1,107.7c-5.9,24.8-12,50.5-22.8,73.3c-23.4,49.4-32.8,108.3-25.3,157.6c2.4,15.5,6.4,29.8,11.3,43.3H604.9z
		 M641.7,797.3c-5.3-14.1-9.6-28.7-12-44.9c-7.2-47.4,1.9-104.1,24.5-151.8c11.2-23.7,17.5-49.9,23.5-75.2
		c9.2-38.7,17.9-75.2,42.9-103.4c15.9-18,36.7-31.5,56.8-44.6c16.6-10.8,33.8-22,48.7-35.8c23-21.4,39.8-48.6,48.8-78.6
		c1.6-5.2,2.9-10.5,4-15.8v77.3c-0.7,0.8-1.4,1.6-2.1,2.5c-18.6,21.2-44.3,35.8-69,49.8c-25.8,14.7-52.5,29.8-72.3,52.8
		c-29.1,33.7-38.5,78-47.5,120.9c-5.5,26.1-11.2,53.2-21.3,77.5c-2.2,5.2-4.6,10.4-7,15.5c-7.1,15.3-14.4,31.1-16,48.5
		c-2.9,31.5,13.2,59.4,28.7,86.4c3.6,6.2,7.3,12.6,10.7,19.1H641.7z M694.2,797.3c-4.2-8.2-8.8-16.2-13.4-24.1
		c-15.5-26.8-30.1-52.1-27.4-80.5c1.4-15.7,8.1-30,15.1-45.2c2.4-5.2,4.9-10.5,7.1-15.9c10.5-25.2,16.3-52.7,21.9-79.2
		c9.2-43.5,17.8-84.6,45.3-116.4c18.7-21.6,44.6-36.3,69.7-50.6c23.2-13.2,47.2-26.8,66.2-46.1v44.1c-12.4,9-25.8,17-38.8,24.8
		c-28.1,16.7-57.2,34-76.4,61.5c-16.6,23.6-23.7,51.8-30.6,79c-3.9,15.5-8,31.5-13.7,46.3c-3.2,8.4-7.2,16.8-11,25
		c-7.6,16.3-15.5,33.1-18.7,51.4c-7.6,43.2,11.5,83.5,30,122.4c0.6,1.2,1.1,2.4,1.7,3.6H694.2z M796.8,797.3c-2.9-6.1-6-12.1-9.2-18
		c-1.4-2.6-2.8-5.2-4.2-7.8c-8.3-15.2-16.8-30.9-20.1-47.7c-7.2-36.9,10.3-71.2,28.9-107.4c8.5-16.5,17.3-33.6,23.5-51
		c1.4-3.8,2.7-7.8,3.9-11.6c5.8-17.6,11.7-35.8,25.9-45.7c6.7-4.7,14.8-7.2,23.3-9.8c3.3-1,6.6-2.1,10-3.2V529
		c-2.5,1.1-5.1,2.2-7.7,3.2c-6.3,2.6-12.9,5.3-18.9,8.9c-23.7,14.1-36.5,39.9-46.8,65.7c-13.4,33.5-21.1,59.9-24.8,85.5
		c-1.7,11.6-2.9,25.3,1.1,38.5c2.9,9.6,8.3,18,13.5,26.1c1.3,2.1,2.8,4.3,4.1,6.4c1.4,2.3,3.8,8.6,6.3,15.2
		c2.3,6.1,4.8,12.5,7.4,18.7H796.8z M846.5,753.8c0,12.7,0.1,28.5-0.9,42c0,0.5-0.1,1-0.1,1.5h-21.7c-3.3-7.4-6.4-15.4-9-22.2
		c-2.9-7.7-5.3-13.8-7.2-16.9c-1.4-2.2-2.8-4.5-4.2-6.6c-5-7.9-9.8-15.3-12.3-23.6c-3.4-11.4-2.3-23.7-0.8-34.2
		c3.6-24.8,11-50.5,24.1-83.2c9.7-24.2,21.5-48.3,42.7-60.8c5.4-3.2,11.6-5.8,17.6-8.3c1.3-0.5,2.6-1.1,3.8-1.6v26.8
		c-4.2,1.9-10.2,5.1-18.8,10.3c-8.4,5-22.8,14.2-25.5,17.3c-14,16.1-23.2,37.7-25.9,60.9c-2.9,24.8,0,59,13.2,79.5
		c0.9,1.5,2.5,2.3,4.2,2.3c0.2,0,0.4,0,0.6,0c1.9-0.2,3.5-1.5,4.1-3.4c2.6-7.9,3-16.7,3.3-25.1c0.3-6.7,0.5-13.6,2-19.9
		c5.5-23.9,19.4-45.9,33.6-66.1l1.1-1.5c2.7-3.8,5.5-7.8,8.2-12v34.1C863.6,670.6,851,700.6,847,733
		C846.5,736.5,846.5,743.8,846.5,753.8z M878.7,588.4c-4.1,9.3-10.3,18.1-16.4,26.8l-1.1,1.5c-14.8,21.1-29.3,44.1-35.2,69.6
		c-1.7,7.1-1.9,14.6-2.2,21.7c-0.1,2.5-0.2,5-0.4,7.4c-6.2-18.1-7.3-41.2-5.1-59.1c2.5-21.2,10.9-40.9,23.5-55.5
		c3-3.1,24.2-16.5,36.8-23.1V588.4z M878.7,770.5c-1.9,8.9-3.3,17.8-4.3,26.8h-18.9c0.8-11.3,1-25.7,0.9-43.5c0-8.9,0-16.6,0.3-19.5
		c3.1-24.5,11.3-47.7,21.9-69.5V770.5z M878.7,484.4c-4.1,1.6-8.4,3-12.9,4.4c-8.9,2.8-18,5.6-26,11.2
		c-16.9,11.9-23.4,31.6-29.7,50.8c-1.2,3.8-2.5,7.7-3.8,11.3c-6,16.7-14.6,33.5-22.9,49.7c-18.6,36.2-37.8,73.6-29.9,113.9
		c3.6,18.2,12.5,34.6,21.1,50.5c1.4,2.6,2.8,5.2,4.2,7.7c2.3,4.4,4.6,8.8,6.8,13.3H769c-0.8-2.2-1.7-4.3-2.5-6.5
		c-2.8-7-5.8-14.1-8.7-20.9c-8-19.1-16.4-38.8-21.2-59.1c-7.3-30.8-4.6-59.2,7.5-80.1c3.3-5.6,7.2-10.8,11.4-16.2
		c3.4-4.5,7-9.1,10.1-14c10.1-15.8,15.8-34.2,21.2-51.9c7.2-23.5,14-45.6,30.3-61.7c14.5-14.3,33.9-21.2,54.5-28.4
		c2.3-0.8,4.7-1.7,7-2.5V484.4z M868.4,449.1c-20.7,7.3-42.1,14.9-58.2,30.7c-18.1,17.8-25.6,42.3-32.8,65.9
		c-5.2,17.1-10.7,34.8-20.1,49.5c-2.9,4.6-6.2,8.8-9.6,13.3c-4.2,5.5-8.5,11.1-12.1,17.3c-13.4,23.1-16.5,54.1-8.6,87.4
		c5,21.1,13.5,41.2,21.7,60.7c2.9,6.8,5.8,13.8,8.6,20.7c0.4,0.9,0.7,1.8,1.1,2.8h-25.8c-1.2-2.6-2.5-5.3-3.8-7.9
		C710,750.1,692.4,713,699.5,673c3-16.9,10.2-32.5,17.9-48.9c3.9-8.3,7.9-16.9,11.2-25.6c5.9-15.4,10.1-31.7,14.1-47.5
		c7-27.6,13.6-53.6,29.1-75.7c18-25.7,44.8-41.7,73.3-58.6c11.3-6.7,22.8-13.6,33.7-21.1v49.7C875.3,446.6,871.9,447.8,868.4,449.1z
		"/>
	<g>
		<path d="M209.4,889v-23.2h-8.1v-8.6h28.2v8.6h-8.1V889H209.4z"/>
		<path d="M250.9,889v-31.8h17.9c2.7,0,5,0.5,6.8,1.6c1.8,1,3.1,2.5,4,4.3c0.9,1.8,1.3,3.8,1.3,6.1c0,2.1-0.6,4-1.7,5.6
			c-1.1,1.6-2.4,2.9-4,4c0.4,0.2,0.6,0.5,0.8,0.8c0.2,0.3,0.4,0.6,0.5,0.9l3.8,8.7h-12.5l-3.1-7.1c-0.2-0.4-0.3-0.7-0.5-0.8
			c-0.2-0.1-0.5-0.2-0.8-0.2h-0.5v8.1H250.9z M262.9,871.6h2.9c1.9,0,2.9-0.8,2.9-2.5c0-0.9-0.2-1.6-0.7-2c-0.4-0.4-1.1-0.6-2.1-0.6
			h-3.1V871.6z"/>
		<path d="M299.9,889l12.3-31.8h12.4l12.3,31.8h-12.5l-2.3-5.9h-7.5l-2.3,5.9H299.9z M315.9,875h4.8l-2.4-6.1L315.9,875z"/>
		<path d="M363.7,889l-12.3-31.8h12.5l6,17.7l6-17.7h12.5L376.1,889H363.7z"/>
		<path d="M402.9,889l12.3-31.8h12.4l12.3,31.8h-12.5l-2.3-5.9h-7.5l-2.3,5.9H402.9z M418.9,875h4.8l-2.4-6.1L418.9,875z"/>
		<path d="M462.1,889v-31.8h12V889H462.1z"/>
		<path d="M497.3,889v-31.8h12V880h13v9.1H497.3z"/>
		<path d="M573.1,889v-31.8h15.1c3.4,0,6.3,0.5,8.7,1.6c2.5,1.1,4.4,2.8,5.7,5.1c1.4,2.4,2,5.5,2,9.4c0,3.7-0.7,6.7-2,9
			c-1.3,2.3-3.2,4-5.7,5.1c-2.5,1.1-5.4,1.6-8.8,1.6H573.1z M585.1,880h1.8c1.2,0,2.2-0.2,3.1-0.5c0.9-0.3,1.5-1,2-1.9
			c0.5-1,0.7-2.4,0.7-4.2c0-1.8-0.2-3.2-0.6-4.1c-0.4-0.9-1.1-1.5-1.9-1.8c-0.8-0.3-1.9-0.4-3.2-0.4h-1.8V880z"/>
		<path d="M642.4,889.5c-3,0-5.7-0.5-8.1-1.5c-2.4-1-4.3-2.5-5.7-4.4c-1.4-1.9-2.1-4.3-2.1-7.2v-19.3h12V875c0,3,1.3,4.4,4,4.4
			c2.6,0,4-1.5,4-4.4v-17.7h12v19.3c0,2.8-0.7,5.2-2.1,7.2c-1.4,1.9-3.3,3.4-5.7,4.4C648.1,889,645.4,889.5,642.4,889.5z"/>
		<path d="M710.7,889v-31.8h18.9c3.3,0,5.8,0.8,7.6,2.3c1.8,1.5,2.7,3.8,2.7,6.7c0,1.6-0.3,2.9-0.8,4.1c-0.5,1.1-1.3,2-2.1,2.7
			c1.3,0.6,2.2,1.4,3,2.3c0.7,0.9,1.1,2.3,1.1,4.2c0,3-1,5.4-2.9,7.1c-2,1.7-4.7,2.6-8.2,2.6H710.7z M722,869.4h4.4
			c1.6,0,2.4-0.7,2.4-2.1c0-1.3-0.8-2-2.4-2H722V869.4z M722,880.9h4.4c1.6,0,2.4-0.7,2.4-2.1c0-1.3-0.8-2-2.4-2H722V880.9z"/>
		<path d="M779.1,889.5c-3.6,0-6.7-0.5-9.2-1.6c-2.5-1.1-4.5-2.8-5.8-5.2c-1.4-2.4-2-5.6-2-9.6c0-4,0.7-7.2,2-9.6
			c1.4-2.4,3.3-4.1,5.8-5.2c2.5-1.1,5.6-1.6,9.2-1.6c3.6,0,6.7,0.5,9.2,1.6c2.5,1.1,4.5,2.8,5.8,5.2c1.4,2.4,2,5.6,2,9.6
			c0,4-0.7,7.2-2,9.6c-1.4,2.4-3.3,4.1-5.8,5.2C785.7,889,782.6,889.5,779.1,889.5z M779.1,879.4c1.7,0,3-0.5,3.7-1.4
			c0.7-0.9,1.1-2.6,1.1-4.9c0-2.3-0.4-3.9-1.1-4.9c-0.7-0.9-2-1.4-3.7-1.4c-1.7,0-3,0.5-3.7,1.4c-0.7,0.9-1.1,2.6-1.1,4.9
			c0,2.3,0.4,3.9,1.1,4.9C776.1,878.9,777.3,879.4,779.1,879.4z"/>
		<path d="M818.3,889v-31.8h12V889H818.3z"/>
		<path d="M864.6,889.5c-2.2,0-4.4-0.2-6.5-0.6c-2.1-0.4-3.8-0.9-5.2-1.7v-8.9c1.5,0.8,3.3,1.4,5.2,1.9c1.9,0.5,3.7,0.7,5.2,0.7
			c1,0,1.8-0.1,2.3-0.4c0.6-0.2,0.8-0.6,0.8-1.1c0-0.6-0.5-1.1-1.6-1.4c-1.1-0.3-2.4-0.8-4.2-1.4c-2-0.8-3.7-1.6-4.8-2.5
			c-1.2-0.9-2-1.9-2.5-3.1c-0.5-1.2-0.8-2.7-0.8-4.5c0-6.6,4.7-9.9,14-9.9c1.1,0,2.2,0.1,3.5,0.2c1.3,0.1,2.6,0.3,3.8,0.6
			c1.2,0.2,2.3,0.5,3.1,0.7v9c-1.8-0.8-3.4-1.3-4.8-1.5c-1.4-0.3-2.6-0.4-3.7-0.4c-0.8,0-1.7,0.1-2.5,0.2c-0.9,0.1-1.3,0.5-1.3,1
			c0,0.4,0.4,0.8,1.1,1c0.8,0.2,2,0.6,3.6,1.1c2.6,0.7,4.6,1.6,5.9,2.6c1.3,1,2.2,2.2,2.6,3.6c0.4,1.4,0.7,2.9,0.7,4.7
			c0,3-1.2,5.5-3.6,7.3C872.8,888.6,869.3,889.5,864.6,889.5z"/>
	</g>
	<path d="M242.4,397.6V263.5h42.3l37.5,52.5v-52.5h50.4v134.2h-42.5l-37.3-52.5v52.5H242.4z"/>
	<path d="M404.5,397.6V263.5h107.3v36.3h-56.9v12.1h49v37.5h-49v12.1h56.9v36.3H404.5z"/>
	<path d="M242.4,577.3V443.1h47.9l27.3,55.4l27.1-55.4h47.9v134.2h-50.4v-47.1l-11.9,24.2h-25.6l-11.9-24.2v47.1H242.4z"/>
	<path d="M546.7,510.2c0,16.8-2.8,30.3-8.6,40.5c-5.7,10.1-13.9,17.4-24.6,22c-10.7,4.5-23.6,6.8-38.8,6.8s-28-2.3-38.8-6.8
		c-10.7-4.5-18.9-11.8-24.6-22c-5.7-10.2-8.6-23.6-8.6-40.5c0-16.9,2.9-30.4,8.6-40.5c5.7-10.1,13.9-17.4,24.6-21.9
		c10.7-4.5,23.6-6.8,38.8-6.8s28.1,2.3,38.8,6.8c10.7,4.5,18.9,11.8,24.6,21.9C543.9,479.8,546.7,493.3,546.7,510.2z"/>
	<path d="M288.8,761.1c-9.4,0-18.5-0.8-27.3-2.4c-8.7-1.6-16.1-3.9-22.1-7V714c6.5,3.2,13.9,5.8,22.1,7.9c8.2,2.1,15.5,3.1,21.9,3.1
		c4.2,0,7.4-0.5,9.8-1.6c2.4-1,3.5-2.5,3.5-4.5c0-2.5-2.2-4.4-6.7-5.8c-4.4-1.4-10.3-3.4-17.5-6c-8.6-3.3-15.4-6.8-20.4-10.4
		c-5-3.6-8.6-8-10.7-13c-2.2-5.1-3.2-11.4-3.2-19.1c0-27.9,19.7-41.9,59-41.9c4.4,0,9.4,0.3,14.9,0.9c5.5,0.6,10.8,1.4,16,2.4
		c5.2,1,9.6,2,13.2,3.1v37.9c-7.6-3.2-14.4-5.3-20.2-6.5c-5.8-1.1-11-1.7-15.4-1.7c-3.5,0-7,0.3-10.6,0.9c-3.6,0.6-5.4,2.1-5.4,4.3
		c0,1.8,1.6,3.2,4.8,4.3c3.2,1,8.3,2.5,15.2,4.5c11.1,3.1,19.4,6.7,25,10.9c5.6,4.2,9.3,9.2,11.1,15c1.9,5.8,2.8,12.4,2.8,19.9
		c0,12.8-5,23-15,30.7C323.6,757.3,308.7,761.1,288.8,761.1z"/>
	<path d="M362.9,759l51.7-134.2h52.3L518.5,759H466l-9.6-25h-31.5l-9.6,25H362.9z M430.4,699.7h20.4L440.6,674L430.4,699.7z"/>
</g>
</svg>
